<mxfile host="Electron" modified="2025-03-03T19:02:07.134Z" agent="Mozilla/5.0 (Windows NT 10.0; Win64; x64) AppleWebKit/537.36 (KHTML, like Gecko) draw.io/22.1.18 Chrome/120.0.6099.199 Electron/28.1.2 Safari/537.36" etag="BZGl3BPIbLjKnglwyhev" version="22.1.18" type="device">
  <diagram id="aSzpfpmV2TL3uO5plmym" name="Page-1">
    <mxGraphModel dx="2828" dy="790" grid="0" gridSize="10" guides="1" tooltips="1" connect="1" arrows="1" fold="1" page="1" pageScale="1" pageWidth="825" pageHeight="570" background="#27284B" math="0" shadow="0">
      <root>
        <mxCell id="0" />
        <mxCell id="1" parent="0" />
        <mxCell id="q_regl1twvLlKT29mewd-1" value="" style="rounded=0;whiteSpace=wrap;html=1;strokeColor=#27284B;fillColor=none;" parent="1" vertex="1">
          <mxGeometry x="-879" y="120" width="1051" height="693" as="geometry" />
        </mxCell>
        <mxCell id="Jvd322F_kjapqPpQjeNk-79" value="" style="rounded=0;whiteSpace=wrap;html=1;labelBackgroundColor=none;fontSize=35;fontColor=#660066;fillColor=none;strokeWidth=1;strokeColor=#FFFFFF;" parent="1" vertex="1">
          <mxGeometry x="-854" y="168" width="583" height="605" as="geometry" />
        </mxCell>
        <mxCell id="Jvd322F_kjapqPpQjeNk-120" value="" style="rounded=0;whiteSpace=wrap;html=1;labelBackgroundColor=none;fontSize=14;fillColor=none;strokeColor=#8FA7C4;dashed=1;strokeWidth=1.5;" parent="1" vertex="1">
          <mxGeometry x="-673" y="352" width="235" height="411" as="geometry" />
        </mxCell>
        <mxCell id="Jvd322F_kjapqPpQjeNk-80" value="" style="rounded=0;whiteSpace=wrap;html=1;labelBackgroundColor=none;fontSize=35;fontColor=#660066;fillColor=none;strokeWidth=1;strokeColor=#FFFFFF;" parent="1" vertex="1">
          <mxGeometry x="-169" y="168" width="317" height="606" as="geometry" />
        </mxCell>
        <mxCell id="HHzhIETsqmY8vslsuYrU-16" value="" style="edgeStyle=orthogonalEdgeStyle;html=1;endArrow=block;elbow=vertical;startArrow=block;startFill=1;endFill=1;rounded=0;fontColor=#FFFFFF;strokeColor=#FFFFFF;strokeWidth=3;" parent="1" source="YRH-If-phGwxbPu7-fWD-121" target="YRH-If-phGwxbPu7-fWD-123" edge="1">
          <mxGeometry x="-0.0114" y="18" width="100" relative="1" as="geometry">
            <mxPoint x="198" y="147" as="sourcePoint" />
            <mxPoint x="197.6300000000001" y="288" as="targetPoint" />
            <mxPoint as="offset" />
          </mxGeometry>
        </mxCell>
        <mxCell id="HHzhIETsqmY8vslsuYrU-64" value="Kerlink&amp;nbsp;&lt;br&gt;Gateway" style="text;html=1;strokeColor=none;fillColor=none;align=center;verticalAlign=middle;whiteSpace=wrap;rounded=0;fontSize=17;fontColor=#FFFFFF;" parent="1" vertex="1">
          <mxGeometry x="-474" y="307" width="74" height="20" as="geometry" />
        </mxCell>
        <mxCell id="Jvd322F_kjapqPpQjeNk-36" value="" style="shape=image;verticalLabelPosition=bottom;labelBackgroundColor=default;verticalAlign=top;aspect=fixed;imageAspect=0;image=data:image/png,iVBORw0KGgoAAAANSUhEUgAAAEsAAABLCAMAAAAPkIrYAAAAAXNSR0IArs4c6QAAAARnQU1BAACxjwv8YQUAAAAzUExURQAAAHCvQGivQGqvQGyrPGysPWqtPWutPWytPm2vPmuvP2yvP2yuPWyuPmuuPmyuPmyuPqNasmsAAAAQdFJOUwAQIDBAUGBwgI+fr7/P3+8jGoKKAAAACXBIWXMAABcRAAAXEQHKJvM/AAABzklEQVRYR+2Y3XKDIBBGWVBEAdn3f9p+i1iNmTSgmV60nouwEDzyZyar+k/QEOLcTvSOimGFxsSnGYtkgXxpPkfcDY0CGpKzXTO9dbPIigg4VMfjtKsZcbUrsdJYq8c5tzFhUrrEA/N8elSAMM2hxFj4K8PKs/QljMx9Cc/Rb6uPIX7S1ZXwHLerjdvVxu1q43a1cbvauF1t3K42blcbxvuphJddO37B5UID6x/xFy6kAPW8WfsPu7ytArnCe9d3yvQz78/Xx11mScCWgnorHbXJaFpKU+kiThKa3LeTPBo5rKSbIEAhpGoXW4RO+uoUjeo4KNI6JK210npkg7LWNQdJEGf0dWzQ6lim6/Nw11qta0DvPk3o63N/tODznKufB+XdiL4yQnHJT8JJl02ajbjSkrtecRHHoPYueYxPulDa7Ir5evPzeiHflo0/srqoo+wa83Uu3/elK+CiEu5ZXYK4iAPhvOaZvnQNcnafObpwTjmJD7x04XDnzTkgrvV5JDmmStk4L0GpoxT1zpXfyDy/7ciuIxP75/cPe5esPqfR9hu4L1y+1Ha4+bkRD/vmIpE9gO/gqmdzySI+csWF3QxxB3Z+KGEV67uhv41SX2DgRVYEEO+QAAAAAElFTkSuQmCC;" parent="1" vertex="1">
          <mxGeometry x="-89" y="365" width="39.5" height="39.5" as="geometry" />
        </mxCell>
        <mxCell id="Jvd322F_kjapqPpQjeNk-37" value="" style="edgeStyle=orthogonalEdgeStyle;html=1;endArrow=block;elbow=vertical;startArrow=none;startFill=0;endFill=1;rounded=0;fontColor=#FFFFFF;strokeColor=#FFFFFF;strokeWidth=3;exitX=1;exitY=0.5;exitDx=0;exitDy=0;entryX=-0.098;entryY=0.584;entryDx=0;entryDy=0;entryPerimeter=0;" parent="1" source="Jvd322F_kjapqPpQjeNk-54" target="YRH-If-phGwxbPu7-fWD-123" edge="1">
          <mxGeometry x="-0.0114" y="18" width="100" relative="1" as="geometry">
            <mxPoint x="-195.6199999999999" y="499.5050000000001" as="sourcePoint" />
            <mxPoint x="-85.5" y="499.5999999999999" as="targetPoint" />
            <mxPoint as="offset" />
          </mxGeometry>
        </mxCell>
        <mxCell id="Jvd322F_kjapqPpQjeNk-41" value="&lt;font style=&quot;font-size: 12px;&quot;&gt;PUB&lt;/font&gt;" style="text;html=1;strokeColor=none;fillColor=none;align=center;verticalAlign=middle;whiteSpace=wrap;rounded=0;fontSize=12;fontColor=#FFFFFF;" parent="1" vertex="1">
          <mxGeometry x="-35" y="374.75" width="50" height="20" as="geometry" />
        </mxCell>
        <mxCell id="Jvd322F_kjapqPpQjeNk-54" value="Internet" style="shape=image;verticalLabelPosition=top;labelBackgroundColor=none;verticalAlign=bottom;aspect=fixed;imageAspect=0;image=data:image/png,iVBORw0KGgoAAAANSUhEUgAAAE0AAABNCAMAAADU1xmCAAAAAXNSR0IArs4c6QAAAARnQU1BAACxjwv8YQUAAAKFUExURQAAAP///////////////////////////////////////////////////////////////////////////////////////////////////////////////////////////////////////////////////////////////////////////////////////////////////////////////////////////////////////////////////////////////////////////////////////////////////////////////////////////////////////////////////////////////////////////////////////////////////////////////////////////////////////////////////////////////////////////////////////////////////////////////////////////////////////////////////////////////////////////////////////////////////////////////////////////////////////////////////////////////////////////////////////////////////////////////////////////////////////////////////////////////////////////////////////////////////////////////////////////////////////////////////////////////////////////////////////50ERS8AAADWdFJOUwABAgMEBQYHCAkKCwwNDg8QERITFBUWFxgZGhscHR4fICEiJCUmKCkqKy0uLzAxMzQ2Nzg5Ojw9Pj9AQURGR0hJSkxNTlJUVVhZW11fYmNkZmdpamtsbW5vcHFyc3R1dnd4eXp7fH1+f4CBgoWGh4iJjI2Oj5CRkpOVlpeZmpucnZ6foKGipKWnqKmqq62ur7CxsrO1tre4ubq7vL2+v8DBwsPExcbIycvMzc7P0NHU1dbX2drb3N3e3+Dh4uPk5ejp6uzt7u/w8fLz9PX29/j5+vv8/f773hl/AAAACXBIWXMAABcRAAAXEQHKJvM/AAAEpElEQVRYR+2X+1tURRjHh5aVJUHBC+EC2gWM5KIJltlF0m6aQYJI4a0LSWVSWKgkomElKxnZFbUwQCssS0RLybJIDChFlt3v39M7c96znHP2HB+wp1969sPzsN/3nTNfZmbPzLyICBEiRPiP8KTk5OdlTruBw39Dxuqm7n4/cLWvs/6xJE5eJ4ubL8PAbzvmcMN1kPsxu/zVe3FYU5drpnHjeHn6b9n/5NblOWlJybcuKnv/ooy77+XmcTGhXvb9pGACx0TamtOUGn6Sw3Hg2k8dzz7CkU7CJjnjdRyNnQY5MC8HBhb+RA0lHIyVcurTaJjkKLO+A4L3czA2sq8Cn0ZzYMHbDVxI5mAsRLXSmk3nIIw7/gTelSIm9ZYElbk2D9E8H2Rtw+PUfLd44J0z/YO/t5RM4qwjXwAHWNryEdD+Nlkqugo468AcPwJ5rG3J4p3R3yt/j6zgtD3PAsdYOtAkXfYXpCTlvkobxn8Pp21pATawdOA+MuMtMf9X2n2xmrYj/jyC+awdcNWdWslSLKRpF7G2Id2PP6awdiSGP4ldQEcU63AWACdcrBWGnnYsCOLKzazDyQPaWEqid55dz9IeTw+wlHUYt70OfD068uhGWvEXONBxrygrHT02DwM/brZd6fTdg9S7JzQ5l0++DKjgkInvA3JZC7FXPdK2LGzxii+pli16gxqZZCMnNOLOIZDFmhbuh4B65nAOJ5hqmTz54nwOR80sdmY34Z5X3hqkZwaWc0LxCmXOF3o4omlKs/ZB/HKcPo1rZ3GT5O+jZ4wv3sMUHkrlgIiWa7b99iF0eY+QquQ0YeNG3WnXBkJ3UOLPQOuNHBDqC2gQGUH0iISjpEcna+smsi8Ap/UDijZ7r2Fkic1ksIeeCeBcvJjaQdFrbm6zdxOLaJPxFRRDJ7Rxs8+kv9RA320WucWR+THgS313O7iJWhqctux3AZdMx316j09+sJuY+m3HZBlLnNwyrgDa8bQG+EyJEF71DutuYkrIzNFN0Ho8p0QdUKWEhZCbAUc32pXqApLnaakSFsbl9hRwUAkqFZ5QwsK13Sw1YhFwRAl6u4qVsGB227ZL/g65vfy5+QIs1sdWA1QrYcHo5t4GvEmfutszdB+ZbvFKYJ8ShcBXSlgwusUepHe4jk4kzW0DRadMpQ9t7M1KzB7GyFylzJhmGvshGewU7h4EMpXZN6ZX1EMV1KOapBu+WVMmzOum7Grd3fCnrSLVaS6sF9OplKJJWX0UatKI2U14DtBjvjMYkBVep6VWorOhiaUsL4as1WSYm4iRowvSD03zJs4xVZQL3Q9pdG0HK633ttVNeD6gTpJOs1ncG5Sr5YCYJ6uU71eaC9QwNxElJ0sjM63ZzFVdlGs3nI8i64R8rO9QbcXateuI9SUT2W1WWalO2Qy1dp3TXUWrtUz5S/VtA7Jni7lGmFRt+ucFQzPYbQknJEuE5z0cTRYpXHjp9FWYSgTJ7Co5Yp1hr8ilcy9eLOWEhC72qDsnCpE6wgnJyPFK2/LBM7do0463FA1bJwvvlpqNMSLbt1fHl80PJtY1apk9259flhk2rggRIkT4vyHEP3QbqYVI46A1AAAAAElFTkSuQmCC;fontColor=#FFFFFF;fontSize=15;labelPosition=center;align=center;" parent="1" vertex="1">
          <mxGeometry x="-253.37" y="470.63" width="57.75" height="57.75" as="geometry" />
        </mxCell>
        <mxCell id="Jvd322F_kjapqPpQjeNk-60" value="&lt;font style=&quot;font-size: 12px;&quot;&gt;SUB&lt;/font&gt;" style="text;html=1;strokeColor=none;fillColor=none;align=center;verticalAlign=middle;whiteSpace=wrap;rounded=0;fontSize=12;fontColor=#FFFFFF;" parent="1" vertex="1">
          <mxGeometry x="-324" y="479" width="74" height="20" as="geometry" />
        </mxCell>
        <mxCell id="Jvd322F_kjapqPpQjeNk-63" value="" style="rounded=0;whiteSpace=wrap;html=1;labelBackgroundColor=none;fontSize=14;fillColor=none;strokeColor=#8FA7C4;fontColor=#ffffff;dashed=1;strokeWidth=1.5;" parent="1" vertex="1">
          <mxGeometry x="-434" y="352" width="127" height="412" as="geometry" />
        </mxCell>
        <mxCell id="Jvd322F_kjapqPpQjeNk-81" value="" style="shape=image;verticalLabelPosition=bottom;labelBackgroundColor=default;verticalAlign=top;aspect=fixed;imageAspect=0;image=data:image/png,iVBORw0KGgoAAAANSUhEUgAAAD4AAAA/CAMAAACPQ4vTAAAAAXNSR0IArs4c6QAAAARnQU1BAACxjwv8YQUAAAA2UExURf////Hy88jLz3Z9hkxWYiMvPlpjbq2xt+Pl52hwep+kq5GXn7q+wzE8Sj5JVoOKktbY2wAAAA0j5b8AAAASdFJOU///////////////////////AOK/vxIAAAAJcEhZcwAAFxEAABcRAcom8z8AAAHKSURBVFhH7ZTRkuQgCEUFQ2yVmPz/184F7d7aWe2Zfdqp2pwHSTQg4DXh5ubm5p9Aw855v8qxicim+C5n/7Tk7Cs1Y5LbIdJOn5jA8HVSIBH3QziGuUQ0FBG4i6z8eU82wiWEXQ48w00KLDwJEd2xII93IAkOSeQRMDbPImPE9NU/+IKRPVKJgjCYaVJtpvb1JaQpcfdsEm14NCGrAamgqFZhV1D01gDfWLBhCyeKL7DAjkU268+UKrIXLTDWLuyoaJai7DzS5moRFiUgaeQLfHfslSqOC7N4fDWNNy9kAir0xGBt9ygQkZesPfcOVk0JE3pelLu7QiQbbMTh2YEPwepqd2tN1GLKtMMKsFaMadH2K5JrSueQ4wTTGFrLKru9ovfmhuI9976K7trLnFJPRZLcE+XL7YNH47TGWL+nvJ8Jseri4L7mQjvBrPdpKeZfaGHWOG0+be0bAcA1tP2ZExdyPK5h0pVq8W8Q+ycuIVy5GI+h3z8wvSNCmama+MRtOwo1uxELLg+AEGfiZxB6cIlwhfNOQeeVP+ERwGm4QM9fkBzRFLvK/AUV3+p3jv1Nzp+hZIW+2M9xi/4GuhQKfd63m5ub/5oQPgAYig5uAflHUQAAAABJRU5ErkJggg==;" parent="1" vertex="1">
          <mxGeometry x="-169" y="169" width="62" height="63" as="geometry" />
        </mxCell>
        <mxCell id="Jvd322F_kjapqPpQjeNk-84" value="&lt;font style=&quot;font-size: 15px&quot;&gt;AWS Cloud&lt;/font&gt;" style="text;html=1;strokeColor=none;fillColor=none;align=center;verticalAlign=middle;whiteSpace=wrap;rounded=0;fontSize=14;fontColor=#FFFFFF;" parent="1" vertex="1">
          <mxGeometry x="-111" y="171" width="106" height="20" as="geometry" />
        </mxCell>
        <mxCell id="Jvd322F_kjapqPpQjeNk-85" value="&lt;font style=&quot;font-size: 15px&quot;&gt;On-premises&amp;nbsp;&lt;/font&gt;" style="text;html=1;strokeColor=none;fillColor=none;align=center;verticalAlign=middle;whiteSpace=wrap;rounded=0;fontSize=14;fontColor=#FFFFFF;" parent="1" vertex="1">
          <mxGeometry x="-794" y="171" width="106" height="20" as="geometry" />
        </mxCell>
        <mxCell id="Jvd322F_kjapqPpQjeNk-96" value="" style="edgeStyle=orthogonalEdgeStyle;html=1;endArrow=block;elbow=vertical;startArrow=none;startFill=0;endFill=1;rounded=0;fontColor=#FFFFFF;strokeColor=#FFFFFF;strokeWidth=3;entryX=0;entryY=0.5;entryDx=0;entryDy=0;" parent="1" target="Jvd322F_kjapqPpQjeNk-54" edge="1">
          <mxGeometry x="-0.0114" y="18" width="100" relative="1" as="geometry">
            <mxPoint x="-304" y="500" as="sourcePoint" />
            <mxPoint x="-70" y="731.5" as="targetPoint" />
            <mxPoint as="offset" />
            <Array as="points">
              <mxPoint x="-282" y="499" />
            </Array>
          </mxGeometry>
        </mxCell>
        <mxCell id="Jvd322F_kjapqPpQjeNk-97" value="&lt;font style=&quot;font-size: 12px;&quot;&gt;PUB&lt;/font&gt;" style="text;html=1;strokeColor=none;fillColor=none;align=center;verticalAlign=middle;whiteSpace=wrap;rounded=0;fontSize=12;fontColor=#FFFFFF;" parent="1" vertex="1">
          <mxGeometry x="-501" y="478" width="74" height="20" as="geometry" />
        </mxCell>
        <mxCell id="Jvd322F_kjapqPpQjeNk-104" value="" style="shape=image;verticalLabelPosition=bottom;labelBackgroundColor=default;verticalAlign=top;aspect=fixed;imageAspect=0;image=data:image/png,iVBORw0KGgoAAAANSUhEUgAAAD8AAAA+CAMAAACr3TNIAAAAAXNSR0IArs4c6QAAAARnQU1BAACxjwv8YQUAAAA2UExURY+nxIGYs0VUaGByiWZ6kiMvPjA+TzdFV3SJoz5NYIifvFlrgUtccG2BmnuQq1JjeSo2RgAAANWFZWQAAAASdFJOU///////////////////////AOK/vxIAAAAJcEhZcwAAFxEAABcRAcom8z8AAAEJSURBVFhH7ZXrDoMgDIW52HCZQ9//aUehGt1YpLDpHz8SucTDsS1EcXPzB7zaomm1Hg1g1gaGVusZwNIoojr1plPvWvUeHji5Wt8cf7f/+MRJs564rH7Cenx25H/Cyan59wHRe38bYkuxHDJBZutPS1UbKBiQVHg/BOxCWlEgcXLECDR4R5+o1+nzYzLSKRByinFU6ifUg0pjyp8IMPD8c91WvWXo9/55H7a/GdO46fvn+JD0qqQjgz3HvwQn/hIcf/rjeRPjjlgXzwEn/gvrn/2X+jXW3y3+OX7J9S/B8S9xpv+av4vyP3feP0H3zm96jn+JSn3//TNfqNNb5RDz2RQl4+bmNwjxAo6BDI4Cp2mCAAAAAElFTkSuQmCC;" parent="1" vertex="1">
          <mxGeometry x="-854.0033333333332" y="168" width="63" height="62" as="geometry" />
        </mxCell>
        <mxCell id="Jvd322F_kjapqPpQjeNk-109" value="" style="edgeStyle=orthogonalEdgeStyle;html=1;endArrow=block;elbow=vertical;startArrow=none;startFill=0;endFill=1;rounded=0;fontColor=#FFFFFF;strokeColor=#FFFFFF;strokeWidth=3;exitX=1;exitY=0.5;exitDx=0;exitDy=0;entryX=0;entryY=0.5;entryDx=0;entryDy=0;" parent="1" edge="1">
          <mxGeometry x="-0.0114" y="18" width="100" relative="1" as="geometry">
            <mxPoint x="-719.9999999999998" y="497.5000000000002" as="sourcePoint" />
            <mxPoint x="-590" y="497.75" as="targetPoint" />
            <mxPoint as="offset" />
            <Array as="points">
              <mxPoint x="-705" y="498" />
              <mxPoint x="-705" y="498" />
            </Array>
          </mxGeometry>
        </mxCell>
        <mxCell id="Jvd322F_kjapqPpQjeNk-123" value="&lt;font style=&quot;font-size: 15px&quot;&gt;BROKER Mosquitto&lt;/font&gt;" style="text;html=1;strokeColor=none;fillColor=none;align=center;verticalAlign=middle;whiteSpace=wrap;rounded=0;fontSize=14;fontColor=#FFFFFF;" parent="1" vertex="1">
          <mxGeometry x="-610" y="352" width="143.5" height="20" as="geometry" />
        </mxCell>
        <mxCell id="Jvd322F_kjapqPpQjeNk-128" value="&lt;font style=&quot;font-size: 15px&quot;&gt;&amp;lt;TOPIC&amp;gt; :&amp;nbsp;arn:aws:iot:&amp;lt;region&amp;gt;:&amp;lt;account&amp;gt;:thing/Home_Assistant/&lt;/font&gt;" style="text;html=1;strokeColor=none;fillColor=none;align=center;verticalAlign=middle;whiteSpace=wrap;rounded=0;fontSize=14;fontColor=#FFFFFF;" parent="1" vertex="1">
          <mxGeometry x="-854" y="779" width="446" height="20" as="geometry" />
        </mxCell>
        <mxCell id="Jvd322F_kjapqPpQjeNk-129" value="&lt;font style=&quot;font-size: 12px;&quot;&gt;SUB&lt;/font&gt;" style="text;html=1;strokeColor=none;fillColor=none;align=center;verticalAlign=middle;whiteSpace=wrap;rounded=0;fontSize=12;fontColor=#FFFFFF;" parent="1" vertex="1">
          <mxGeometry x="-735" y="478" width="74" height="20" as="geometry" />
        </mxCell>
        <mxCell id="Jvd322F_kjapqPpQjeNk-130" value="&lt;span style=&quot;font-size: 14px; text-align: left;&quot;&gt;topic &amp;lt;ARN&amp;gt;/# in 1&lt;/span&gt;" style="text;html=1;strokeColor=none;fillColor=none;align=center;verticalAlign=middle;whiteSpace=wrap;rounded=0;fontSize=14;fontColor=#FFFFFF;fontStyle=1;labelBackgroundColor=#FF8000;" parent="1" vertex="1">
          <mxGeometry x="-434" y="478" width="126" height="20" as="geometry" />
        </mxCell>
        <mxCell id="Jvd322F_kjapqPpQjeNk-131" value="" style="endArrow=none;html=1;rounded=0;dashed=1;fontSize=12;fontColor=#660066;exitX=0;exitY=0.75;exitDx=0;exitDy=0;entryX=1;entryY=0.75;entryDx=0;entryDy=0;strokeWidth=3;dashPattern=1 1;strokeColor=#FFFFFF;" parent="1" edge="1">
          <mxGeometry width="50" height="50" relative="1" as="geometry">
            <mxPoint x="-434" y="500.00000000000045" as="sourcePoint" />
            <mxPoint x="-310" y="499.99999999999955" as="targetPoint" />
          </mxGeometry>
        </mxCell>
        <mxCell id="Jvd322F_kjapqPpQjeNk-134" value="" style="edgeStyle=orthogonalEdgeStyle;html=1;endArrow=block;elbow=vertical;startArrow=none;startFill=0;endFill=1;rounded=0;fontColor=#FFFFFF;strokeColor=#FFFFFF;strokeWidth=3;entryX=1;entryY=0.5;entryDx=0;entryDy=0;" parent="1" edge="1">
          <mxGeometry x="-0.0114" y="18" width="100" relative="1" as="geometry">
            <mxPoint x="-452" y="500" as="sourcePoint" />
            <mxPoint x="-536.5" y="499.75" as="targetPoint" />
            <mxPoint as="offset" />
            <Array as="points">
              <mxPoint x="-496" y="500" />
              <mxPoint x="-496" y="500" />
            </Array>
          </mxGeometry>
        </mxCell>
        <mxCell id="q_regl1twvLlKT29mewd-2" value="BRIDGE" style="shape=image;verticalLabelPosition=bottom;labelBackgroundColor=none;verticalAlign=top;aspect=fixed;imageAspect=0;image=data:image/png,iVBORw0KGgoAAAANSUhEUgAABEwAAAEYCAYAAABGJmP8AAAACXBIWXMAAA7DAAAOwwHHb6hkAAAAGXRFWHRTb2Z0d2FyZQB3d3cuaW5rc2NhcGUub3Jnm+48GgAAIABJREFUeJzs3Xd4VGX6xvH7PZPeSIKUBJDee5EiICpYWBu4wrpWSjITQJr0HoogCyKIApmAYNm1oKtiV1QURWnSpSs19N7S5ry/P8TfWkggk0mec2buz3XtdbkhJF8NITPPvAUgIiIiIiIiIiIiIiIiIiIiIiIiIiIiIiIiIiIiIiIiIiIiIiIiIiIiIiIiIiIiIiIiIiIiIiIiIiIiIiIiIiIiIiIiIiIiIiIiIiIiIiIiIiIiIiIiIiIiIiIiIiIiIiIiIiIiIiIiIiIiIiIiIiIiIiIiIiIiIiIiIiIiIiIiIiIiIiIiIiIiIiIiIiIiIiIiIiIiIiIiIiIiIiIiIiIiIiIiIiIiIiIiIiIiIiIiIiIiIvKSkg7wtVSkGgdxsKWCaq6gymnoGOkmScqh0OKhFqf/+cI/S4RFh/nd17sgPnrqo1/eG/1eZekOHzoOIENBfZWGtJ+kY4iIiIiIiPyJ3zyB7ou+oVnIegLAIAAJ0j2Wo3C6cvPKGztN7lSm1q21akrnSPnyuS+/fnPAmw201nHSLT62TUFNSEDCG6lINaVjiIioaPRAj+hwhIeYMEv89jYNXSIXuQYABCP4PIAcAMhCVmYoQi+VQZkz/NlARERUcH4xMElCUm0DxnsAqku32EFwePCeVo+3yrhn/D31YkrHBNwKnON7ju9+qvFTpy6evthMusXXFNSXQQjq+gJeOCHdQkRE18YJZ4SGrgzgegVVDkB5ANcDSNDQ8QoqDkAcgFgAQV5+mjMATgE4paBOaejDAA4oqAMA9nngOWDA2OuG+3jh/42IiIj8g+0HJk44WwD4FECJq70v/UVW2ZplV/992t/DG9zToKl0THHSps5d1H3Rsh9e/uEmACHSPT6224TZej7mH5EOISKi/xmIgeEXcbGRCbMegFoKqg6AWgAqwjqPyY4D2AJgm4beasD4yYCxZi7mnpIOIyIiKm5W+eHslSQklTdgrAZQVrrF7oLDg3++uffNR+4ed3ejsOiwcOme4rJ92fY1M2+fGWfmmFWlW3xJQ393GqdvXYzF2dItBdUd3UuFIORj6Y78aOgLCuqEht4I4GM33KsAaOkusobLZ2m1VVB3aujaCqqkgrL036tpSPO7FXcWoJKRXMeA0VJD3wCgOYB6AIKFu7yhAewEsEpBrdLQqxKRuDYVqbnSYVbihHO3dAP5LwPGffMwb7OvPl4ykh9UUE/56uMR5WGzG+77pCMKw9YDExdc/9XQnaU7/IlS6nzllpU3PuJ+pHK5euUC4iyYnIs5Z6ffPH3FntV77pRu8bH+brifk44oqB7okRiEoIPSHQW02oQ5fD7mfykdQrKSkXyvgpoMoK50S0G44bb14wGrSEFKJQ3d3oTZXkHdCqCMdFMROgdgGYClCmopDx8HnHBycE5FxoTZbD7mr/XVx3PB5dTQab76eERXoqDW2v1FGds+QEpG8g0KaiVs/O9gcWapqqV+7DKjS0TDexvWkY4pDl8898XSNwe82QQa8dItPnI0EpGVnsWzl6RDCsKmAxMAMAGkuuGeBK42CTipSA3KQMYzAPpJt3iDAxPv/HYznwGjs4a+D4F9ltpBDf0+gLfLodyyQFx9woEJFSUOTMiO/GFg4u3BYVbwKDgsKUrGsd3Hms25bw7CosN23j327gvtB7ZvaDgMv/1v3r5f+w4N7224e0L9Cfuzzmc1lO7xgdLncb49gA+kQwKEAWBCMpJD0pE+RjqGilcGMtIA9JDuoKKXilTjEA7dYsJ8IAMZ9ymoBM0ZKQCUU1ApAFIykHHCCecSAG8D+MwNd45wGxERkVcM6QBvKai/STcEisxzmdXfGvJWo75Rffd+MP6D73Ozc/32VaPrKl1XdcaJGTWqtKriF1srFNQd0g2BRkGNcsH1gHQHFR8nnAPAYYnf64me1ZKRPDEDGXs09NLLw4GA2LrqhZIAuuPXgf1+F1zTXHAFxGpVIiLyL7YcmKQi1cCvJ8pTMcrNzK30fur7rfpG9D3+xoA3VuRk5tjuQNFrERQSFD5sxbBbO03u9DmA89I9haGgKgknBCKloef0RE9/2dpF+eiFXlUATJHuoKLRF31DXXA95oRzuQOOHQpqNIAK0l02U0ZDD9bQW1xwfe+EM2kgBlr6EGQiIqLf2HJgshd7S8Le24lszfSYZb+c9eWN/aL6nXq93+tf52TmZEk3FYWOIzreNnrd6H1BoUG7pFu8ZcIsLd0QoEoZMHjyfAAwYc4CECbdQb6VhKQyLriGZSFrt4Z+CUAbcBtwoWnolgDSL+DCISecs3qjN4dPRERkabYcmCgoO17J53dMj1nmq9lftesX1e/0W4PeWpGTmeN3e5QrNKpQZ8bxGSVLVyu9TLrFGwYMh3RDoFJQyUlIqi3dQUXHCectGvpu6Q7yHSec9V1wvWrA2KehnwZQTrrJT5UA0C8XubudcP47GcmNpIOIiIiuxJYDE7IW02OW+XzG5zf2i+p3/N2R7y43c02PdJMvhUaFxk3cObHd3WPv/hyArW6cIVEOA8ZY6QgqUuOkA8g3nHDWd8L5MoB1GvphACHSTQEiGMBDCmqdE87PXXDZ+iYFIiLyPxyYkM+YHjPh4ykft+0X02/vihdXrJPu8TF1z/h7bnvyyye3GA7jgHQM2UbXFKTUk44g30tGcgcA7aQ7qHCccDa5fJvLBvx6+x5X5cnpoKFXOeF8zwlnE+kYIiIigAMTKgI5l3KqvNTzpcZPlnzyp58+/2mbdI8v1bylZrOn9z+NsKiw9dItZAuGBx6uQvBDXD1kb0lIKu+EMw3AagD3gOeTWIUCcC+ANU4430xCUmXpICIiCmwcmFCRuXDyQp1Zt8+qOab6mO+P/3z8oHSPr5RIKFH+mePPVCtTs8xX0i1kfQrq7y64Gkp3kO8kI7mjhm4r3UEF1xu9o5xwphowdgBwgo+DrEoB6GLA2OaEc5YTzhLSQUREFJj4QIGKmjq662irUVVHxc7tPHdpblaura/p/U1QaFDUhG0Tbm6T1OYTAKZ0D1ma0tCp0hHkU6nSAVRgKhnJj+Yi92f8evYMr7W1hxAA/QBsd8H1iHQMEREFHg5MqLhErn93fYd+0f2Ofzv/2+XSMT6iHk1/9M6uM7t+DeCidAxZ2n3JSL5BOoIKLxnJdyuo5tIddO2ccFZ1wvmJgnoZQCnpHvJKGQ39ihPOZU44a0nHEBFR4ODAhIqVJ8dT6ZXkV9oOLj147f71+3dJ9/hC+/7tbxn23bCdhsPwm21H5HNKQY2RjqBCUwaMVOkIujZOOIOdcI4BsBnA7dI95BPtAKxzwjnKCWewdAwREfk/DkxIxLlj55pOajyp4jM3P/NN5plM22/TqXJjlYZP/fxUbmhk6GbpFrKse1KQwpUJNuaE8z4N3VS6g67u8iqEFQAmAAgTziHfCgMwCcDaJCQ1kI4hIiL/FiQd4I1IRJ6v/4/66z25npycCzmOnKwc5GblmtmXskM9OZ6cnEs5oZ4cD3Kzc4Myz2VGeLI80Z5cT6x0N/1F8I6vd9w0sOTAww/NfWh72+S2tn4iEn99fMXpR6afG1d33Lcn955sI91D1nP5xpy7pDvIKwq/nn1B1qZccCVr6BkAIqVjqEjVN2CsdMGVmoCEaalI5XliRETkc7YcmMzG7LP6dd2oIL9Hmxrnj5/HuWPnLpw5dObsmYwz50/uP5l5av8pz9GdR81jPx8LPX/sfImsi1mloRFSVO30V6bHLPuq89WyS59dunLQskE1YkrHxEk3eSskMiR68i+TWz3T7pmlO5fv7CDdQ9aioP6WhKSW8zH/B+kWKphkJN8PoEA/d6h4dUf3UiEIeUVD3yHdQsUmTEM/fQiHbklBymPzMO+odBAREfkXWw5MvKEMhejS0YguHR2ZWDcxz1edtKlxOuN07uHth49nbMo4dXDTwczD2w6rIzuPRF08cbGcaZo8Wb+IHN56uMWwhGEnujzbZfWt/W617QGZSinH4G8Gd1j46MLPf3j1hw749ZVpIgCAA45UAHdKd1CB8Awai0tCUlMDxlsaupJ0CxU/DX2Hhv4xGcld05G+QrqHiIj8R8AMTK6VMhTiyscFxZWPK1u7fe2yf/710wdP5+z6dtfhXct3Hftl1S84suNIqUtnLpUDz4PxCdM0S77R/42SS2cs/XHI8iEV4yrElZRu8lb3V7rfVqp6qS/eH/f+TQB4OB0B+PWBfRKS2s7HfH+5LcrvueDqqqEbSnfQlbngcmro2QBXhwa4cgrqaxdco9OQNlU6hoiI/AMHJgUUWy42uNk/mlVo9o9mFX57W+a5TOz7cd/RzZ9sPrz5o804sv1IYm5W7nWSnXZ3Yu+JJiMqjjjVeUrnlXcMu6OFdI+37h57d/vYxNjvXkl+pQkArk4iAIABYxwAbtmygVSkGhnIGCvdQX/VBV1C4hDn1tCPS7eQZQRp6KedcNYNRWjybMzOkg4iIiJ746oIHwiLDkONdjVK3z/l/gZjN4xt8ELmC9dNPTg197EFj/3c4J4GG6Kui/oZAA8jKyCtddx/h/+3xbByw9ac2HPisHSPt9oktWndZ0mfbUop298GRD7TPhnJ7aQj6OoO4uA/AdSR7qA/6oVecbGI/RQAhyV0JY9mIeur7uheSjqEiIjsjQOTIhKbGBvUukfrKn2W9Gn4zLFnqjx76lm4Frv2NuzU8MewqLB90n12cjrjdLNRVUaFfzTpI9selNngngaN+37YdxcUzkm3kDUoqEnSDZS/LujiUFCjpTvoj3qhVxUPPCsU1M3SLWRprYIR/H0v9KopHUJERPbFgUkxiYiNMJo80KRi73d6N5l1btb10zKmZXad0XVLhcYVNhkOgysPrkJrXeK9Me+1HFNzzJqLpy5ekO7xRt2OdRsN+WbIASiclG4hS2jjhPMW6QjKWyxiHwJQS7qD/icFKc098KwEvy50bap64FnuhNO2W3uJiEgWByZCYhJiwtoPbF939I+j68++ODvqiQ+eONjk703WhcVw9Ul+ju442mxw2cEndi3ftUO6xRvV2lSrPey7YceUoTg0IWjoidINdGWXV5eMku6g/0lCUlsT5ucAeEYYFUQpAF+44GovHUJERPbDgYkFBIUEof5d9cu53nI1nnVm1vXjNo0717pn643hMeH7pdusyJPtuX7aTdOqvPjoiyu1qbV0T0FVaVWl5rAVw45D4bR0C8lSUK2TkczDXy0oFrGPA+BSfotwwnmLAeMjADHSLWRLkRp6STKS75AOISIie+HAxIIS6yVGPzb/sQYzz8ysMGbjmLOte7beGBYddlC6y2KCVr66ssWwCsM2nMk4Y7vBQ+UWlWsMXDrwOBRsub2IfEdBTZBuoD9ywhnM1SXW4YSzE4CPAURJt5CtRSio91xw3ScdQkRE9sGBicWVr18+5rH5jzWYdXZWuRErR5xs+o+m64LCgo5Kd1nFmYwzjYZfPzxz4wcbN0u3FFStW2tVS3kr5RAAXnsY2Fq54LpTOoL+R0N3A1BFuoMAF1y3AXgdQKh0C/mFUA292AnnXdIhRERkDxyY2Eil5pXina87Gz9/4fnSvZf03lu+YfkNAHKku6SZHrPsC/e8UGdO5znfmx7TVtc3N76/cbUer/TYByBXuoVETQKgpCPo/1eXjJDuICAFKa019DvgsIR8KxjAYl7tTkRE14IDExtShkLDexpWHLN+TMNpGdP0LU/csiEkIiTQt+wYG97d0GpIwpBNZ4+ePSUdUxAtHmlRvevMrjsA2GrYQ76joZs64fybdAcBAJIAVJaOCHQpSGluwvwYQKR0C/mlcAW1xAVXM+kQIiKyNg5MbC4mISbkwdkPNpx9YXa5oSuGHqjWttoqpdQl6S4p54+dbzi83PCsXd/t+lm6pSDa929f564xd22S7iA5Cmo8uMpEVF/0DQXA1SXCeqFXzcvDkmjpFvJrMRr6o57oWU06hIiIrIsDEz9StVXV8kO+GdJ82uFpjvb9228KCg46Jt0kwZPrKTu97fSyy+YsWyndUhD3Tri34W1P3rZGuoNkaOimyUi+R7ojkGUj2wmggnRHIOuDPiU98CwBEC/dQgGhlAOOT5xw8qpqIiK6Ig5M/FB06eiQrjO71p95dmapTk912hoaFRpw1xNrrSNe6/Na8/n/nL9ca/tcPfzAMw80a3BPg1XSHSRDQU1KRSr/XhbQDd3CNPQw6Y5A5oQzOAc5iwHUkG6hgFIVwNtd0CVEOoSIiKyHD8z9WHBYMDqO7Fh71tlZFfq83+dA2Vplt0g3FTO1+vXVbUdVHvVj5plM22xT6v1u7+YJdRLWS3eQiPqHcKiTdEQgCkawC0A56Y4AtwDALdIRFJBuikXsHOkIIiKyHg5MAoBSCg3ublB+/NbxdYf9MOz49U2v34AAOmD0xN4TTYeUG7L/2M/HDkm3XAtlKIxaM6puZHzkNukWKn4aegJXmRSvbugWpqCGSncEsmQk9wfwqHQHBS4F1dMJZx/pDiIishY+KA8wVVpUuW7UmlENx24ae7Zqq6obAXikm4pD9oXsGqOrjQ5d/+76DdIt1yI4PDh4/Lbx5YNDg/dJt1Cxq5uBjL9LRwSSEIT0AZAo3RGokpDUUkH9S7rDJs4D2KWg1mro7wAsBfBfAK8DcCuofwNYfPnt3yiotQC2AzgpFWwzzyQj+QbpCCIiso4g6QCSUa5eudihK4bG7vtx34lFjy/KOLj5YD34+w0dGvFzO8+Nunvs3d/dM/6e1tI5VxNdKjpq+Orh5yY1mnRGm7qEdA8Vq3GpSH07FakBsxJMyqN4NBIAV5cIuXzY5psAeH7E/2QqqPUaerOG/hnALw44fs5C1i8LsdDrw9ydcJYwYFTxwFMFQGUFVQVAXQBNAET5qN3uQhXUmz3Rs+kCLPBmyNTV50XCFNQwDd1UuqOATgFwSUf4WjCCfXoDpAFjqQcev/ozq6DiNHSadIcXFl/+n98xYZ6Sbigs2z5BttNBnnawf/3+ky/1eOng/nX7/X9wAqDBvQ2+6/NeH8sPTQBgy8dbdjz3t+cqAggt6O9VUGvTkNasCLKKTA/0SAxC0EHpDmkK6qE0pL0m3eHvnHAOBTBVukOaG26Jv/eVE86PANwp8Lmt5CyArzX0Fw44vjFhbnbDnVNcn7wLujhiEVtLQd0EoAN+PUcmrrg+v0V96Ib7HgAB/1jTCecSAHa7wS3DDTfPpApANn4MOd4Nd6p0BF0Zt+QQAKBCowrxo38cXX/o8qFHSlYq+ZN0T1HbuGRj6+ntpi/Xprb8K/h1O9at8cC0B34CH7gFFA09tgu6OKQ7/FkP9IgGMES6I1A54eyNwB2WHAWQBuAOANe54b43Hemz5mHeuuIclgDAYiz2pCN9ixvuuW64/34Kp0qZMNsrqDkADhdni4Xc5YQzRTqCiIjkcWBCf1C1TdWyk3+ZXKfPkj77w0qE7ZXuKUo7v9nZdmzNsT/mZOYU64NTb9w2+LbGLR5uweuGA0uteMT/UzrCnwUhqC+A66Q7AlEykmsACLRzS0wF9QGAzgDKu+FOccP9WXEPSK5mMRZ75mP+l2lI65OIxAoKqtPlbsu/wOBj03qiZzXpCCIiksWBCV1Rg3saVJhxbEbFO4ffuUkZ6ox0T1E5uutos5GVR27OPJt5Qbrlarq/0r1FYr3ENdIdVHw09LhUpPKsqSLQF31jAAyS7ghEqUgNMmC8BCBCuqWY5AB4BUDdNKTd44b7XasNSfKSitTcNKS9l4a0exxwVAfgBpAr3VVMIh1wvMyVfkREgY0DE8qTI9iBzlM613/m2DMRTbs0XQsgW7qpKJw9fLbxsPLD9p89fPaEdEt+lFIYuWpkw/CY8O3SLVRsqmUg42HpCH+UicwBAOKlOwLRIRwapKFbSncUg0wFNccDT3U33I+54bb1VfFzMfdnN9wuALU09AL46WOCP2kVj/jB0hFERCSHAxO6qsj4yGDnm86mqVtSL5atVdYvzzfJPJdZa3jF4RcPbT1k6Wt8g8ODg0etGxVvGIalhzvkU2OccAZLR/iTbugWq6AGSncEoiQkVdbQY6U7ipgJYD6AKmlI67MAC/xqe6sb7t3pSE/ywFMDwNvSPUVNQ49LQlJl6Q4iIpLBgQlds4Q6CbHjt46v0/3l7rsdwY6j0j2+5sn2VJhQf0Lo3jV7d0m35KdUlVKlXG+5DiNwlkUHuqoK6jHpCH8SitCBAGKlOwKRAWM2/HgrjoZepaBauOFOdsN9SLqnKC3Agr1uuB/Q0PcB2C/dU4TCL/+5JSKiAMSBCRVYy0dbVn3m2DPxdW6rsw5+dgic6THLTGk+pdSOr3dYeul0o86N6t7yxC2rpTuoeGjoMV3QJUS6wx90Q7dYDd1PuiMQJSP57wDuku4oIjkaeqqCapOGtIA6ayod6Uvw6zadqQA80j1F5K5kJHeWjiAiouLHgQl5JbxEeFD/z/o3fvKrJ4+ExYRZehtLQWmtS8y4ZUbijq93bJVuyc+Dsx9sVaFxhe+kO6hYVIxHfDfpCH8QgpAh4OqSYueEM0JBzZTuKCLbTZjN0pE+3C6HufqaG+6L6UgfbsBoB+CAdE9RUFCzHsWjkdIdRERUvDgwoUKpeXPNhBnHZ1zfvn/7TVD+cwCc1jrGDkOTYSuGNQ+LCbP0ahjyDQ09iqtMCscJ53UA+kp3BCIF9SSA8tIdReD1XOTeMB/zN0qHWME8zPsuBzlNAHwm3VIEKoQj/EnpCCIiKl62vK6yG7rFTmkxZblSSkeWjNQAEBIWYoaXCDcAIDw2HCERISq2fGxwXPm48NjE2MgSZUtER5WKinMEO0Jl6/2PI9iBrjO71m/ds/XJmbfPPH728Nka0k2+cHmliTl0xdAdVVpWseS/U3BYcPDodaNjx1Yfe8I0zZLSPVSkro9DXE8Ac6VDbGwIgGjpiEDTHd1Laegh0h0+pgFMcMM9/vI/02ULsfBYF3T5WxziZgDwt+1vQ3ujd/oczDksHUJERMXDlgMTA0bEnlV72nr1mxXOOYIcp0MjQ0/HlI05W7p66ezEuolG+YblIxLrJcaXqV6mXFBoUJiPkwNCufrl4qcemBr/5sA3N341+6vaAGx/s4fWOm7qjVP18O+H76zconJ16Z4rKVWlVNmU/6ZsmtNpTiwAh3QPFamR3dBt4SIsypQOsZsUpJQ2YfaR7ghEwQgeByBGusOHcgB0c8P9H+kQq1qMxR4A/Z1w7gHwDAAlW+QzUR54xgDg3yVERAHClgOTQtGI9uR4oi+evljh4umLOLztMDa+/4eVtNpwGIcj4yMPJtZNPFv9pupGrQ61rqvUrFKl4PBg7l29CsNh4MHnHmzQ/KHmR2Z2mJmVdSHreummQtOIn3rjVIxYOWJXxWYVq0nnXEnD+xrWb/FIi29WvrryJukWKlLlQxGaDIA3NhSQCXMoAP4dXsxccFXX0E7pDh/KUlBd0pD2vnSIHbjhftYJ5zkAafCTbeAaOjkZybPSkb5DuoWIiIqeX/zw8jFlesyy546da7p92fZbPpjwQbvpN02v+0TEE2G9Q3v/PLra6BXzH5r/5fp316/JOp91XjrWqqq0rFJm+tHp5evcXmc9/GC5sjZ1/NMtno7bt3bfbumWvHR/qXvb2MTYH6U7qGhp6OEDMTBcusNOeqN3WQC9pDsCkYYeBT9YbXhZtobuzGFJwbjhnq+he8IPHgtcFqygxkhHEBFR8eDA5No5PNmeKsd2H7tx9Wurb53beW6zftH9wp8If2L3U82eWvbhxA+XHdl2ZJd0pJWERIQY/T/t36jXO732OoIdx6V7Css0zZJTmk+J3bd2nyW/zspQaszGMVUcQY6D0i1UpBIv4IJLOsJOPPAMBxAh3RFoeqFXFQAPS3f4iKmhH09H+sfSIXaUjvRF8K8Dl//pgsuS23SJiMi3ODApHEdOZk7VfWv33bxk7JKbx9YeW61XUK+DkxpP+ubLWV9+d+HkhRPSgVbQqFOjSlP3T40qW7PsZumWwjJNs+Tk5pNjDm8/vF+65UqiSkbF9l7S+xSAXOkWKlLDnHByAHANeqBHoobmgEmAB55h8J+tv4PSkf66dISdueF+AcC/pDt8xGHCHCYdQURERY8DEx8zPWa5/ev33/TGgDdaP1nyydj+0f23zr5r9tebPty0Rps6R7pPSnSZ6LDx28bXu3fCvRvw64F5tqVNXXpCgwk4c+jMMemWK6nXsV691j1ar5DuoCLFLSbXKAhBIwDwIO9iloSk8gC6SXf4goJa5IZ7pnSHP0hE4ggA70p3+IKCeqwnelaU7iAioqLFgUnRcmSez6y9+aPN7Z6/+/lmvYJ6nZnUeNI3K/+9cqUnx5MlHSfhrjF3Nez3Ub9DjiCHrVffeLI9FcbWHHss60LWBemWK3l0/qNt4yrErZHuoCI19FE8ykNM89EbvSsASJbuCEQGjAEAQqQ7CktB/XASJ7lCyUdSkWpewqVHAGyRbvGB4CAEDZSOICKiosWBSTHSWl+3f/3+m1585MUWvUN7X5pQf8J3KxauWO3J8WRLtxWnuh3rXv/UnqfCYsrG2PqE+cxzmXXG1hi71cw1Lbf9RSmlxqwfUy0sJuyodAsVmdLhCOfVlvnIQc5IAKHSHYHm8nax7tIdPnDaA89Di7E4oH5GF7VX8MoFDf0PABelWwpLQ/foi77+dGU2ERH9CQcmUjRiD24+2PqlHi/d0Ce0z7nJTSd/vf699Wu01qZ0WnGIKxcXOWXvlOr1/1Z/vXRLYZzOON1scvPJK7XWljv9PzI+MnbM+jH+cjsFXdmQHugRLR1hRT3Rs6KC6iHdEaAeBRAvHVFYCiplPub/It3hj9KRvgVAf+kOH4jOQtaj0hFERFR0ODCxAK11yb0/7m03t9PcZn1C++yd23nu0hO/nDgg3VXUgkKC1BMfPtHooRce2qaUsu0rTfuS2EFZAAAgAElEQVTX7W897+/zvpHuuJKSlUvGSTdQkbouCEH+dPOEzzjgGA0/2BJiU/6w8umTNKS9IR3hz9xwzwfgD7cO9QegpCOIiKhocGBiMZ4cT+X1767vMLLKyDIjK438/vuXvv/e9Ji2PiT1atr1bldr1NpRF4LCgg5Jt3hr/Tvr270z/J1vpTsoIA3ikvA/unyd7ePSHYEoBSk3A6gv3VFIFw0YPFS5GAQhyAXgrHRHIVV3wdVBOoKIiIoGBybWFXxi74lWi7otatUntM/x+Q/O/+Lc0XN+ex5FhcYVSk3+ZXJs5HWRO6VbvPXJ1E9aLU9fvkq6gwJOfBay/GFpu8944BkNgNvRBJgw/WEb1MR5mLdHOiIQzMGc/QBSpTsKS0P7w597IiK6Ag5MbMD0mAmr31jdfnCZwVFTmk9ZdnDzQdsOFfJTomyJ8Kf3Pl21XP1ym6RbvOR41flq/Z8++2mzdAgFnEG90IvbrwD0RM9q+PUMDSpmvdE7CkBn6Y5C2gLgGemIQJKIxNkA7Ppz/zeduqFbrHQEERH5Hgcm9hKxZ/WemyfUn1B1UKlBa1YsXLEagOUOGy2MkIgQY8yGMfVbdWv1o3SLl8Jnd5xd5sSeE7bdXkS2VMKEOUA6wgoccIwFECTdEYg88HQBECXdURgaeoAbbr/eBms1qUjN1dAjpTsKKSwUoV2lI4iIyPc4MLEn4/zx881e6vHSDX2j+m5bNmfZcn+6XUcphW4LuzXpNKnTFgCWu7L3akzTLDWhwYRTOZk5mdItFDg0dP+e6Gn7m0kKwwVXdQD/lO4IVBra1ufGKKgf0pG+VLojEKUj/QMFtVa6ozDs/uefiIiujAMTm8u+kF37tT6vte0b0XfXFzO/+EZr7ZFu8pWOozrW7f1e7wPKUOekWwoq81xmnck3TLbrKhmypxIOOJ6UjpCkoVPB1SUieqN3BQA3SXcUhglzgnRDIDNhTpFuKKRWTjirSkcQEZFvcWDiJ3Iyc2q8OfDNm/rH9N/2/Uvffw8/2arT8N6GlUasGnHJEeQ4Id1SUBmbM258o/8by6U7KKD0747upaQjJLjgqgPgQemOQJWL3M6w99WqP6Yj/RPpiECWjvT/ArDzGWBKQ9v9DB8iIvoTDkz8TNb5rLqLui1qNSBmwObVb6z+QbrHFyo2rVh6zMYxKig06Ih0S0F9+dyXrTYs2bBBuoN8ysrnG0QFIzhQV5mMg7V/pvnNtskrUVD3STcUhoKaAD95ocHGtIZ+WjqiMBQUByZERH7Gyg8uqRAunbtUf/6D81sOLj147d41e7dL9xRWQu2E+AnbJkSERIQckG4poKA5neZUOLLjyH7pEPKZd6UDruKJQFtl4oSzvoZ+QLrjKpZIBxSVPuhTUkPbeTvOljSk+e3Xx05O4/TrAPZIdxRCy97oXVY6goiIfIcDEz937ti5ppNvmFz1qWZPLTt75Owx6Z7CKFmpZPSk3ZNKhpcI/1m6pUA04ic1mXQp+2L2RekUKjwNvQCAlb+WUcEIHiIdUcxSYeGfZwrqU9j/2tQ8ZSP7Htj77JgF4OoSS1iMxR4F9bJ0RyEYuci19WorIiL6I8s+wCSfCtq3dt/NQxKGBC98bOHS3Oxc297eUqJsifDJv0wuH106eod0S0FkX8iuMbnZ5PXSHeQbCmqOdMNV9ElCUhnpiOKQjORGAKy8DF4rqLEaOlY6pKgYMDpKNxRCjgHj39IR9D8a+mXYe4B1l3QAERH5DgcmgUQj9odXfugwIGbAwfX/Xb9SOsdbEXERIZN2TaoSmxi7VbqlIA5tPXTjf/r85xvpDiocA0aihp4K4Kx0Sz4iFNRQ6YhikgoLHzaqoZfMw7xVCipOuqWIKA19i3REIXw4D/OOSkfQ/7jh3q2hV0h3FMLNTjiDpSOIiMg3ODAJQDlZOVXn/n1u84kNJi67cOKCLbfphEWHBU3aNalm/PXxP0m3FMTXc75uuXP5TlsNeuiPTJhl3XAfBzBLuiU/CqqXE84E6Y6ilISkpgrqXumOfJgGjHGX/7mEaEkRSUZyQwC2PTNHQy+UbqArekk6oBCiTZhNpSOIiMg3ODAJXOrApgM3Dyo1SH848cNlsOHy1+DwYGP81vE1bbbSJOTZDs9GZp7NPC8dQt4xYMRf/sdnAJyUbLmKcAU1TDqiKBkwxsPCq0sU1FtpSPvtlix/XWHSQTqgEI4oqI+lI+ivwhD2Bqx9VlS+DBi3SjcQEZFvcGAS4LTWpZeMXXLz4LKDVx7ddXS3dE9BhUSEOMZvHV8jqlTULumWa+XJ9lw/vd10nmdiUxq6JAC44T4DYJpwTr40tCsFKeWkO4pCClKaw9pnBXg88KT+7v/75RkmCqq9dIO3NPQ7britfE14wJqN2WcBLJXu8Jadvy+IiOiPODAhAMC5I+dajqk+psybA978XGttSvcURFhMmGPC1gkV7HR7zv71+9ssfXbp99Id5JX/XylwCZdmAzgi2HI1YSbMEdIRRcGEOV66IT8a+t/zMf/3q9/8cYWJAtBSOsJbl28vIuv6XDrAWxq6ZSpS7XxzFBERXcaBCf1e1BezvrhtcOnBa07uO7lXOqYgIktGhk7cMTExLDpsj3TLtXpr0Ft1j+06dkC6gwrsty05eAWvXNDQUyRjrkFyClIqSUf4kguuVgDulO7IR46CmvCnt/ndCpMkJNWCff+9cgF8JR1BedPQn0k3FELEIRyqKx1BRESFx4EJ/cX54+ebj6w0MvLruV8vk24piOjS0WETdkwoExoZuk+65VporWMmNpl4xpPj4ZJwe/nD4Z05yEkDsF+o5VqEmDCHS0f4kob+8zDCUhTUIjfcu//wJiBCqqeoOOC4QbqhEH64vK2OLCod6TsA7JHu8JaGtvP3BxERXcaBCV2R1vq6//T+z82Tmkz6Mut8lpWvT/2DEmVLhI/bPC4uKDTIytsk/l/Wuay66Q+m2/n6xEAU/vv/swiLMhXUJKmYa9QjCUmVpSN8IQUprWHtg0azFdTk37+hL/qGwMKH03pLQzeXbigEO69eCBgKyrbbcgBwYEJE5Ac4MKF87V+3/9YnSz55YufynRuu/t7WULJSyegRP4xQylDnpFuuxbr/rmuz6YNNG6U76JqF//kNl68mtfLBw8EGjJHSEb5gwpwo3ZAfDZ02D/P2/P5tHniChXKKlM1fQefAxB7s/HWy80CRiIgu48CErio3O7fy9Jum13x3xLu2ObG+fKPypXu/2/sEgGzplmvgmNNpznUXTl44LR1C1yTsz29ww52joCx9CCmAx3uhVxXpiMJIQcrNAG6R7sjHRQX1lzNtFFSoRExRSkWqoaDsekbDpVM4tUY6gq7OA89y6YZCqM2DX4mI7I8DE7pWYR8//XGHsbXGLsu+kG2LLToN7mlQ6aEXHtoNQEu3XI3pMROfbf/sZukOuiZ/WWECAAlI+A8AK68UCvbAM1o6ojBMmKnSDVfxvBvuQ39+Yw5yQiRiitIBHKgIIFK6w0sbF2OxRzqCrm4+5h8B8JfvKZsIPYRDfrEVkogokNlyYBKEoNMdR3Rc3jap7Tetu7f+ummXpl/X+1u9r+vcXueb65tc/23J60uuioiL2BQUGvSLMtQp6V5/cmT7kZsHlR504MiOI7uv/t7y2vVuV7uts62Vn8T+v/3r97deu3jtj9IddFVXHJikItW0wSqTx3qhV03pCG+44LoNQDvpjnycN2A8c6VfMGD43QoTA0Yd6YZCsM0WUwIArJcOKIRa0gFERFQ4tlwq6Ib7YtrktLbX+v6mxzRPHzx9PGNLxtED6w6c3b9hf87h7YeDTu0/FX3p9KUE0zRLFWWvv8m+mF1nXK1xpx5b8Ni3N3a/sY10z9U8kvZIw8PbD6/f+fXORtItV6EWPLKgVL2/1bsQGhlq11duA4HDCWewG+6/3G6UhrR3kpG8SkFZde+6Ixe5IwE8Lh3ihTHSAflRUDPmYd7RK/2aB54Q5X9nvtp2YKKhOTCxlw0AOkpHeEND1wbwvnQHERF5z5YDk4IyHIYRf3186fjr40vX61jvL79+5tCZU7u+3bVn6xdbz/+84mfHsZ+PXZd9IbsKAuS/jze01nEv9Xjpxm1fbPu0x6s9bofFb4AY+PnARuNqjdty7Odjlt5z78n2VJjTac7XAz8faOVX0unXK2KvdCWpNmCM09AfF3fQtVJQD/dCr8lzMXe7dMu1csF1p4a+5iG5gFNZyHo2r190wBFiwizOnuJg21fOHXBwYGIjGnqDXQeOCqq2dAMRERUOBwIASiSUiGvapWlc0y5N//9tWReyMrct3bZ1zeI1p3d8tSPi9KHTNaARLZhpRcbKf6+8I2NzxpcjVo+40RHs+MthmFbhCHZg9LrRNYcmDt2bdSGronRPfrYt3dZmx1c7ttS4pYalhzuBLAhB4bjywARpSPvECee3AKy6+srhgWcsgIelQ66Vhk6VbriK6YuwKM9Dm02YfneGiYKqpK1/PNSVmNnItsU2TfqVgrLtlhwTZiXpBiIiKhxbnmFSHEIjQ8Ma3tewfs9Xe7adenBq03m586JGrByxu62r7fKY0jHrYY/bV4rF/g37bx2aMHTTxdMXj0u35CcsJixoxKoRUTa4btgx+67ZIZ4cz1+2fJA1ZCIz3787NbTVD1d90AWXLbZUOOG8C0AL6Y58HAtC0HP5vYMJ054vj+dDQ1eQbvDS3hfxotV/BtDvnMKpnQAypTu8oaDs+n1CRESXcWByjZShVKXmlao+Mu+RttOOTGv03Lnnch9Nf3RtlZZVvjWCDLue4O4z50+cv2FI2SGnj+48uku6JT8JdRJKdn+5+2FY/Oac7EvZ1Rc+tvA76Q7yTjrSv9bQn0t35MPQ0GOlI67ROOmAq5g6B3POS0cUMwXAlk8ENfRe6QYqmMs3Gh2U7vBSOVh8yzIREeWPAxMvhUaFRrRJatN02PfD2szJnpPQ/7P+22q3r/2t4TAOS7dJyc3KrTa25tiYrZ9vXSPdkp8WD7eofmO3Gy2/h33166tb7d+w/2fpDvKOAWMkrD2Y65qEpAbSEflxwtkJwA3SHfk4BGCudERxS0FKKQCW3YKZHwV1QLqBvGLXgUlYd3S/TjqCiIi8x4GJDyilUOe2OrUGLB3QZk72nDJPfPTEluptq3+rDHVSuq24aa1Lz7x9Zu1Vr636VrolP48teKxR6eqlN0t3XEXojJtnXNCm9rvTIgNBGtLWaOgl0h35UAYMK68yUbD+6pKn3HBflI4obibM8tINhZAhHUAFp6HtOjBBKELt/P1CRBTwODDxMWUoVb9j/bqDvxnc5vmLz8d0ndl1TUyZmPWw9ivNvha54KEFNyx7YdlX0iF5UYbCiFUjaoREhFj61caLpy/Wf2voW5YePlHeHHCMBix9Pcr9yUi25HXbyUi+H4Al2y7bF4rQ+dIREhRUaekGb3GFiT3Z+evmgce23y9ERMSBSZEKCg0Kat+/fbNph6c1mrBtwuFGnRp9aziMY9JdxST0tSdea/vhhA8te45DRGxEyLAVw0KhcEG6JT9fzPii/rmj5wJutZI/mId5mwG8Kd2RD6WgrLiKQymoMdIR+VFQE2ZjdpZ0hwQNHS/dUAi2XakQyOy8wgRAnHQAERF5jwOTYlKmZpmEXu/0ajP74uyS90+9f0NoVOhu6aZiELRk3JL2r7pefVc6JC/lG5Yv9eCsBy39ypXWOu75e57fIt1B3lFQYwHkSnfk475kJFvqnBAXXF0BNJTuyMeuBCS8JB0hyLZPAO28UiGQGTBsOzBRULb9fiEiIg5Mil1QSJBxx9A7Gs46O6uq803nxtjE2HXw7+06xnL38k4L/rngY+mQvNzS95aalZpXWi/dkZ89q/a03rl851bpDiq4NKTtBPCydEc+LHWWSSpSLX+Dj4ZOTUWqlYdgRS1WOsBbucgNlFWe/uaodIC3NLRtv1+IiIgDEzFKKTTt0rTB1INTG49YNWJvmRplVsOPByerXl/Vcf6D8z+S7sjLwM8H1gsKC7LyK1jGC/e+4NFa++2fEX/mgWcCAMtu39DQd6cgpbl0BwBkIONBAHWkO/KxpRzKvSYdIcnOW3JCEHJJuoG8YtvDlbnChIjI3jgwsYBKN1SqNGH7hBuG/zB8T6kqpdbCTwcnq99Y/bdXna9acqVJWExY0IBPBwBAjnRLXi6dvlTvk6c/WSHdQQW3AAv2AkiX7siPCTNVuqELujgAWH11ybhUpFr5IN8ip6AipRu8dREXM6UbqOBMmLYddGnoaOkGIiLyHgcmFlK5ReXKk3ZPajr468G74yrE/SjdUxSWpy+/c/HAxZYcmlS/qXq5m3vd/JN0R37eH/t+5ZxLObZ94BjgJsPar5J2dMLZRjIgHvEPA6gp2XAVG8uh3DvSERYQIh3grWhE8+9PG1JQdh50BUsHEBGR9zgwsaDqN1Wv9vS+p5v0fq/39tDo0F3SPT6mls5ceufbQ97+VDrkSh58/sGG8RXiLTs08eR6El91vbpSuoMKzg33IQAvSHdchdjNNF3QxaGhR0p9/ms0MtBXl1xm1yeA5mzMzpaOoILLRa6dB112/X4hIiJwYGJpDe9tWHPW6VlV73/6/lWGwzgu3eND6rPpn3X4ePLHlrtyWBkKQ1cMragc6rR0S15Wvrqy2ZmMM7Y9AC+QBSN4KoCz0h35uN0F100SnzgWsY/D2qtLVrvhtuw5TMVJQdl1hUkm/HTLq78LRahtByY2/n4hIiJwYGJ5ylDqjmF3NH/m2DPhde6s8x0sfMZGATneHfXuzd+/9P0y6ZA/iysfF/nwCw8fke7Ii9Y6Kq1L2jbpDiq4F/DCCQU1U7ojPxI31DjhDFZQo4r78xaEghoBPtn+jV1fMbftk+5AdwmX7Py148CEiMjGODCxiYi4iMj+H/dvPWLliIPhJcL95cly8KJui5ruWr5rrXTIn7V1ta1ZtnbZTdIdedm9YveNGVsy9kh3UMFp6BkATkh35KN9MpLbFfPnfBxAlWL+nNdMQy9LQ9oX0h1WoaEd0g1e8pcXHAJOJVSy81aqIOkAIiLyHgcmNlOpeaVKz558tuZdo+/6QSl1XrrHB6Knt5te7sjOI5YbAg1cOrCaMtQZ6Y48BKU9kJYhHUEF54b7jIKaJt2RHwU1qbg+lxPOYACWPrvEgDFOusFi7Dp4CJUOIO+cwRk7f+0se6U8ERFdHQcmNqQMpe6deG/LiTsnXogrH7dOuqewtNZlJ9SbYFw4ecFS22BiE2PDOz3V6YB0R14Obzvc8peVv+yQ7qCCi0DEcwAOSnfko00Skm4tps+VBKByMX0ub3yShrRvpCMsxq4Dk3DpAPLOWZy189eOAxMiIhvjwMTGSlUtVebp/U83vv/p+1cppax8XelV5Wbn1hhZeeSB3KxcS63ouGPYHXXjK8Zvke7Ig5HeNd2yh9NS3p7Fs5cU1FTpjvwYMCYW9efogi4hAIYV9ecppFTpAKvR0HbdHhEKQElHUMFp6DDpBm9paA5MiIhsjAMTP3DHsDuaj9049lR4TPh26ZbCyDyb2TS1buqPWmuPdMtvlFJ4cumT5a06kDqx70TzrUu3bpbuoII7iZNpAH6R7sjHjS64bivKTxCHOCeAikX5OQrpXTfcvMb7r+y6wkR1Qzc7b+0IWKEIte3AxIDBgQkRkY1xYOInEusllnvm+DPVGt/feAUAywwcCurY7mO3vPjwi59Id/xeqWqlStw2+LZd0h15efHhF+36am9AW4zF2QrqKemO/Gjo8UX1sbuhWxiAEUX18X3ANGHy7JIrsPMTwHCE23lrR8AyYdp2YGLjFVlERAQOTPyKI9jhSHk75cY+S/rsMBzGcekeb616bdWdK/+9cpl0x+91ntK5QVSpKEsOTc4ePdtk6+dcZWJHCUh4CcBO6Y58tEpGcsei+MDBCHYBSCyKj+0ji+dj/kbpCCvS0LbdCpiFLA5MbMjOW3IAZEoHEBGR9zgw8UMN7mlQe/KeyUZkyUirnr1xNY6Fjy5seHjrYcv0Gw4DT7z/RDQAU7rlShZ2X3hJuoEKLhWpubD+GRmpvv6ATjgjFNRwX39cH/LA+l8XMRr6lHSDtxRUhHQDecXOXzfbfr8QEREHJn4rrnxc/PTD02s1uLfBd9It3tBax01sPNHIvpB9QrrlN5VbVC5TrU01S77ifObgmRt2fL3jJ+kOKrhEJL4OYJN0R14UVPNkJN/t44+ZAqCsLz+mj73qhttyV51bhQHDtk8AHXBY+c8d5UFDl5Fu8JaGtu2KXyIi4sDErxlBhqPPe31ad32261qllO1WIORm5dae0GDCBljoTBbXYlctZajz0h1XsvDxheekG6jgUpFqamhLn5WhoMbDR7eLdEO3MA09yBcfq4jkOOCYIB1hcbYdmGjo8tIN5BU7f92OSgcQEZH3ODAJAO0HtG866KtBGXY81+TYz8dufSX5lY+lO34TUzYmrMPADj9Ld1zJyb0nm/+y6pcd0h1UcOlIfxfAaumOfDRJRvJdvvhAIQjpCWufXfLiXMy15Pe4VSiok9IN3lJQ5aQbyCsJ0gHeMmBYZqUsEREVHAcmAaJ6u+pVn/r5KTM0KtR2T6i/nf/tbTuX71wl3fGbzlM6NwiNCj0g3XEF6pWerxyTjiCvaA09RjoiP75YZeKEMxjAEN8UFYnMIARZ+uYiK/DAkyHdUAgcmNiQnQdducjlz2UiIhvjwCSAxF8fX/pfB/9VPv76+LXSLQUU+mz7Z+Oscp6JI9iBnq/2tMw2od87uPlg8+O/HLfzk5mAlY70TwF8I92RjyZOOP9WyI/xOICKvogpCgoqbQ7m7JfusDoFZcWB8TWx8xPvAGfbFSYeeGy3upeIiP4nSDrAG93QLXZKiynLFZSOLBlpQkEFBQfpqFJRiCsf54gtFxscVz4uvERiiagy1cuUDQ4PjpRutoqwmLCISbsmNf7Xjf9auWfNnhbSPdfKk+OpPqXllM/GbRp3G3x0lkJhNLyvYcWyNctuPrz9cD3plj8J/k/Kf3b2+7Sflbc8UN5GAVguHZGXy6tMPgKgC/p7u6CLA8BQn0f5zgUPPFOkI+zADfdFJ5wnAcRLtxSUCZMDE3uy69ft3CIssu013EREZNOBiQEjYs+qPW2v9f2VoY6GRYcdjS4TfbZc3XKZNW+pGVbj5hqlE+okVDIchi3/GxSGI9hhDF81vMVzdzz3w0+f/9RSuudaZWzOuH3pjKWfdHiyw53SLQCQ8k5K+dQ6qbmw2PfRls+3NLl4+uLZiNiIGOkWKhg33N+64PpUQ98h3XIlGrppMpJvv7wapkBiEfsQgOpFkOUTGvr5+Zh/RLrDRvbBhgMTBVVJOIEKKBWpRgYy7Hro627pACIiKpyA2JKjTV360plL9Y7uOHrjunfW3fp6v9dvnNBgQrVeQb1y+sX02zL9punLls5Y+u2JPScCZim2Ugr9P+vfstk/mv0g3VIQbw1+q8Xxn49vl+4AgITaCbHVb6puvetgNaLfHvL2OukM8tpoeLGCo7gYMAq8SiQVqYaCGlkUPT5yNgQh06QjbMauPy/L9UGfktIRdO32Y38VAFHSHV7iAdJERDYXEAOTfIRnncuqu3P5zpsXD1rcZmTlkRV6BfXKmNR40jdfzPri2wsnL1jizIyilPx6cst2vdv9AAs/Qfs9rXXcxMYTz2its6VbAKD7y91rQMESLb/3/aLvq5ke05LnrFD+0pC2BsB70h150dC3JiGpQCvTDuFQFwC1iijJF559AS/4/d/3PrZLOsBbWchqKN1A1y4IQY2kGwqBK0yIiGwu0Acmf2F6zMT96/ff9OaAN9s8WfLJ2AGxAza+1P2lL47sOLJHuq2oPPTCQy3vHHHnathkaJJ5NrP5G33f+Ey6AwBKViwZWa9jvS3SHX/myfWU+27Bd2ukO8g7Gno0AFO6Iy8GjMEFeHeloa28uuS0A45Z0hF2o6G3Sjd4y4DBgYmNmDDt/PXiwISIyOY4MMmf49KZSw1WLFrRfmzNsZX6Rffb8nKPl788ue+kXZci56nz5M7Nb+1/q2Wu7r2ar1746qbju49b4gH74/Mfr62Uuijd8WfvjXkvRLqBvJOO9C0AXpfuyEcnF1zXdB6JC657ATQo4h6vaeh/zcXcU9IdduOA4yfphkKw8xPwgKOgLPv3x9UoKG7JISKyOQ5MCiDrfFbd7xZ+d+uIiiPKDSo1aM1n0z9b6snxXJLu8pV/zPxHi1v73bpSuuMaxUxuPvkkgBzxkISYsCZdm1jiXJXfO3f0XOPtX20/KN1B3lFQqQBypTvy4NDQg67lHU2YVl5dcjQTmc9JR9iRgrLzwMTOWzwCkW2/XjnIsdwKVCIiKhgOTLxjnD9+vtnbQ97u0Cesz7k5neZ8cfrQ6UPSUb7wj1n/aHHDgzfY4iDYCycvtF4ydokltuY8POfhespQ56Q7/uzlni+LD5TIO2lI2wlgkXRHPh5zwnldfu/ghLONgmpeXEFeePoVvHJBOsKOLq/KOSzd4aXafdE3VDqCrq4nesYDuF66w0tHX8SLGdIRRERUOByYFJI2dekN721oPyxxWPzEhhO/3rtmryW2iRRG0mtJLet1rGeLocmHkz5sdebQGfE9wpHxkcFtktpYbuntiV9OVJJuoEKZCCBLOiIP4QBc+b2Dhi7IWSfF7VAkIudJR9icXW/jCslBTivpCLo6A8Yt0g3eUlB2/f4gIqLf4cDEd0IPbDzQbvINk2sNrzD8h93f7d4sHVQYT3zwRMuE2gnWPzRUI35Kyyl7YIEDax+Y9kA9wzDOSneQ/3DDvU9Du6U78tG7C7pc8awcF1zVFdQ9xR1UABOfxbN+s6VSiG3OvfozE+Zt0g10dQaMO6QbvKWhOTAhIvIDHJj4njp14FTLf7X5V70hZYb8uOvbXbbcv6oMhdHrRzcuUZuziLoAACAASURBVLbEJumWqzm171T7NW+s+VK6IywmzNG0a1Px1S7kX3KROxHAeemOPCTGI75rHr82ANb9GbP3FE4tkI6wOwVl24EJgNulA+jqNLRtv04aeoN0AxERFZ5VH8z6hbNHzzaZ1nZanVFVR313dPfRfdI9BRUUEuQYt3lcteDw4D3SLVez8LGFFcxcU/xJZddnu9ZVSll1CwXZ0EIsPKahX5DuyIuG7v/nt/VEz3gN/bhEz7VQUOMXY3G2dIfdZSN7tXRDITS52hk8JMsJZy0AFaU7vKWg1ks3EBFR4XFgUvTU8Z+Ptx5TbUzJeQ/MW5p9MVv8SX1BRJaMDB+7cWyE4TBOSLfkJzc7t8Z/+vxHfJVJTNmYkGo3VbP9OTZkLSbMfwE4I92Rh2YuuP5wHoQBoweASKGeq9mRgIRXpCP8wUIsPAbAcmc3XSNDQ3eQjqB83SkdUAjH3HBb7vY8IiIqOA5Mik/kurfXdegf0//0dy9+9510TEGUrla69BPvP2GJK3zzszx9eZtzR8/tke54eM7DlQGY0h3kPxZgwUkNPUO6Iy8a+veHvyoFlSQWcxUKKjUVqVa9rtmOvpYO8JaCsu12jwBh2/NLFNRXsMDZakREVHgcmBQz02OWf7nny62HVxi+6sTeEweke65V3Y51q98x9A5r78fViJ/ZYeZP0hkJdRJKJNRJEO8g/xKM4BkAjkp35KFrL/SKA4AUpLQDUFO4Jy9bEpDwhnSEP1FQ4iv7CuE+Xi9sTSlIKQ2gvXSHtzS0nb8viIjodzgwEXLqwKnmoyqPin5/3PtfwCavQtw/9f5mlW6oZOk96wc2Hbhj17e7xFfw/PP5f3JvPPnUHMw5D2C6dEcewj3wPAoAJsxk6Zi8aOgxqUjl6i8f8sDzOWzyM+wK4jORebd0BP2VCfNRAMHSHd7ywPOFdAMREfkGByaCtNYlPpjwQfsRFUesOHf03GHpnmsx+JvBjSPiIqy8L9fxwr0vmBDeElPzlpplYxJidkg2kP/JRvZsAAelO/KQ0gd9SgK4XzrkShTU2nSkvyvd4W/mY/4RALZdUaegHpNuoCuy89dl/wIs2CUdQUREvsGBiQWc3Hey9dCEoVj171UrpFuuJjgsOGjk2pHXKUNZ9QBKXDx1se26/64TXw7beXLnIOkG8i+LsCgTwBTpjjzUzkGOG0CYdEgexsK+KyGs7nPpgELoeHn7B1lEClKaA2gg3eEtBcXVJUREfoQDE4swTbPsgkcWtJrRYcanpse09OGqpSqXKvlI2iOWPn9l4WML4yB8SG3LR1pWCQoOOibZQP7nFE6lA/hFuiMPllxdAmBFGtI+ko7wY0ukAwoh2APPP6Uj6H9MmD2kGwqJK9mIiPwIBybWorZ/sf2OwWUGbzpz6Iylt+i0SWpTt0qrKqukO/KSdSGr6bcLvl0q2WAEGWjSpYlVt0+QTS3G4mwNPUm6w05MmGOkG/xZIhKXA7D01fP5UVA9ASjpDgL6om8MgAelOwrhooa284orIiL6Ew5MLOjCiQtNhlcY7tn17a710i35GfD5gMbB4cF7pDvy8lqf18pprTMlG+6deG8N8Iph8rHTOP0SgG3SHXagoJbPx3zxLXr+LBWpuQrqfemOQqjvgouHv1pAJjL7ACgh3eEtBfWpG+6L0h1EROQ7HJhYlOkxy01rO63acvfyb6Rb8hIaGRo8aNkgB4As6ZYryc3KbfD59M9FX+kpVaVURKmqpfjElnxqMRZ7NPR46Q6bGC0dEAhMmO9INxSGCZN/ToQ54YxQUAOkOwrD7t8HRET0VxyYWFvUq65XW7/c8+VPYdHDCis3r1yhdc/WG6Q78vLOqHeqa61FX+25e9zdEZKfn/xTOZR7E8BG6Q6L+zgNaZYdOvuTKER9DuCsdIe3FP6vvTuPj7q+8zj++s5MSMJ9IwGkUkDECwmgrgdKa209elhxW4+uCpkga2vdbuvaVp3W7WqrLa3UkPwCSmVbj9h6V4u26K4nOogoeLAc9QiCGG7IMZnv/kFsMQYrZGY+c7yfj0f+qTWflyhh5jO/3/fnJlVSeYp1R4GrBHL5AN5EkuRD1hEiIpJaWphkv/BTtzx16k+P/elj3vtW65iOnDfnvImlPUuz8hF6yZbkmEU3LzK9HH/S1yd9KlIc2WjZIPknRizp8TqbY++8zi7JnFnM2gXcZd3RGR7/A+uGQnUhF5YA37Xu6KRH5zGvwTpCRERSSwuTHLH62dWnXHPwNU8mE0nTMzk6Ei4Ku8sfu7wU46fS7M29V9w7CEhYzQ9FQkw4Z4IOf5WUq6X2AY/P2sOXLTncvXOZG7fuKDC/sQ7opMkVVEy2jihExRRXAIOtOzrD4+dbN4iISOppYZJD1q9cP/kHI34QTzQldli3tDd84vAh5WeXL7Hu6EjTzqaJL93/0iLLhjN/dOZosvS2KslpPkRIZy98VBLQGS8ZFhA8Cbxu3dEZDjdrKlPD1h2FZDrTB+XBmUwNJZTcZx0hIiKpp4VJjml4q+G4K4df+UqiOfuWJhctuGhCUWnRX607OnLbtNsilvP7H9S/tFdZr6y8bUlyWw01jwKmC8EsdEcNNVl7tlKe+611QCcd1ZveF1tHFJIQoRuBPtYdnfS72czOygPwRUSkc7QwyUFb1289+vvDv7880ZTYZd2yp6KSovD0301vtu7oyPaN209au3jt05YNx08/PitvWZLcFyKkszr+rhW41jqiUCVIzCNLb8/8pBzuupnMPMC6oxC03QJ1nnVHCtxqHSAiIumhhUmO2vLulklXjb5qSbadaTLuy+NGDRo96EXrjg64eefP22wZcPKlJ4/G8CwVyV/VVD8FPGzdkSVuCwj0KG8jt3BLPfAH645O6pcgcbN1RL77Jt8sdrgawFm3dNLSgCArb0kWEZHO08IkhzW82XDcteOufdp7n7Ru2dOlD156IJBVixyADSs3TNn67tZXreb3GNAj0v+g/iut5kt+a3siTKGfk9McIvRj64hCFyI027ohBc6qoCIfrnzIWk00xYCDrTtS4JfWASIikj5amOS4+uX1U359xq+z6pPlgaMG9pv49YnLrDs6UHLX5XeZfvJ80syTdJigpEXbE2Huse6w5HBzq6lea91R6NqueHrBuqOzHK46SnSMdUc+qqDiDOAK644UWN9M853WESIikj5amOSBV/74yun3/Mc9C6079vSNud84KlIUWW/d0V78rvjh3nuzA3OPm3bcSOdcTt/fL9nL469m9xkehajR4f7LOkJ2c7h8uMqkO3B7lGhX65B8EiX6aYdbQO7figMwez7zs+6KWhERSR0tTPLEIz99ZMri3y1+0rrjA126dik6/erT66072ksmkyMX/3bxE1bzu/bpGhp8yOA3rOZLfquldjlwu3WHkTnVVL9jHSG7efztwBrrjhQYByyIEdPrpRS4kAtLgLuA3tYtKbCziKJq6wgREUkvvQDIH5F55887bN2r67Lmzfjnr/z8uKLSorXWHe39/nu/L7KcP+VbU0ot50vei5HjTynZDztChK63jpC/CwhaHC5f/p2cVU+9nrzUea6IohpgvHVIKjjc/Ju5+X3rDhERSS8tTPKJp/dPjvpJsnF7Y1b8AR4Kh9zZPzt7m3VHe1vWbZm8+Z3NZmesTPz6xBG6LUfSJSBY5XDzrTsyyeFuqqZ6g3WHfJjH3wq8ad2RIt+vpPLfrCNyWQUV1zncN6w7UqQxTDhfFoIiIvIxtDDJMy1NLWOuPeLa5UBWPDln8szJh5f0LFll3dFOl9svvf3/rIaX9Cyh3/B+q63mS/4LE76WLHxSVZpsSZC40TpCPqrtKpO8+Xfj8TdGif6LdUcuqqTyCofLh0NeP1BdRdVb1hEiIpJ+WpjkoY1rNp5Y9526R607AFzIcW7VuVl3NcWy+5cdiuEbyvFTxyesZkv+q6LqLYerse7IkFnzmNdgHSEda6ChBsi2pfn+csCtUaKXWofkkkoqr/D4fLoaY0eSZD7984iIyMfQwiRPPfaLxyavfnb1S9YdAEefd/SY0l6lZld0dCSZTB78+qLXn7Kaf+yFx46wmi2FoZXW6wCzJ0JlyPvFFM+yjpC9q6OuGbjauiOFHHBTlOh3rENygIsS/WmeLUsAfjmXuVn3FEAREUkPLUzyV8nPT/p515adLVutQwDO/PGZu6wb2rv3B/eana9SNrastLhb8Tqr+ZL/5jJ3vcPdZN2RTg53w2xmZ8XPONm7MsrucLi4dUcKOeDGCirmxIhFrGOy0YVcWFJJ5R3A96xbUqyhmea8uc1MRET+MS1M8liiKTFq1qmznrHuADh55smHR4ojWbUgWPPsmvHee7M3WweffPB7VrOlMIQI3QBstu5Ik/U72flr6wj5x2LEkq205tsbZxxuRj31C2cy8wDrlmwSJXpgEUVPePw51i2p5vFXzWd+vv5MFRGRDmhhkudWPbnqlJcffPlZ645QJMRnLvtMvXXHnrz3By69d6nZbTn/dPE/DbSaLYVhDnM2Ab+w7kgHj79uAQvy/ZajvDGXuX9xuHusO9Lg5ASJF6czfYp1SDaopPI0YInDTbJuSYMXN7O5UM6GEhGRNlqY5L/QnLPm9G/Z1WL+icgZ15wxLhQObbLu2NP9V91vdiDtYV847AAXcoXyJBMxEiEyC8i3R+7Wd6d7YB0h+yZM+DJgu3VHGhwQIvRYlGjNTGZ2t46xECXaNUr0Vx7/INDPuicNvMN9u466VusQERHJLC1MCkBrS+vIqq9Umd+a06Vrl/C4r4xbad2xp/rl9UcnW5Mmt8YUlRQxaPQgPV5Y0qqKqu3Az6w7UuzHs5iVdeciycdrewxrzLojTRwQTZB4qZLKM61jMilK9MvACuBb7P51yDsev6CGmv+x7hARkczTwqRArPjTiinvvPzOK9YdZ1131mggad2xh0Ev3PXCYqvhh59+uLeaLYWjG92qgKy6Ja4T1gC3WEfI/imj7FfAMuuONBrh8fdHif5xOtOPsI5Jp0oqx0aJPgzcAwy37kmjzUUUXWEdISIiNrQwKRzFPz/p59sxXlYMGDmgd79P9Vtu2dDeX375l2ar2eO+Mm6Y1WwpHG1XY/yndUeK/CggMLuVTjonRiwRIlQBJKxb0uwLIUJLK6i4t4KKidYxqTSNaSOjRBd4/MvA56170s3hvllF1bvWHSIiYkMLkwKyo2HHMU9UP/EX644zrj4jqx7DuPaFtQcDTRazD5p0UE+dYyIZMhfI9VvA3iij7LfWEdI51VQvBq6z7sgA53BfcrjFFVQ8meu36kxnenmU6G1hwq8C51MYryHvraHmv60jRETETiH8YSd7uOPSO0a0trSaHrp3zAXHHBIuCmfNIZQ+6ceue3WdyW054aIw/Q7s91eL2VJYAoIWj7/WuqMzHO7qGLF8vzKhIJRR9mPgeeuOTHG449pu1VkeJRqroGK0ddMnESXaq5LKaCWVL4QIvQBcAGTVhx5p9F6IUKV1hIiI2NLCpMAkW5Mj7v63u00PLgtFQoyfOj6rlgQLb1i43mr2mM+O0e0FkhGb2bwAeM26Yz8tG8zgOusISY0YsYTHXwQU2hV2Y4FrHO71CiqeixK9fBrTsur8jyjR/hVUXBwl+iCw3uNrPL7cuivTHK6imuqs+XBHRERsaGFSgBbdvGh8044mkyfDfOC075/2acv57S25e4nZYxCP+spRB1jNlsJSR12rx19j3bGfrokRy6YDo6WTaqld7vHfse6w4nCTgF+ECa+NEl0bJbogSrSygopDyeDTZmYwY2AFFWdEif4sSjQOrHe4ecDpQHGmOrKJx1fXUHOfdYeIiNgrlMsqZQ/e+wNum37bQxW3V5xu1VB2aFnf0l6lq3Zt2ZUVi5PGbY3HNG1vWlncvXhUpmePmjyqv3Mu4b3X70dJuyEMubue+qXAOOuWffBCQKA3L3moltqqKNHjgHOtW4wNb/s63+GIEn3f4V4CVnn8amBVkuTqBIlV85m/eV+/eZRo1xChEa20jnC4EcBBDjfC4w9Pkhzu8vNpwPvruRJKvm0dISIi2UFv0ApU/M74MRfUXvBeSfeSAVYNR59/9KbHb37canx7pc/99rkVJ1aemPGFSXG3YroP7P7mtvXbRmR6thSeGLFkJZVXe/z91i2flMNdBegR3HkqQqQyQWIcu29Xkd36efwUYMoH/0OIEF3oQpToTnYfVL4JaHS4XR6/2eOTDuc8vqfDFQM9gG5ACdArSZI9FyNev6U6siFCZOpsZpscBC8iItlHt+QUKO99v7rL60wP3Pvcv3/uYLLoTdBzC54zO0xy1PGjdljNlsJTQ80DDvesdccn9GQNNY9YR0j6VFG1PUnybMD0QPIc0hXoA4wAxradL/IZhzsF+GzbrT5Htv31QUAvs9LckgC+VkXVW9YhIiKSPbQwKWBP3/L04a0trVus5vf7VL8ePQf1zJoDKNc+v7YMowXO6JNHd7OYKwXth9YBn0SI0FXWDZJ+c5n7qsOdC7Rat0hh8vgrA4JF1h0iIpJdtDApYMlkcthD1z70tGXDpHMn7bScv6dEc2J8867mlRazRx4/cojFXClcNdT8Gcj2NwePVVP9uHWEZEYNNQ8A/27dIYXH4+fVUnujdYeIiGQfLUwK3MKfLRyO4Sd6J1ScMNJqdgeKlz2w7HWLwUMOHVKMo9lithQuj8/qq0wc7mrrBsmsgOCXwM3WHVJQHh7CkBnWESIikp20MClwLU0tY1c8uuIZq/kHHHJAry5du7xtNb+9Z37zTKPF3FAkRPe+3ddZzJbCVUvt08BD1h178VANNWY/m8ROGWXfdrgHrTukICyJEDknRszsDDMREcluWpgId37rzl2W80efNDprFgUr/2el2VODyg4t22o1WwpXkuR3gRbrjnYSwJXWEWIjRizRQMNXHe5P1i2S195JkvxSFVU6bFhERPZKCxPh3dfePW7H+zvetJp/YsWJ/axmt9e0vekon/QmJ+SPPH5kkcVcKWxzmfsqMMe6Y08ef1NA8LJ1h9ipo67Z488CnrRukby0PknylLnMzZorXEVEJDtpYSIAXR+IPWD25uTQ0w4dgSNbHqvb662lb5mcYzJq8qhBFnNFgKsBkwOPO/BqK60x6wixFxDsDBP+IrDUukXySr3Hn9i2LBYREflYWpgIAE/f+vRAq9mRLhH6Duu7xmp+e8seWLbJYu7wCcP7WMwVCQi2AF8EthmnbHO4s2/hFusOyRJzmLMpTHiKxy+2bpG8sN7hTqml9g3rEBERyQ1amAgATTuaJmxYuWGZ1fyxp4w1OWy1IysWrnAWc7v17UakJLLRYrZIQPCax08FrB71vc3jz6yhZoXRfMlSc5izqYWWU4HnrFskp60LE56snzEiIrIvtDCRD7j7fnifydkdAOOnjje7wqW9d15+x+xMlZ4De5pc3SICUEvtnzz+NGBzhkdvCBH6bC21T2R4ruSI+czfXEzx5xzuf61bJCe9AZwwhzkmt9yKiEju0sJE/mbpfUuHAd5i9ujJo4fhaLaY3V7jtsZRZP4NIwD9R/Rvspgr8oG2pcWRwKIMjXwMGFdNtW65kI81m9lbd7LzC3rksOyjZ4DjAoJV1iEiIpJ7tDCRv0k0JQ5/f+37JpeqFpUUuV6DemXLi5mhm+s3m/w6lI0tC1vMFdlTQPBmGWWf9fivA+k6EHq5w51bRtmpAUHWPFpcstsCFuxooOHLDldl3SLZz+Hu6Ua3zwQEut1VRET2ixYmsif351/9ea3V8JEnjNxuNbu95Q8vf9di7tAjh3azmCvSXoxYspbaOwKCI4Ep7H708Dud/LbrgBqPP6WMsiNqqLk9RizZ6VgpKHXUtdZQ868e/11A//3I3tzUQMPUWczaZR0iIiK5K2IdINnl+d893/OcWeeYzB4zZUy3eF3cZHZ7r/35tebjph2X8bllh5UNyPhQkY/nA4JF7L5FZ+ZMZh7QQsuRIUJDgV5AryTJ4vZ/U4hQE7AF2JIk+bbDLdOVJJJKtdTeWEnlao+fD/Sw7pGssQu4JCD4jXWIiIjkPi1M5EO2btg6vrWldWO4KNw/07NHTx49NNMz9+btZW93sZg7cNTAUou5Ip9UFVXvAiZXYIm0V0PNHyqoeMXhfg8cZt0j5t7y+K/WUvu8dYiIiOQH3ZIj7XVb8egKk/M7Bh08qKcLOatHmn5Iw1sNvSzm9hjQg1A4lBW/BiIiuaCW2jciRI4F7rRuEVOLQoQmaFkiIiKppIWJfMSz85/dajHXhRw9+vcwe7Txnpq2NQ0Gm6f2dO3d9X2LuSIiuaqKqu0BwdeAS9l9S4YUlqTH/7Ca6g3WISIikl+0MJGPePXPr/axmj3kiCHbrGbvyXt/kPf+rxazew/pnTWH34qI5JKA4GZgPPCCdYtkVMjh7q+kcqx1iIiI5BctTOQjdjTsONwn/RaL2Qcdc1C2nKtTunH1xrctBvce0ltPfRAR2U8BwWtllB0L/Ahote6RjOnn8QunMW24dYiIiOQPLUykIz3fXvb26xaDhx01rKfF3I6sfX7tZou5vct6O4u5IiL5IkYsERDEPP5Y4EXrHsmYIWHCj0SJZvzgehERyU9amEiHXnnolY0Wc4ceMfQAi7kdWf3M6iaLuX2G9TF5Qo+ISL6ppfb5MsomOFwlYHI+l2TcGOCPM5nZ3TpERERynxYm0qHlC5d7i7n9P9W/K9BiMbu991a+ZzK3z7A+erSwiEiKxIgla6gJIkQOA35v3SMZMTFB4vdTmaoPIEREpFO0MJEOvb3sbZODX0OREEWlRVlxyv2mdzaZnKfSZ0gffSomIpJiVVS9FRCcDRwDPGndI2n3ub70vWMqU8PWISIikru0MJEONW5pHIbRYXk9B/bcZDG3vW0btpVYzO05uGcPi7kiIoUgIHguIDjB4b4IrLLukfTx+K/0pvevrTtERCR3aWEiHfLeD2ne2WzylJi+B/Y1OTukvZ1bdnazmNu9f3f9vhQRSbMaah4ADnG4fwHesO6R9HC4GVGi11h3iIhIbtIbM9mbUP0r9fUWg/sM7WNyfkp7icZELyDjLT0G9MBirohIoQkIWmqoua2MskOAc4DXrJskLWIVVFxmHSEiIrknVxcm26wDCsGaZ9dssZjb58A+WXG/sfd+AJDx24PCRWFCkdD2FH27nSn6PiIieStGLBkQ1G1i02HAOR7/lHWTpJbD/aKCinOsO0REJLfk5MLkFm7ZBqTqDaXsxV9f/KvJ02r6De9XbDG3AwMAkwNoI10ijan4Ph5vcpWQiEguqqOuNSCoq6X2+BCh8UAA7LLukpQIOdx/V1BxqnWIiIjkjpxcmLSJWwfku4a1Dc5ibp8D+5icHdKBkl1bd222GByOhBMp+lbLUvR9REQKSjXVLwYElREiI4DvASusm6TTihzu7goqJlqHiIhIbsjlhcm91gH5bvO6zV0s5vYd2reXxdyONG1rMjmANlyUmoVJiND9qfg+IiKFqoqqdwOCGwKCQz3+MI//KfCedZfst+4O98fpTD/EOkRERLJfzi5MwoR/g8H5EoVk+3vbSy3mdu/fPWseq9u0rcnktqRwl3AqHun8RDXVr6Tg+4iICFBL7fJaav9jE5sGAycANwG69TH39A8RWjiNacOtQ0REJLvl7MJkDnM2AT+27shnzTuae1rMLSotyopDXwEatzc2W8yNdIl0dmHSGiL0vZTEiIjIh7SddfJkQHBZGWXDQoSOB24AlgJJ4zz5ZIaGCT80jWl9rUNERCR7RawDOiMg+FWU6DHAP1u35KNES6KrxdwupSZ3AnWocXtjKq702GeRkkhnX3BfWU314pTEiIjIXsWIJYGn2r6IEu0PnOzxUxzuZOBgyz75WIdGiDx0ARd8dgELdljHiIhI9snphQnggYuBYuDLxi15xyd9icXcSEkEdn9CZ34FVOOWxlQdvrpPikqKOrMwuT4guCFlMRnm8S0Ol9WHOnu8ya1akrN2Zvt/05I6AcFGoK7ti0u4pE+CxKQQoYkePwmYCBxg2bgPmth92O0rwMtAL+AHpkUp5vHHlFJaFyX6pYBAP9s/alWu/fzyeJ0xVKBy4TXkXujWzixm8hSUVIsRC9VT/z12/yHe3bonjzTU+Jpu7F5IZdSM0Ixd3nuTM1T2dPFtF9cdfcHRUzM99/pjr39tzbNrxuzj37bO4S6voebOtESJiEhKRIn2T5I8xOHGAGMcbiwwAhgGWPzZ9w6w6oMvj1/p8S8PZejKGLEPfXBQQcX1DneFQWNaOdxvBzP4G21XDImIiAC5f4UJ8LfLYa+fzvRbQ4QuYffVJkcaZ+WDbsAODBYmhGii1eRF44fs3LLT5IXTPtyW5IG4x9/ZSOMcXVIsIpL92q5C+d+2rw+JEu3v8UNDhIYBQzy+L9Ab6NP21dvhegN4fARof1B6wuG2ebwHNgM4XEPbp+4bHe59YCOwIUny3e50Xz2LWbs+aXsttVdGiQ4Bzt/Xf+5s5vHn1VP/PnCZdYuIiGSPvFiYfGAuc9cDMSB2OZeX7mBHWZJkb+OsXNcCFGV6aP9P9w+vf2O9yfkhe+rStct2dh/kl1Hd+nYrA/Z6S5THNznc2620rp3HvIYMpomISBq1LVM2svsA2WzkgYsdboDHn2odk2LfihLdEBD8xDpERESyQ17ckiMiIiIimXMxF/eIEHkCOMq6JdUc7ls11My27hAREXtamIiIiIjIPruIiwYUUfQ0MNK6JcWSwNcCgjrrEBERsaWFiYiIiIjsl2lMGxkm/BQw0LolxZqBMwOChdYhIiJix/yxrSIiIiKSm+Yx7/9ChM5k9yHx+aQLcPd0ppdbh4iIiB0tTERERERkv1VTvdjjvwYk/uH/Obf0CBF65BIuOdg6REREbGhhIiIiIiKdUkvtgw73r9YdadC/ldZHZzJzmHWIiIhkXtg6XN4qMQAABKVJREFUQERERERyX5x4vJzyIuBE65YU65Uk+blxjLvjRV7cZR0jIiKZo4WJiIiIiKREnPiicsoPJP8eNzwwROiksYy9fRnLWqxjREQkM3RLjoiIiIikigcqgUesQ9Lg6FJK74wSLbIOERGRzNDCRERERERSJiBoAb7qcM9at6TB6Q53a4yYXkOLiBQA/bAXERERkZQKCHZ6/JnAG9Ytqebx59VT/yvrDhERST+dYSIiIiIiKRcnvrOc8oeBfwa6W/ek2KQJTGiME3/KOkRERNJHCxMRERERSYs48U0TmPA4cC7QxTgn1T5TTvk7ceJLrENERCQ9tDARERERkbSJE6+fwISX2H2lST7dDu6A08czfvkSlrxqHSMiIqmnhYmIiIiIpFWc+MoJTKgHvmjdkmIhh/vyBCY8Fye+2jpGRERSSwsTEREREUm7OPEXyyl3wEnWLSkWBr5UTvnCOPF11jEiIpI6WpiIiIiISEbEiT9eTvkAYJJ1S4oVA2eNZ/x9S1jyvnWMiIikRj7dRyoiIiIiWW4Tmy4D7rXuSIMBDvdwlOhg6xAREUkNLUxEREREJGPqqGvtRrdzgaetW9JgBPCnS7ikj3WIiIh0nrMOEBEREZHCEyXaH3gSONi6JQ2e2cWuUxawYId1iIiI7D9dYSIiIiIiGRcQbEyS/ALwrnVLGhzbla53xIhFrENERGT/aWEiIiIiIibmMndNkuQZwHbrllTz+DPqqb8VXdEtIpKz9JQcERERETGzhCXrjuKo5xzu6+Tfa9MjyikvjRN/zDpERET2Xb79oSQiIiIiOWYJS9aMZ/zbDvcl8u+KjOPKKd8eJ/6MdYiIiOwbLUxERERExNwSliwtp/x94DTrljQ4ZTzj31rCkhetQ0RE5JPTwkREREREskKc+OJyyrcAn7duSTHncGdMYMIrceKvWseIiMgno4WJiIiIiGSNOPFnyynfCUwhvx5QEAK+WE75E3Hib1rHiIjIP5Zv94iKiIiISB6YwYyTkiTvBAZat6TYFo8/qZbapdYhIiLy8fJpay8iIiIieaKa6sdDhI4G8u2w1F4O99B0ph9kHSIiIh9PV5iIiIiISDZzUaJnAz8DPmXckkqrIkSOr6LqXesQERHpmBYmIiIiIpL1okS7OtwMj58GjLXuSZElxRSfPJvZW61DRETko7QwEREREZGcMp3px4QJX+DxpwCjrHs6aVEzzafNZ36jdYiIiHyYFiYiIiIikrNmMGOIx58MTPD4w4AjgAHGWfvqD5vYdE4dda3WISIi8ndamIiIiIhIXrmIiwZEiAxxuCHAYIfr5/E9PT7scD2BsHVjB+4ICBZZR4iIiIiIiIiIiIiIiIiIiIiIiIiIiIiIiIiIiIiIiIiIiIiIiIiIiIiIiIiIiIiIiIiIiIiIiIiIiIiIiIiIiIiIiIiIiIiIiIiIiIiIiIiIiIiIiIiIiIiIiIiIiIiIiIiIiIiIiIiIiIiIiIiIiIiIiIiIiIiIiIiIiIiIiIiIiIiIiIiIiIiIiIiIiIiIiIiIiIiIiIiIiIiIiIiIiIiIiIiIiIiIiIiIiIiIiIiIiIiIiIhICvw/71iLPQKPiAwAAAAASUVORK5CYII=;labelPosition=center;align=center;fontColor=#FFFFFF;fontSize=30;fontStyle=1;imageBackground=default;" parent="1" vertex="1">
          <mxGeometry x="-429.68" y="357" width="118.37" height="30.13" as="geometry" />
        </mxCell>
        <mxCell id="q_regl1twvLlKT29mewd-3" value="" style="shape=image;verticalLabelPosition=bottom;labelBackgroundColor=default;verticalAlign=top;aspect=fixed;imageAspect=0;image=data:image/png,iVBORw0KGgoAAAANSUhEUgAAARYAAAEWCAYAAACjTbhPAAAACXBIWXMAAA7DAAAOwwHHb6hkAAAAGXRFWHRTb2Z0d2FyZQB3d3cuaW5rc2NhcGUub3Jnm+48GgAAIABJREFUeJztnXt4nVWV/z/rPSdtU9oKBZRCAUHGCwhekEubkxJmkLFAoUkaBIQRcARhFBQGy63NTgtCBVHAK8IMgrdpmqQUsYIIoTlpBcELSPH2UwQEFNtCW9q0Oe+7fn/kpLRpLid7vUkK7M/z+DzSnr327jnvXu++rPVdEAgEAoFAIBAIBAKBQCAQCAQCgUAgEAgEAoFAIBAIBAKBQCAQCAQCgUAgEAgEAoFAIBAIBAKBQCAQCAQCgUAgEAgEAoFAIBAIBAKBQCAQCAQCgUAgEAgEAoFAIBAIBAKBQCAQCAQCgUAgEAgEAoFAIBAIBAKBQCAQCAQCgcAQIiM9gIE4qM6N2qXAnRLxg7Ymt3ikxxMIjBSVtW6mJpy6cfdJpz92y7mdIz2e/siM9AD6o65uYaYQv3QnwkeBun0PPPqlZ55qfXSkxxUIDDe5Wnc2yh0IB5dtWP/e/d9W1fT0063JSI+rL3ZYx1JXtzDzQrzyDuDU4h9FwPH7HFhV/sxTrT8bwaEFAsNKrrphNnAzXXMA4D1JOQfu/7aqlh3VueyYWyHnotzj3A6c0dtfi/KdDbtP+uSOvhwMBCwUX65fB87p4yN35A/hLJzb4ZzLjrhikdzEqm8DZ/b9Cd5ftnH9B3Y/oOquF/7QGpxL4A3HoTPc2I7opSZeW7H3xvv2/jt7PftU64+Ga1ylssM5llyNWwB8poSPvnNUhmP3fe+xi59Z+bMNQz2uQGC4mFLnJo4SfgwcM9BnBT6473uqRu1oxwM7lGOpqGk4V+CaQTTZC41r9npv1Y+fW9m6esgGFggME1Uz3duBB4APDqJZ5b7vOXr1M0+1PjI0oxo8O8wZS67anYCwGD9n92Ik0XHLmub+Ku1xBQLDxdRq995IWApM9mgeg9Tlm+tb0h6XDzuEY5laM++wiORBYCeDmfUiMqutqf7etMYVCAwXFTUNRwvaArzFYGZjotG/LW+ZuyKtcfkSDfyRoWVKnTsgIrkHm1MBGKeqd1VWu1PSGFcgMFxUVrtTBF2KzakAlEeS3DV15vx3pDEuCyPqWCpOXDA+U+AuYPeUTI5W4fuVNe7zKdkLBIaUXLW7QIXvAaNTMrl7JPE9x9Rda3VSJkbSsQjZjf+LcGDadhUW5GrdjTg34iuyQKAPJFfjHMKNpD0PhXdtTDq+M5LP/4jdCuVqnBM4bwi7OGKfv3PQ/kdU3f30r1sLQ9hPIDAoDqpzo9717qo7KC2swguBd+/9d4mffap12VD1MUD/w09FjTtRoIVhWDEpPFDYSPXDS93aoe4rEBiIqjo3rhDTCHxkGLpLUE7Kt7hhD6AbdsdSUTf/XRLHD2M/qCod4Yk4yk5f0Xjl34atz0CgB0ecePXbyrKdP2ZwMSpW1kmGI9sa3cph7HN4z1gOneHGSiFuZjidCoBycCYuLJtWO/9fhrXfQKDItNr5/1KW7VzO8DoVgPEas3BK3Q3lw9npsDqW8lF8ZQgOa0tl/0Tjn0+b5aaOUP+BNylTa+YdlmicB/YfoSEclInXfmk4Oxy2rVBFtasRoWm4+uuHVwX5aFtz/T0jPZDAG59crTsGpRkYP9JjUeGj7U1u4XD0NSyOparGTY7h1wq7Dkd/JRCLynltLfXfHumBBN645KrdfyDcCpSN9FgAENYQ8f58o3tmqLsa+q2Qc1EB7tiBnApARkW/latxbqQHEnhjkqttuBDhdnYUpwKg7EKB79bVLRzyMJMh76Bi4tFXCpw91P14IEDVPgdW7f7MR6t+QmurjvSAAm8AnItyu1bdjDKXHSQXbxuEfdfzz83PPNXaNrTdDCGVte4QVX4BjErDnqqcjmiVwH+mYW8rFseZCaetaLxoY8p2A28ipk+/afS6MavvQDg5ZdN3gvwU9I6U7BUiiQ4fSjWAIdsKVVW5rCq3kZJTEeH69pb677U3u3OAhjRsbsXMTLz2gcOrv7AjbdcCryOqZrqd15avvi91pyLclG92H88319+pwpdTsppVTb41lFuiIXMshV35b+BDadhSeCCzisu6/zPf7JwKnwHS1Po8chSbl0076aq9U7QZeBNQWXP1pEJEq8C0FM0qyH/nm9yFXf8fylbxeZTWlIwf9nxh5efSsNUbQ7IVKkbX/hoYk4K5Z7KdHNp6t/tnz7/IVTfUIXon6WWGAjwrGT4y3JGKgdcnlXXuQI35CZDmC2mTwOltzW5Rz7+YWu3eGgmP4ScG1ZONcYZDVjS6P6VgaxvSX7E4F0kh/jbpOJWCEJ3Wm1MByLfUN4pG/w68nEJf3eytCfmKWfMqU7QZeANSUeOO1JiHSNepvCwa/XtvTgVgeYv7h0bRaUCcQl/lmZhbGYIFRuqOpfIJORchrUnZ0NY8t72/D7S1zH0oiqNpwPMp9QnKLpIk91bWupmp2Qy8oaisdTOlS5t2txTN/i2Ko2ltLXMf6u9D7YvmtoHMT6nPoyqrG9K+DEnXsUypcxNVdV5K5h6alDmwJGHtZXfNfUILHAY8nlLfAOWqLKqsbRhKaYfA65BcrTtblUYgzfybp8gwddldc58o5cP5Q3S+djk2Myp6bdoXF6k6lkzMfFLw4AKr4kz2Y42NJ5e83Gtf4p6PMxwNLLf2vxUZVf16ZY2bx44YkxAYbqSyxs2j67Yzm6Ld5XGG3KAiYp1LyuDjCGtS6H/iqGjz3BTsbCG1yVJRO+8g0eTXpPCFi3JqW4v7oU/b6dNvGr2ufPV3gVnWcfQYU6i++CamhKqEXggs2dDJqY/d7bxqY1XWutNVuTOFocRRHH2g1BXTQKS2YpEk+SopOBUV7vJ1KgBLl16waVLmwFNE+KZ1LD3G9fHyf75wT8WJC0Y8mSwwvBw6w419IVm5mJSdCvC/mdXU+joVgLYm910lleTeTJxJvpKCHSAlx1JR605GqErB1D+iaNQnrUYaG0+O25rceUDaBZw+LNmN16VsM7CDU17GDSgnpGz2kXyzO7u11ZllUwuFsv8Cer05HQwC/1pZ21BrtQMpOJbp028aLcoX0xgMKp9ua7z8pTRM5aobzgIOT8PWVuQ7NxIqALzJGJMZMxvo93bSg8Mra9yZaRh6eMkVfxdNRz9XVa87qM6Zo+XNjmV9+ZpzgH2tdoCf5FvqG1OwQ6563vsQ/WoatragtGYzTA/auW8+7m+89JWNnRwL/DRNuwrfyM2cd2gatorHB2loDO03MZFPWI2YHMuxZ1y3k6KXWwcBbMgm6Sj2T6lzE5GkBRibhr0iP8m+hemtjW59ijYDryMeu9ttyE7gRFHuS9HsGKJkYe74a3ZJw1iSZC4EzIm0qnqlVcrS5Fg2rN/waWAPiw0AhPmti93TZjsgmYTvAPulYKsLpTXOTKhpvd11pGYz8Lqk9XbXsaFAtUKaJTX21zGb/jcNQ8sXz/l/iFydgqk9o8La/7IY8HYsx9Rd+xZE7ecNysqNu05KRY+zsrbhUykfsv08m2VGkFMIdPPY3W4DhfITSPFiQJSTcrUulRunNZFeB/zOakeE2ZYbUG/HsinuuBiY6Nt+Ky5OIzZkWvX896jq9SmMp5vfZpOw/QlsT/uS2eviDNNR0ktUVW6oqJv/LquZJxvdZkH+O4UR7RaVbfTOfvYKkMsdf80ujN70V6wCwcLSfJM7zmSDrspyu8SsIL3SCs+TYcpwaIMGXr9UzXRvL0QsByalZPLRjbtNmprGizZX4+4DPmw088qYzJh972+89JXBNvRascjoTedhVx0vREnmYqMNAHYpMJf0nMq6JOH44FQCA9G62D1NEs0A0lrVfmjMSy9cmYahKI4uxp4B/ZZNcce5Pg0HvWKpOtONKazlL1gPbYWv5Zvcp0022CJ/+SjpiBYnKsxob3I/TsFW4E1CrrZhBqqLSSfgdHOiHLq8xf3WPK4a9y3s0cLPr8mw35ONbvNgGg36i4hfkTOw3wS92tlZZk/7di5C+SYpKaErcmVwKoHBkm+qv1sRl5K5UZFwWxqykUKZA7zTBYrsuUvC6YNtNFjHIipql7MTvvrwkiv+bjWTe1w+pzDFPJ4uFrc311+bki2gK6YmV+N+Eqov7jhMrZl3WGW1u7ey7gu7p2m3vbn+KoRUAjyBw18orDRd9wK0NV/xQvHFayPh8zg3KF8xqA9XVjecCLxnUIPqibJ2czLKnG/TpU2raYlqP5XNcAZFbdE0qKy5elKmQBvw70nCfRW19kPqgI2KWndcRPKgCsdqYXNrZc3VaR26Aqh2ln8C5fepWBOunlJ31V5mM9lR12I9AxLelXtCjh9Mk0E5FkXNh60KX3mk5fJVVjtJpvBFYCerHaBDhFPSvFaeWnPVvtC5bKs61TuJclcxfykwAuSqG84S5S66nxnhQOhclqtz+6TVR/uS2esS5RRgUwrmxmXjwgKrkbbGy19CudE8Gh3c3C/ZsUyrnv+eFCQn18nm0ebU7OLW4qNWO0UubmtyqSnPTaubv19E4QGFA3r8VRbR20L1xeGnqyqhbifOpHAAMW3Tauf/S1p9LV/sfo2mk6iqcFoa2stxlhuw31wdVVE776BSP1yyY4klNufyiPCt/D2X2RSvnIuShJtJR6SqJd/svp6CHQCm1Lp3J3HcDuzfx0cEqM/VuK8NR5nLNzt1dQszuRr3NVS/Qt/Pyz6Jxq1pBKd1k29xNyP8KAVTIklyw2DPN3qyotGtVsFcp1ySpGRJk5IGfOgMN1bgDP8hAbCpEGXNq5XcE5xJOjErLyXKp1KwA0BVndsjUpZSWrDU+S8kKxdWnenSqGQQ6IWqM92YF5KVC4HzS/j4nhLHS4848eq3pdS9ZiM+KWDe8gMfqnyc/7AayRSyXwYGdWW8HcIZpT6zJTmWsWWcDOxsHNQdKxqv/JvFxEF1bhRKKgFEKnx6eYv7Rxq2Dp3hxhZiFgu8vfQBUFNYy4NVM1yaKu8BuqoSdq7lXpSaQTTbr6ys855jz7gujXM7WhvdiwoXpGFLwU2ffpOpdtayu658VuH7xqFMjNeVJvla6hLLGmSjMdxgtMEuiZxHCpnLCk3tTW6h1Q50LbfLy1gIHOHR/MhCGa1VNS6N4lMBoKrGTS5E5L2qEiqHbnj11R+ktU3NN7vvA4tTMLXv2rGrzcqKSHQ9xptPVUqKxB3QsVTWukNSiBW5f0WTM2VcVtW5cWgq2i+vRJSlorYF8GKy8qvAoK7ienBQAVYM5mAs0DsVtfMOKsAKwPJdznghXnlTWmPSAv8FrLPaEeWKQ2c4k8ZQe9PcJxUeNA4lV1nnDhzoQ6WsWKxnK4jK16w24pgLgLda7aDMbWu+4gWzHaCytuESTeecZrKQtIXqi/5UzJpXKSRtpFN69PxcTUMqeWztS9zzCC4FU3uUZ8X+QlTMc1ELA/uEgRyLqHKycRzP7JF9j+mE/NAZbqzCZ43jAOHX2TWkcguUq3Y5Vf1CGraA7uqL91VUu8GcCwSAXE1DtSTJfSipKLF1odemFTGdXcVNCPayGqKfsx74l61hCfCsbRx8lAFuZft1LJU186YCpgAiRb45mMJjvTG2TD4B2EOwEz6Thip6l/wl3yPdolUAY0RYmKtxpdxkBICKavcp0EbSqRW+Ndkk4ftpyEa2trqCJFEa2++3xevEFGTZ2uoKgjnMf7+KGtfvmeIAK5bkFOMAChT0OxYDVVUum0bEL0JzvsXlzXaATMxtGB1uf+aBr+Vq3Y2E6ov9Ibka50T4Bl3f2VCwL2M23ZqGobaWuQ8JLLHaUdVLqqqc6YWWFLgdo6RCNECAap+Opa5uYUaN1QQF7mtf4kzF2uNdOQV7FYCCRpk0Dn6pqHWfBoa+WLxyQa7G3WZ9iN6IVFW5bK7a3QrUD3lnSk1a9btFM5cC1hXzfoVdpc5ioDgnTRUHFE7uL3Cvz794UZ+qwiiPoCq3W9p32eBCqw0Rbm1vnGNODstVz3ufKMNZsOyswkQWpxVb8Ubg0BlubGEiixHOHq4+VfVL006ad7DVzrKWOU8Bt6UwIPOcUMxzc8/cb/u+0u/TsWiiJq8IrB7fsYtp6Vc50x0OfMg4jo5ClL3KaIO6uoUZJPkf0t/LD8TxG1599YG00/xfj1TNcLuVl/EAtut9H8o1k9xmDa0HyMJV2JMUj7DWIyqboHcBL5tGkdCnj+jrixKMP54IC5cuvcD0BSZRCrWGhNusEb8AzycrzyM9+cvBcrjGm/PT6uanV9bkdca0uvn7Fcpoxy8Q0YzCYZVPiJdM49a0NrvnRLCX+4gS09xovd11pKAf06eP6NWxVNa6gzHGAyQqpsjW3PHX7CKYr7o3J5o1b12OOPHqt4liV7yz8c4kjpdX1riRcm4jxrST5h2cxHEb8M6RHIeiV0+tduZYKo24BmveDpw2pc6ZqmRoIlbHsm9fwXK9OhZNZLqxw3/smXmPqaiTjt70cezVDG9f3nzlX402yGY6r8eaK5UOe6jyYOWshn8b6YEMF5WzGv4tiZI8YBY9MqPsksFepzzf6J5B+a7RTHk2lo9ZDJSt0QcxFpNPCvQqYNa7YxE1qZ2J0GyNXQFzRqdGmjFnU1fMmlcpgukHTBVhgib641yNO22khzLUVNY21GqiP0KYMNJj6UaF/8jNclVmO1F0A2bFQjVFxbe2uoJac5mEXhch2zmWqpluZwFTxKFCk6V9Re28gwQ+YLGB8JPiKbw/zkWSJF8nnXgSq6PdmlHAd3O17qIUbe5Q5GrdRaqpB76l8RsICTdaD3Lbm+Y+CdxvsaFw2LTq+Sap2EhkkaW9QO6I6W47x7/dl1MQ+TC2iNJXNu466SFDeyRJBq0K3hNN5MtWG5W/4WTgvVY7wKsk0REKD6RgqxtB+VKu2n2JN1YgneSq3ZdQUv13KTygwpHYVesBDql4whbjBek8oyqxadWyOtIHsSVJjiorl+225tt7XdFjDJ2gcL+xkptg33r8sb2l3vQ2wLlIYY5xHN18Pr947mMTNk48DvhhSja7EC7K1bjvHlTnRqVqdwQ4qM6NytW47yKkvRL74YSNE49rb3KPopKKbKQoc8yrlvfrvcCfLTYUPobBARfrBf3MMgbY3mf09sWYMmxFMNXlKeYg7G0aA9yKcf+ae0I+upUYtoWf5pvdNwCWLr1gU77ZnUYKB4A9OG2XmJ8cU3ftW1K2O2xU1blxu8TcBaR7diTclD+Ej3WHPuRb6r+OsDQFy++tfHxQQlLb41wC5qvnfSpnusMsBhT5iXEMuZ5/sI1jKaqZvdvQgcZR9l5DewSqLe2BApTdabLgXJSS9svLUZz9BNs6Oc03u9mIfBZIUuijm6M74o58GiUjhpuqOrdHIeYh4CMpmlWgId/kLixO4C1/HkfZTwKrU+jAWVctQtltWMP8I1uKSRl6j6l/eG/Pq+9tvpTCKJmCbV/7eArBaNY8nB9Z9VZSO1sRLl5215W9pqjnm+pvVJX/wB7PsDXvzcSFtly1G9F4j8GQq3bvLMQsJ93gw82qcka+ufeKCCsar/ybqFyaQj8HWVctbc1XvIBgWjGocc60NrvngCcNJqIo4cht/mDbv9cKg3FQWi3Niypqpkmhwg8s7QESSaV8wy/zB3N7fx9ob6n/nqqcQAoKY1uxH0J7rnbeiESoDoZc7bwjENpJQW50K9apygntLfXf6+9De2Tf8z/Ab1Loz/6sqPmZfc+UWmfZaSBWZTllG98R9fjL7fZKg7ONKShOEj3B0h5Y37HZVnahotZ9yHzVDYhGF/VYgvdKe0v9TwWqAHPJ2a3YDU1+VlnTMNw5NSVTWdNwPJr8DEhTTPzvAlXtLfUDZu42Np4cR2o/JFY4bOpM936LjWyGJRhvqzI6uEqFPVEV09ylxznLFsdSVKayJPxplB3VZmgP6Idtzbn7sbud6QcSu3A4QEtby9ySr9zbmt0vEaYCf0yh7252UnRxrtYNWxZwqeRq3dmKLiadSpbd/BFhaluz+2WpDZa1uAfS0EiJItsz09ro1qPWOkS2udMZZ5dhuPAQOHzrSgJbHMvmtdHBgH+JAeWptsbLX/JtPqXuhnIE01ZMIrEF5p24YDxdJTItbI4zg18e55vcnyUzqkLgF8b+tyaLcuuOFEiXq3UXodxKiup7Ar+QzKiKfJMb9NWtKpcAlvAIgNPs0ha2QDWg0lIi5OElV/wdTHWnx6wb/fKWc8ktjkXQQwxGQTCps0WFdTlsUZabks4x95nGkOk4BRhvsaHw/RWN7k8+bdsaL39JJRUJw61ZHkWZlpRtelMcy/JUjSZ82vellm9xf1Dl/4wjeMuG9RtMCbOdHXovNgc39tUxq00vZsU2h5HXfMhrjkVsjsX6phVjYJ4oD7UvmW06BFVRc/0k7YoY9aKubmEGTdIqPVFA5MpJmQOPWtY45y8p2TSzrHHOXyZlDjxKkbnY1dQA0IibLLWABHu9HYzPzsNL3VoF01GCCqY5BPKoqXVvjgXlfRajcYJpUGDbBiFiO7Ttqt1rEpUSWLq8xf3Wt/2LyVMXAYdbxlBkPcqMfFP91Skkg6ZOY+PJcXtz/XxN5ETsxcoBjnghfsq7ikO+Ze5vANNqFzhySp07wGIgUtsznBjnkCQ2x5JAL44FLNJ7HZveOsn7HrwYjm5SxEoykW0blCQnWtoDaOQvWzm15qp9VbXBOgbg7yRRVb7FWaMph5z2xfVLVTiaVG7EdN60k67yj9gWrreOIFuQGZb2MWrSoRX4kEUjeU1Z8gSGuCrp6ViKP4hFNOY3lvygXZLoA9jOV16watqqqtWx/DK/yLX6NhYtXAWUG8fwQpJkKvKL5z5mtDNstDe5R+MMOeBFo6mxSabgLUGab3L3A49bBqDYnqHlLe5JwFJPfGxh58h75/Fko9tsrH+0W8WJbk8oOhbNxLaDW/i1pbFqYivhagzMK6Yy2MYgcodv08oa90ERc47MK2g0ffniOf/PaGfYWdHo/hRJdBzKWqOp06fVzjPEIPn/hl3NyRnrECmCSRkA0SMH/lC/IzDN5ahMDoburZAaJf9ETLonkfFsQ0VMP0bnKDkeW22aOBup982CwhcordxtX2xSpLp4VvC6ZFnT3F9FXXlilhSHSDXxXrVoQX+ATbMlq6M2m0TSrC9JFbWJzwsrTe2LvqTrYRbd32QrsQ1GsR0cR6IrLO3FuIQF7m9tdF5L+cpadwhwrKl3lYvbm+utxb5HnGUt7gHEJmugcJxvJGz7Eve8dWJHoqZzFoGfG9ubdh8Kv7O0T0T3g+6tkPB2i7FMkvEezKHnfKsMW37Qhswqg2NzLkIxashKv3kp/ZEkXIIt8fOefEt9KvWodwTyTfU3CTbpjSjic75tRWxatAofxvB7btht0hNAh2EIB1oOcMti44oF9ofu6Ec1JYGtW3bXlc/5Nh790gvvQrCIFP3KUo+58knerWDRMdmshTFeuqFT6q7aS+JCv6UqB+DFRDkbs3bq9qy/fL+3aaGzQkXfLUT7gBYDB2WdavJXQX5P0pkff/3fLYeNvaGxclYk/Ab/gnmnVtZcfalPlvvozJiWjrjj2/hHBk+sqJv/Tt/LhMduObczV+N+DfielYxJdsn8C+B1PNH6fp7JPc4GPIXspehLuvf1b/cxAqDwJwwPdsYqT6C2+BktiCkLWOHnvoF5mUJ8OlDm3bnIRctbXGoTe+3Fe+62/tK9L143e/KvNO58EaFJkKtBz6VLgOk00HNF5AsITWTKXlw3e/Iv18/e+6K1l+21a1rjWN7i/qEq/20wUZZop5cK4f2Nl74CPGLoGynEpmdKsD3TCYn/nOpKnPWKHC/S5ViKdVL88xyEZwyDgMh2cCyIRUcCidQYkCYGCUz1rkSgsCzfVJ+KzOUqd8CE9Z+f/MUoGz2tqtcDpZ5RCPABRb8kiTy9/vOTr13lDkhFUb+9pf77GELMJfKv8qBqE7lGbEXVEjVpo5jnlHFOj6+a4XaLoiiyaWGo0bEk2A6OUdONVKK2h0DVz7HkZs471CJ9mYm4jBS2QGsv2euEURs7fqfCJWrLNh6nwuxRGzueevWyybabkS5Uo8hfxU852PfqOSNGDVijYyET2RyL6ojO6c1l0X6RkEwayUEoNseymVHejuXQGW6s2LZir4xak/jlSEWJRfXrp8sWOVMin4Ksv3TvL0gkSwDbM7AteyYJP1o3e6/5alTZb180t81S2SDR5CSfdqsy/Bx41bdflEOm1N3gHezYGWdTOUD1RsU0p4VkUoTahHYEsVUaFN5haP3SIy2Xr/JtPKaMQ7CcccAKw8Gxt76rtWyEOqJXZ+91m6pextCUDhGQK1+dPfnb6kzxOYhi+bd6fcdPNrrNCg8b+i3Ldq71TpEpPtPeEiQYHYugpjktwm6RqhgP3dRbX7aoH+H9thR42rctACoWpwaeIeDFcy1fjdf/Vywb4c36jsk3KnKWxUYpKHxi/cbJN1hs5N/Hj9X/dz6sGFU9aCJreH/G/GxZJvdkU7a38LyhbwTZNZJITSuWOPKv/frqqLVvxfDGVNuXj4hxL4p4ZTKLyNH4R9p+txTJy75Ye+nk/0T5tG97Dy5ce+neZ3q3di4RvGNLoriMKp+GasuZQYznHMZnO/MSK3f37jtjq+esqrtFiXErFCejvJdshUziG6cAgIh1xWITcRZRrxD6yBB2LRkW+rZ95dLJB4iSlt5LyYjq116+dB/v5XkUR97/ZhW/dBG1rliMQafW29ZCIXqbb9u4YHMswK6RgGUrlOybPeBl38YZ9K2GvlHEOzAPADE5lsK4DRO9gqAS9d4G/aWt0Xkf7BWdijWD2oexWZIbfRsvu2vuE/i+wdVPjqNjMyux5A1ZX1pgeraTTOLtWPbKHrgKQ80rFXaLxKCSLrDGIiSkis2xJGbPajnk+mt3db1BIuJ/vuJ9Q/LK5/c6UmC6b3srqpyw9rI9vYWI1L88hdd3XRRlt0xu2zbb+GxHiXg7lsbGk2OBNb7tRdktUvCq6c4nAAAgAElEQVQOaFLwXq0AEKklxZzIcL5TzKeYbOjeK+lwarXbHdjZp62KeEsXRpJKgS4TkkQXe7cVb9nGib4HuNg0YvaxVElUw7PdZcA2t0xzW5gQiU2Z3+eNvVV7MQlXo+p9vrNpdyZgk0rwuw2TaF/fDiURL62MdZftsTuQRtCalePXXryn3ySPI29JiLiMfXzaqZgcS1nFL8u9Aw6j2OZYRBhnaY9FviJhVKT4JwCq2ByLqppKJsRJ5hXftmWbs7ZyDeInp5gR9XrIgXh8x85eWeQal52ALV4nLUZFGfHajmV3Tp7Ec9+viJczF7VKZm70fnGqGHcD2ByLGjKsVRgdYXAsgs2xWL2qJPFG78aR2jy6+r3N1H/79aLnmQ5EHOXZZ/p0adwOmtbbXQee2rji+Z2r52+8pd+M//MdJVn/ZxtIjI7FMrcFo2PB6FgwVsKTeLT3lx9HsW3FouJ7uOX7g//Nsx2iahLSShNFLEJEnt+B+q0cxP8AEyCKIv+tUFIwORZRc5VJi2MZZXUsFkEaVG3h3uOTnbzLqZpXS5HnslzVV+fCsjQ2laVImX8xtPWa6Kp+2iIRYiqdEhuesXXGWs5iOz8Ey1aouGLxPry1boUiseWpjBu3h3/Bq9jmWBL1cyyRp4BOEuH1BlNHFuOyOGXGa53fQy94fgeR33eunr/xFgr+2+23FiaOdD0oi/bwqAiDZ1NJp5KdL3/eZY3/iicSk1OL/B86P2Uy9f2u97SsSIcC4aA9vV5mvs9bpH4H14qaJncU+a/IN75tten5VLHtBhBTuddshKHMpaitsLc1rb5jzQuG9mo7HBPfGwq/JW7kGTEr7vkN2N4+adNRHNPg8dzSqPpVW/Td7naTGLYz61bZHIOqOWvd8kLaHGF46CxX1UVMb4QJTPBebUVi28PiufJQxOshN4owrTa0TRtvmQv13EYiftoqghjPKfxfXuPHGOUmPF98W/Bc5RXpHGnHYlo1jO5cawjui0x941k5UvzfYv7pDyo7ThEz4c/+Tf3EtdWzPrQ1Qdf08uowVQYFi1BVF6bbYpNjEaNjMUwyABLNegcgdZKYHEsk6uVYDKHS++K5dRTUpDaXJqK0+zYFvGozi4pXIGWE32+8pV8y/s+YIQYGALW9tLHNbduKBXs0p+0fbwhyy0Q2p6bqlxUeRd5SD2Mra672emMniLcoddokiXo5looT3SQ8z5nUU15DbZn/dEbi/YwlGtnSXYxbfeOiYXMkNsdiDRs2/eMLYoie3TDaq2RHNyqeWyGJvLcCiXR6iUOP3zj6XjBngqfBqvEd5T/1aSgZ74xwlIzXd26UFCFZX/B+xgqRccXiea7Ujdrm9qZIMRXiNmVQGqJXARBJvFWy8vdctgbw/uFF/SQ1o5fiZ8HvKs+3xrXc/KdNCN/3aZsmqnq73Pwnv9gnT8EmYPNemXd6yR8kNpHxVx5e6rznluXZBlDj3MI2t9dGqCls2ZaaHflnJwOIQXOiiEX+710+jYri20/7tE3UP+cngZsZ2WvnTUmS/Zp3a99/u/IXT80gEVvpX5NsaqTGZ9uQ+V/EMrfXRESmq8hyS5kDVGz/+EhNX75gkv97S2XN1V5vNFU/BXiBymPqrvUqB/uWa5/7kzL8spTdCHx55+v/+heftkdMdxMQvESifIus5+rc3tiu+E2OJRHv8rIACHhXyKyqc+OwyKnAKuuKhWjTWm/Pplavmti+fIP6OwCine/xaies8OyyrKOw6VjPthQYdRXKs77tDTyzqXzMNb6Ns+UyHc+LgkTE67tOlHf7tOtG7ELvppemReSe2E+IrBsRXo5QW/CUZvwOMQEy2VEmvQuNbILF1h8/Eb+HL5LI17FA5F+WdeKCP78SRclJWG/jBkdHJDJrV/cn7/OGyFCKNhL1+q6j2OZYEFvRL9T2bGc6RnvPrdjzYqKbRFkdiTE1PBPJXr5t2xov/yeGmyExFmZKrCr/4CUBEK1KngD8RKqUj1TVOe+V2k7XPv8rFTkfg1jyIEhE9Zydrn3Wr1okUHGi21Ph3z2br247GK8SLYjfb9uNJuZny//ZVtYWLye8SGL/OV3sf02EYS/WZUS9gpa2DMGyajAqoRNlvOUOi0zzaVQ8wL3Hs89soWCrCzTh2mdvFzgDQ55YCcSieva4L/7tTosRyfAZ/BNlf2SoweT1276GX2mYIgKGFYv1hRn5SXm+1j3/iIjEtOdO1C8acqtRPG1oPc7y9m4/KP4jviuHLt5drGo4aESk2btX4b8qTlxgCqAat+C572ui1QxNfMs/E/SkcV/823csRo6pu/YtCOf5thehxaddxYluTyy6McKafIv7o2/zqhq3F4YyLdYKoWJbLKAiz0Yaq8mxiBgdi9q+hEJiKOruXKLwmKF7yYjfm6187Nif4H/WsbNkOy7ybLuFCdf97UeRyvsAU8nWrVHlJ1Emc8hbFvzNd0W2hU1xx8WA1y0YsGHDZu7zaRhljKsV5VG6VuNeFNTwTOMfabwF45xOMvpsFGcnPIvhS8Azf6MbUfH27EVMe2ERvPf/AInnkvm+Oy95FeFH/j3rJVPqrrLthYGdvvjs8+MXPPcRJaoElvnaEXhYSU6c8MXnpu/0hb961/PuZtpJV+2t8N8GE0uKtYEGjXq+LLa0x/ZMSSTeBeUBSOQPpvZq2grpzusnPhutaLxoI4blsFj2gkCC5+FaN0bvLojtIfA/WATh64aud8oUCqaC61szYcEz+XELnqvC79ylsNOC56ZMWPD83WmNJ84UvoxhOxDBNwzde1/pA0TGl5Wqmp5pMvqkqX9bedh/LF16waZuzQfv7ZDCflVnOv8U79j4JcD7Te0jNT0EwDtz1fO8xKrzi9xDKN4lUxFOzlU31Hm3384cip+u7GqxrXq3oaKm4aMCtd4GhCeWNTuv1Vdljfsg8A7vvoFClLU+U6ZnOon9n6lDZ7ixgmnF8iywRUzGVNk+Xucf+ty+xD1vUUMXOPjYM67zjpDMN7pnwF8jpIvEd3IriGXVAqJfn3bSVbZzrm3xEGJSb/GmnuTq3D4R6h/6D6iKd3tVrI76jysar/SuqFA8lD/I0P9Ly1uc903v2DLeDf4iU1r0JRGAgFchrC0kHGhsb9kOZTeu3+iboNaF6awDEP+Hcey4sbdjK+W5m2YKTaZV49ao+DiJVBxL1ZluDDFNRrmC55PM+Du8Wxt+SwA1PkvRqI7DsSnsm44WEhWvaPJuRLt8SQSgyFOmwYBpMBgPuxQ90tQ+EZtjgXdOnem8lq/33XnJq4J8wdK5wmHxWm611AruRsQjEtunTU+ciwpr+V88M7i3DEXkquK54aBJYxuUSWyORROdYmrfdSPljYiaIo67fUnXg5iI/z4fkMjmWFTkEUt7RCstzV/O6kMYJBQAJOJs37bjNu5yC8b0AoWP5Z7gyxYbXSSDXn2I2lcslY9zI3CK0cxfVkd6m29jhU8Y+3/l1d0n+RavB0AU07McReKV4PraAGy7j0zU5UsigGxZ8nssh2/qL8IDUJao7cuAow4951veanZPNrrNil/MQzcCZx4x3U3wabt06QWbUOZa+gdAuSBX7b6EofpB4uEkEry2T91Irtp9RbFFEwOoypwnG52XNETVTLcz4J2T1DUA7n3slnO9y2ZMn37TaBVyliFk1DiXFC8xsSLJq5uT30PRsbQ2uvXYJAT2n1LnvBOXWhe7p7GlFowbs/rvpu1QhPGcBcaXjZWzfBvnW9ydwIPGMYBwUa7G3ebtaH22NapeW6FDz/lWWa7G3Y5woU/7Htzf3lLvLWZVyHA21sJuYttSry1fMxXfSgRd/K212XmJWgFU1n1hdzClyfy1O3botT25GK49QbKJHGZoD3iLLHcRJ8dYmm/SUXdjLXKv+mnDOYdGkjkXY9naImeN+ecL9x9x4tWDTr0Xj4NYiQa/Yqmqc3uU//OFB7CuErrYkCSZT+G56q6rW5hBzSumDjaNMjkWUf030wj8hcoBSJLN1jm8xYe8NgkSfmmxqKqmQanwgKW9RBxvaf9Iy+WrwC+3pBuFAyoe5wTf9sua5vxRYL5lDN0ITCvLdj6aq3WDc7h+5yWDalNR3fDhQsyjYFv2dyPQsHzxHO8SJy/ET52I7U2NQJMloxgA4zOsxhWvqG1xILzmQ6LX/tAcgWoaVBTZHAvKB63xHBLJraYxACI0WG5n9sgcuIA0tkRdTEa5L1fjvjYI5bkhcyxVM93OlbXuGyJ6L2BORyhyf9shXO/d2rkI0QbrIDTC9OxUzXRvR22BcYLx5Ywebmmv8poP2TIBktgWgapwBIZDw7ZG9xRgyTERzcQzDe1pW1T/AGAr7qW8P/e4/+1GY+PJcTbDadhiW7ZGgPM74o4/VFY3fLKubmG/MRI+181S6L9NXd3CTK7WnVOI+IMqn8JYWncrnu8slJ1ukEYg9xtOR7Hl5sAf8ovcQxYDnRGmZxd4Lt/i/HOEul6GR1gGkN0qin2LY2lf4p4HvCMGgbdV1M6zXFWp1eMmqPXHUcT25iky/6A6512XpbXRvUjEqRhL0PbgrSp6y4vxyt9V1rj/7Gt8kcdWKBrde5vp028aXVnd8MkX45W/Q/kWYFKe70EhglMfXnKFt1Ja8RbGvFoRkVsxpjQINsciys8s7XO/iQ42BiY+09rotrwMey7ZjTkOydGm5mq7mRE4qqil4U024nY8y3Nsxf4TYznXYiC/yLUinG8cx3YoHKDw7V1instVuy9V1M3fptpAeefgD2LLN2y7Yqmom/+uilp3w7ry1c+q6C0KB1jH3QMVOM83H6ibteWrz7Mm0QKb40RNujNVNW4y2OJXrNHjKra52zOjexvHItZ0bzANbnR2zFJskzpD1zbCm6LXbbLYAFB0btUMZ6r9m29yt4A461j6YHeEiySOr9v6D+XLz21kcDoxG4ptXrMRx9eJ8jnSXaFszdy2ZmdaWU6tdm+N4ErrQAQaLbk5ADGchiE/B9iUFMpNmjqRce5G8EiP/36NJIqsUYNHWQ4u72+89BXAtFcV4XRLewCV6CrsmrC7FbL2chv55voG4FtWO/3QW/xR6auW3rdOJjHmfhG+lm92V1nNRHCztYQqkIhmrraORa3PrPBA+5LZ3pHjdXULM2qU4ox1W9+xjRN4WZKHMYhbK+w67YnIS0KgG0GWWNoD7/OVMeimvWnukyiLjOMA4dRcbcMMq5n8IZwPJu2W/th+cg3mALf3z1onbF993ZRvcp+xmqmsdTMRTk5hRAuXtcwx5dlNq533AevhsSaY5szf4t99EEwlP9Zt2v1t2+QobeNYiuHQtiAbTUx38Rm0BeNqQaLkU5b2dA1gvnUcAKh+w7fI2BacS/LN7r8UTMmKfbC9ExjcAW5vn03dsQjMzze5CzEekuaOv2YX1VScdFJc2RqNmJ/VuCzLYouBCNucRcj3TGXYfttiDFQDTG/oYkiyaTukysd883a6Wd7ifovYz1qAvTrijhSSA6G92V2BcDHp3hbtwvbXv4NwLNsd9grWmt7bEit8rq3Z2XOpAEZv+gq2msxdKIvam+aaRMqKL5yPGUfywNa3MT4onGhqn2zvM3o5D4mswVmHWbVYReUHxjGMLxsjZxhtoEQNpFN/56yKmgZr5iwA+SZ3AxHHYC3b8hrZqpmux4pqEDdDPVY3ueOv2RnIpjEwgVWqMr292X0lDXu5WncO6aQQqESYz1Y6kk1nYivjioB3fhR0aQuLUbEu6mUxsp1jya5KHkPxrloHSLYQH2doj24etQhj3g5iytspkpRjOHPaZjjoV3Mz5x2ahq38ItcaZTJHKvwqDXubyWyzdRlUkFyPzyZlhXQOboXHYrKHtrfU/zQNcxW17kMoN6ZhC3g1Ae84JaArIE3VGk7QsXkj/mVkgCRTmIElYFFYs0fmwO1qKG038VpbXUEF04+pkZqWVvl7LluDeBf06ubdlU/4L/Fy1e4jojyINeP1NcZolCw6vPoLqZw/LGuc85cJGydOQbkWY+GxDHHPMZW8YumZtNiLrcFSQLl6/IaJFcubrzRp1HRTNcPtJl2H8emo7ME4UR7MVbuP+Bqo+A0zwV/SFQDh7oeXOssiAIzbIFHua2w8ebutea9vdFHbKTPKh4v6Ft4IcotpDF3j+LxPs1y1+w+EJaTnVICuigaj2HxzWvaWLr1gU77FXZYQTcUgSag9avUmg7pu3lYYqqetQSE8QRIdmW9xVy5deoFtxboVhTJuBvZNy16RcQhLctXOa2sl4vds9sA0R4ovuX+12FB69xW9OpZsgR9jOyAcHUfMMrSn7WD9KUaRa4Up02rcoO7nc7XuUoTbAW/hqH74cxRl6tM2urx57i/Gb5z4IVUu8REmV2TbVUZS+lYokW21WLazVRqrES5eE/Gh/OK5lgJyvRJJZi5mwfReKUO4PVfrLh1Mo9wsV4UxLwf4Y77JmcL4y9hch+0572TT6KW9/UWvjqX1bvdPNV47K7YI2K4qhfZs40Qp9UpQKmvddSjXkF6S3FbWeSLOZKcta5pjLdDWK0uXXrCpvcVdT8fodyAsYBC6LoJu6wwysfd1s0QMJtp4M8JN2YR35JvcDb7qbwOxrGnOHzsLZVMRU9XLvhCUaypr3M0ln+nFmF8uqtyCPT/JNkeVZX1JRfT5RaQQqHZUMQfCm0Ih+z+A7WETKitnNfQroDN9+k2jczVuoaqp8l5//FQ7yyssZSFKJX/PZWvyTe5SLfAOgWughNXH9tsX/8hb1QGvmgVWKXxBKHt7vsld2LrYvVxyf548vOSKv2tn+dFgOz/sC4VP5x7n/6ZPv2l0f5+rqG74MEKVsbuOsgK3Wwzk6tw+CBWmUUTSZ4G6vj2sqrWqXdSpNnHkYubqD43jQBPtc9VSNdPtvK589b1g27r1hcD31mQ4wRJy7UP7Evd8W7O7fGMne4vI+f3dIEmPgDYZjKB23GPF0n9w3C8V+dSGTvZpb3ZXtDVfYS7FOhjal8xetybDCRivaPth1rry1ff2c74oIn0/i4Pge613O+/qpQAU5FRs+UlA3z6iT8P5FvcHhF9buhXh45b2AFEcXY+9yt6RldUNJ/X8wyl1V+1VyLAMOMpov1dEuL6t2Z0xVEv8Unjsbrehran+G+3N7oMo71JkLrBNYJfqts5g3OgX11Dad67jxz+/zWqjpy26DpXnRJJ5Z77ZHdreXP8t35rKafBko9ucb3anixjEofrnqEKGZb3FclVUu2rAJKYEaKSZLxltgKh1bj6ab3J9nlv167E04XvGzt+bq3Ym+cFld819AjBlbgIgev3WGiSVde7ATFxYnoLIT28kCp9ra3KXkGLpUSv5FveH9ub6+flm994s7C3CGQq3ImzjHMRRgJJimV4pfnarxryscKuqnB5nspPzze7gfLO7aqjOljzRtiZ3iahcRDoBkD2sc3AmLiyvrHNb9ImmT79ptAhfTMH6j6z5SZXV847CWAtMVPpd9fUfIRnzfbJci6Uym3AOkPduD0gk12ui3jED0KVDMjGRC4HrcrXzjtA4+REM6qCxVDYjcmZ7U701enhIKaZOfLf4v95YBQyU47Tdlinf7FLXkBkq2lrqv1xR7f4qwvdIL8alm300IV8xa95J7Yvmtq0bs+azGIuhAWgUXTfwpwawIeb8pKSQzSzs7wMD3n7katwD2LQaOjbrqMlFsWpvcjXu51iv6JS1gvy3it4IlJts9WE/guplLc6abzXirJ09+ZGBdIwFHhm34DnrtemIUzmr4d801mYEU35ZH2wUlQsVvT4F+/l8szMJQk2tdm+NhGexRA4rP8u39C/SPuDhjTUXARgzKtpsPmtJohQKegkTVPQWhsKpwItRFFW9EZwKUFKG86AC6XZg2hbV/yyBCsC7Jk8/lKvoLWk4reL5mImoq2KnLR0BGfCIZEDHkklYhLHWjSjnDSTiPBDLF7n7MG6phgzl99mEKcua5qaSu7MjUEq+kFed5x2U5S3ut1EmMw3l9yM9lj54sL253pQgXFXlsqqYJFOBjjHZ0QPmJw3oWFoXu5fFKNWocMCL8cpqiw0AjaLLrTaGgEckO6qyWM3xjUQpq5E3xIqlm2WNc/4SZ5mKtXjeEBCBs9ooTOTkFDR+FxaVHvulpHtsVb5pHAwKl1httC+a28YQBTh5IfxoYydHtzVe/tJIDyV1ShF7SqEY/I7Gika3emMnx1rFqdNE4MdW4fAiF1sNRFFpMqklOZZ8i8tjSHIrcnjxmsuEZPgsxmzeNFC4feOuk2pGMiZjSCllm6NvnK3Q1jx2t9swKTpwJkOrNVwqhUQic8JiRXXDh4EPGs08vmyRW17KB0uOvEsj21glMa9a2hrdSuA2qx0TwoL2Znd2Tzm+NxKl1HD2qdn8eqGx8eQ43+w+hcqgEgzTRuCbVqU6ABE1zz0RKXnnUrJjGZ0ZfQfwqteIXuO4qTOdSa0KIFHmAgPu84aAWJXz8k3uUnagwLehoSSn8YZ1LN3kW+oXqHIe6cqBlsrLmU57QbWKWvchYHA1vLdn/eYNWnLAbMmO5f7GS19RsAZ9SRQxz2iDrjoukkrx9EGwUYRZ7S3OfN70ekBKOD+RwUhYvo5pb3HfFGEWg6u3ZEahwZwTBAjMw5ixL8J3ByMqNbgkpEzmeuwh0DMqatyRRhtkV+uNaUkzDoiwRqPo39uanEkN/fVEZyQDnp90Fgb+zBuFtia3GImOBswTvUR+U7aar1qNTJvlpqJMN5pJhMwNg2kwKMfS3jjn94L9tDxS+/KutdUVlOhchn6J+rxAVfFG6k1DotkBVyPxuLI3xYqlm3zT3IcjzUwDnhnirhIkOre11ZkvKZKkZD2iPlFoGWyu16DTplVJIVeBY9O4IVrePPcXiP0qvB+ejOLskW1N7vEh7GOHZJcFf15L/+VuOye6Pw2rFMSOwLKWOU8JZUdaM//7Q4Ub801zH7baKeoQ2eqpA6rRoLOpB+1Y8i0uL7BisO22Q5JUlNo6N3A58Kx5PNvzUDYht+yuK4fC9g6PdB1O9yNzqavlDX+A3TttzVe8kI05WiGN2JJtUHi6LI30FeciEr0mhQG1LW+ZO+j57iX0ooh91QJTcjXuVKudh5e6tRLJWaT7kC+OMxOmD4ey2Q5Of2cob5rzld5oXexenrBx4rEC/5ei2UQizmptdOuthiqekDN0gCTSEvGSevByLPlD9C7sAXMA1x46w421GmlbVP8z1F6AHUDgq/lDqF3ReNGw3gDskGi/tz5vqvOV3li69IJNbYdwGsLXUjL55fwi12o1cuwZ1+0kquaCasBv8i3OqwyPnzSdc4mIOK+227J3eZmYA3cAxndMnI3N2SnQ0NbsPoNz6Yv/vB6J+pOofHNcNQ+Ic0m+yX0akc9iWTUrK7MTuDKNIW189dXZgKkaKYDCXDz/Td6al21N9c3AL33bv4ZeYhXdhq63h8DH8aug2KkiZ+WbnbOO441Ef7EspUTmvpnIN9XfKHA2/R9490VHonys9XZnUhGALpFsJRVR+Efam5237rVFTFclBX0IYKdOSKU2b1uz+yUqg020elWQ6vam+u+kMYY3Ekk/uUDJm/yMpTfamt3tCMcBg7otU+Szyxe7dG6ZYlIRMVOVKzGswEwq3W3N9fegmOM7BGora91Mqx2AfEv911T7lFvsyeoo4ti25nprOdc3KuGMZZDkm9z9Kvwr8I8Sm/ywvbk+lWTHyho3C0hjHuWtNbON8v/p6EQAqHLzEdNdOtKAcfn5wO8G+NSfI8kcWWq25puRAZIMg2Ppg/Ym92gkmRwDVV9UVmYzfDKNPo+pu/YtSjpF79PQPTI7lqIUo7UGEcDkUeWkcZJN+5LZ61SiWfS9JP1lZ6Fs6g6mHL/jkWif2503knrcULCsac4fsxkq6OscUlkbkZmVxtUywKak41pgT7MhoTmNKHOzYwGgq4KguXaOwvnTZrmpKYyI9qa5TwpyKtuH/P9UC+VVxWJogf4JKxYDrY3uRS2UV7G9OFmsEaday3h0UzFrXqUq56RgalMSZ9IoVp+OY8m3uD8AN6dgKkoS7qw4ccH4FGzR1lx/jypb9DRU+e5IVCV8vSJJ31uhUrKfA12r5+xqjmMrDSFRuaS9yf04DftVdW5clCT/QxpzWfjK8sVz/p99VGmtWIDOjcwDXkzB1P5SttFe6a1Ie4u7HrgF4ab29/HxkaxK+HojGt3PdXP/wXOBrWhtdYV8s/sk0KBwe1tL/ZfTst0Zc7PCASmY+seYaIw9BaBIao7l4aVurZJK0Bwon6yocSemYgvIH8J5+SZ3YQh8GxzlZX1nOI8dmwlnLIND883OtR/CJ9IymKtpqBY4Mw1bonJlKSLZJdtLyxBAXd3CzIvxyhUp5Sj8I1EO7hJ1CowU62ZP3sD2cREbxi94bqeRGE+gi6o6t0ch5nFg9xTMPTwpc2BFY+PJqUmQpLZigS6dUIT/xC/6sCdvFeEH1npEATPbr1rC+crI4lwUF/gO6TiVQiTReWk6FUjZsQAUtUtS2UMK/OsL8co5adgKeLO9E5HgWEaS3OM0qHBsGrYUvjgUhfZSdywAcWaCA1I5XQbm5KqdqSB8wERvTiQ4lhEiV+uOAS5Lydwfk8wEs8JcbwyJY1nReNFGRT5JOhopEcL3qma6t6dgKzB4ejmkffNo3e5ITDvpqr1RfgCkcTygCOcPlTzIkDgWgPbm+gdR/jclcxMLET+sOtONScleoGR6uVYOZyzDzpS6G8o1U2gCdkvFoHBrvsndn4qtXhgyxwIwdtxOFwBphc0fUVjHHaR8kxUYkO2dSL86LYEhQDLx2ltTum0F+LN2lpvLrfbHkDqW++685NUo4kzSUtJX6nI17opUbAVKorecINEobIWGkcpaNwc4LSVzhUSj04c6+nxIHQvAskVuucKCFE3Oq6x2p6RoL9APSa/XzfzQdCsAAAQLSURBVGHFMlxUVLsaVerTsidwjY849mAZcscC0LHbJEcqanMACMJXq+rcuJTsBfpD4+2cSBLOWIaFqjo3LhJuIb15+uiG3SYNSwXRYXEsj91ybmcsfAxII0V8NUQnpZVuHhiAqJdboahvOYVAenQ949FJpKPWt04zmdMfu+XcNIJXB2RYHAvAiib3O0X+02jmeRGObmue257KoAKlEG6FRpC25rntkWZyGKsvinB+e+Oc36c0rAEZNscC0N5c/3+GUglv2qqEI4nQy3lKHBzLcGKuvijc1NbkSpVrTYVhdSwAG3ed9DlgcHKQSuubuSrhSDJu9Itr2DbQUcePf/7NXsht2GlrvuIF7SyfJsp9g2z6yJqIVErsDIZhdyyP3XJuZxRnTwH+WWKTljg74bhQlXBkEEcB2Dqd/uXinwWGmfYls9etzjID+GGJTVZnEz46EhpEw+5YAJbddeWzInI69P+AKtycP4RZoSrhiLO6j/8fGGaebHSb84fwMR1YsbGgKqe0LnZPD8e4ejIijgWgran+XkEu6uOvFWhob3YXBHGmkUe3OsANhcp2AJxL2pvdBcXqi73PD5XPWkt4WBgxxwLQ1lx/M/D1Hn9cEDgnVCXcgdjqFqjXgLnAiJBvqr8R5Ex66B8JfDXfUp9WPWkvRtSxAEzKHHiBQLew8KsqnNTW7G4d0UEFtkGibZxJcCw7EPnm+jslkukoa4t/9NPMaj43ooNiB3AsjY0nx5mEjyksS4iOTku9PJAiW5VaDfWEdjzaFtX/LJHoGOChbMLJra1uxA/XsyM9AIDijc9RIz2OQB8oq7bklIfguB2S5c1zfwFUjfQ4uhnxFUvgdcDWq5R+CsUHAt0ExxIYkK1vggao5xwIAMGxBEpCwuFtYFAExxIYkK3LqUpvUpWBQA+CYwkMSGf0mnh2ZyEIaQcGJjiWwIAk+lqp1XhcWVixBAIBOwqybvbkzetmT96sQcw8UAI7RBxLYMdGQNfBGlCVdGpFBd7gBMcSKBFdBRKcSqAkgmMJlIZGq5EkOJZASQTHEiiNKFmFhhVLoDSCYwmURDGWJTiWQEkExxIoiQRZFWlwLIHSCI4lUBqqqxMJW6FAaQTHEigJiWSVhhVLoESCYwmURqKrJQorlkBpBMcSKJVweBsomeBYAiUhiaxCgmMJlEZwLIGSiEazSjvDVihQGsGxBEqifAOrw04oEAgEAoFAIBAIBAKBQCAQCAQCgUAgEAgEAoFAIBAIBAKBQCAQCAQCgUAgEAgEAoFAIBAIBAKBQCAQCAQCgUAgEAgEAoFAIBAIBAKBQCAQCAQCgUAgEAgEAoFAIBAIBAKBQCAQCAQCgUAgEAgEAoFAIBAIBAKBQCAQCAQCgcAOwf8H/N+jS6ufWM4AAAAASUVORK5CYII=;imageBackground=default;" parent="1" vertex="1">
          <mxGeometry x="-673" y="352" width="63" height="63" as="geometry" />
        </mxCell>
        <mxCell id="YRH-If-phGwxbPu7-fWD-114" value="" style="shape=image;verticalLabelPosition=bottom;labelBackgroundColor=default;verticalAlign=top;aspect=fixed;imageAspect=0;image=data:image/png,iVBORw0KGgoAAAANSUhEUgAAA+gAAAPoCAMAAAB6fSTWAAAAhFBMVEVHcEzh4+rg4urg4eng4enf4Ong4enn5+zp6e3m5uro6O3n6ezn6uzp6+7l5erm6erk5ejh4uXj5Ofk5+jm6Orf4ePPz9nZ2uDR0tvr7fDw8vXMzNfV1t3JydTc3uIEBAbCwsz9/fy1t8YEKWUqKjGWo71qha03XJBWTUh0Z2KdlZaGfH3Ewjd8AAAAB3RSTlMA0B+rZUKHwA9a7wAAIABJREFUeNrs3Vtz2zgSBtBxfMluyASySMtS5NX//5kjAryAlPy4D606p2YmqXlU1VcNAujGP/8AAAAAAAAAAAAAAAAAAAAAAAAAAAAAAAAAAAAAAAAAAAAAAAAAAAAAAAAAAAAAAAAAAAAAAAAAAAAAAAAAAAAAAAAAAAAAAAAAAAAAAAAAAAAAAAAAAAAAAAAAAAAAAAAAAAAAAAAAAADw//Hj9eXt+flp8Hz19uongQeL+PPTr79bv0QdHiXkL29Pf7/x5OeBR6jkz9+G/O/p1DY//EYQvZQ/ne7l+5rwq7ZtU9e9+Jkgdsrv1fAc8WvIU0pN0ws6RPb6fMq5/ntaRfxUIj665lzQIW41n2JerdTHjPcl4oNu8ObXgphe/pPDPdbxkvRSyLtulfO+2wk6xPRcYp6reM76kOyuyH/L/5S/CDrE9Hb6e1oqepumjOecV38d/v9u9+wHg4gubfv71OZanoYodxupmwr6QNAhoh9fH/suXT/Ju91+N7iT8/mP/3auxkFEr4evz4+P98F+vy9Bv6nqw/d5qemCDjGDfk365XLJYd+Xor6p6znhffl4//SLQcygHz8/56CXqG9qeurKWVvX/fnwi0HEoJ8Px2tJ/xiCvp9K+iro5SR9CPt1Uf9HVwvEDfpS0reL95zwvh9rei/oENDL+ZyDXjbkxrV7twp6lyt6Wbv3Rk9AyG/0IehD0t/vV/TxGmwqURd0CBz0j4+xpG9yPt54v1b0sagLOgSu6FPON0lPSz3v88V3faoQMejH8+GrOl+7OUZPpZz3YxuboENAP3LQL/Nu3Cboacz48N8h742gQ8ig/+9Qlu5VRZ9Cnv9NY9D73L6qTxUCBz1X9O2m+zR6oi+zJ4ZpUoIOQYN+vAl6/Y3ejyNm8updnyo8QEXfXotbynkp6UnQIaLDeum+3x6u9XXQ9alCTE93lu7b669z0gUd4gb9627QUzUDtu+bUtIFHQIH/ePeN/oS83ntfvGLQfiKvt5z71dBT03TpXe/GMSu6Def6OuKPmzAdyZPQOyKvk368oXeVFVd0CGg5ztB363aWca7MoIOjxD06a57991WXA66hnR4iKDXFf0m6EnQ4UGW7ncK+rR0T/pUIWLQq3nPY0VfetHnrC9/CjoE9Ha+qejfHa7loOtThbBB/6yvwHY3n+hlZlwzbMYJOoSu6GPQx7eTp3qez9ialJqmjHfXpwoBvRymiv4xv6e6BH3agxvuzKRc0gUdgge9Pkevv9DTPDdO0OERgr6/l/O+DHdvhmkz+lQhoNfjauleduPy6yzLkVqTpqwLOgQN+vmw/ka/uS+z1POUWkGH0EGf77rnrN9+o6e87y7oENCPqqJXkyfqgt6kWZ8+/GQQMujHr/Egfb/sulf34kotL8v3Pr3rU4WAQf+qXllc97Sk9Sf6GHVBh5hL99LV8j5fjZtaWpZN9znqfRJ0COiwuQO7eS65Lzdf0zRYyuQJiOjpvJ73XK66d/NtuOoTPd94F3SIG/Rx7b58o68O0ac99+s/gg6xg75ffaPfRL3JWTd5Ah4g6OuxE6npq2P0pk+toEPwpfsc9Dnn16/ypiS9vVb04W8mT0BAz+fNm0zTC4tl5sS0Zm/bUtRbQYeHCPp2N67adE8a0iFw0G+Gxk1na8vKfazogg4BLdMh8x3YfZ3z4VrcmPO8dFfRIXTQ79yMm/fjpqS3Oej6VCF0Rc9B309Bn2bMNNMneinpjaBDQC/n8/obvdvMdU/1N3pjxAyEDPphtXSfb8yM2+7Tpns7Zr25+MkgatCr6ZB1+9o8FHK4N5OD/uvdTwYhg36ol+7daum+dK1N3+o/NaRDPK+H8/G4/UZP1383vWvXqOeS3go6RAz6YZwl9V7O0aeK3i/r9jrvrT5VCBj043kO+jXn+/pmXFq1qI6LeEGHiEFfKvp+ngObyq57XcqbEvdGnyrEM02HLA3pu2o3bgp67lRtyx+9yRMQMuhfc9Dzxbjddtd9uuzejK3pgg7RK/pyNa68jl622/MmXPlDQzrEDPqhDvrcjt7NYyeashvXlj8bQYeAng6H8iZTLujLN/ryLvpwhN42bdmOa/SpQsSgL9/oqz7VZc89L97bcQmvIR3iBv1zGexe33WvTtfGgi7oEFE1S6rsxe265amWeTZkHj2Rb7zrU4X4Qd9vgz5U8WG6TA76Ne+CDuGDPh+kpynpebN9OEUv++/Np58MogZ92Iz7qJbuaauU9eufGtIhoLdl8sS+ugNbda+1Y99aXro3jT5ViBv0y83SfdmPGwPfaEiHBwj6+3rpvuS8Hdftw4G6PlWIHPTckd7t7n2jt9Xra4IO8bwsQV+fo9cFPY2DpK41XdAhatCnrpbd8p7qtqa3Ta7pvckTEDbol2nyRJXz+Wpcmx9kGt9fawUdAgZ96VMdd91364I+RHy6G9cKOoSUx8AuQd+tnllcsl6eWRyCriEdIgb9fCwVfXogfZPznO/5PVUjZiBk0Kel++WjemXx5r7MdMDWtPpUIZ5hltRXNUtqvjGzinnZjMt3YAUdYga9mvecg5667dla4YV0iBv0Y92nutyMK28mt+0U9NzW4oV0COmwGTGzS6V5bTpEr2t6EnSI6Wk9eWKo6Gm96T4frw2h/33xk0HwoO+mt9c2x+jVV7rJExAx6IdlDOzyyGJ9rjYt3fM8qfanhnSIZ5oldVmO11IV9Xb5Qm/KxpygQ8CgH45V0OcbM/3qqsyydDdiBmIGfR4xMz/Vktbta/Om+7AHryEdHiDoede9Dvrw7tqU9LZJvwUdHiLoXapeaakW7uUirD5ViOftXkVf9a7VQb8u4wUdwgd9v7vtUm3b+cLM9T/6VCF00MsLDlVTS3tb0gUdYge9Ol+7vRO30KcK8SxjYJcRM/VF923Wfws6RA76+ChT/Y3eNuNUSBUdQnvdLt2rac/zRMj2tByv6VOFgEE/5or+OSzd3/PA5113M1smG8Mu6BAz6NMsqfft8dqdvbiToEPsoN+cozfbD/SkokNE43TIz/oKbDUEdnOO3qaTyRMQMujH1eSJbnfvHP00/63Rpwrxgz6W9GZYtt/7SNeQDgGDfqiCPo+NW72kuqFPFeI5j0G/VEH/ftNd0CGkp6p97b0u6M39pJ/0qUL0oI8d6Sn1zfI4+pqgQ+ygV10t/bcf6YIOjxH07t4cqekgXUM6xPN8f8RM821HuqBD7KDPl927pv92412fKgQO+mW6GjdU9KbvyyipJOjwAN4Oh8PX5mrctOueK/om6idBh5BBn0fMLM8s9qlpvhkap30Nwlb0m6D3TXPvFD1pSIeAXg7VHdilTzV9s3JX0SFo0Ms3+mX1jf79xOc/fjOIF/R1n+r69bV7l91/6lOFcF63Qe/GK7D9NyX9t6BDxKAvA5+nGTPXoPdzSd+erwk6xK3o64P0Kujbiq4hHSJX9Pd52/2a85L0O5txJ0GHBwj6Lgd9HCYl6PAIfhxX5+j7cZTU7co9TTdmNKRDvKB/3avoc9Bvb8f9FnQIWtHrh5O7Ouj5mcXxPyXyKjoEDPphe7w2VvRpMy6ZPAHxnf9l70x3G8exMApvCSNRYby1LbdhYN7/JUfcF9EdO1V/6JyTzZXOoDFpnLqXl+SnUNGPSbC7317r8410hegATbKYRD/7Nfo2XF87pKfd06pOaBxAo6JX7qmGEzO9LI7HkTwB0B6rNHliG5+nWgQ+K0QHaFz0qXUPz2rZW8wwTvaqeNaiQnSAZkVPLqSnotee4TCQPAHQrOi38PQ1L3rvp+55lhQRMwANEtIhw2MWXU0/uCOwxWY6oXEAjYqePU/V9+5T8159bvKR3xlAi6LH0Ljt1ld0fbFFyhA9oQiNA3ihih5zYPf+lqrKb7AJImYAmmNdip4N3bONNTUSGgfwIqKH1j0kzOQlHdEBGhQ9TZ6IY/f7ic+ExgE0LXq+kZ7fSPeba4gO0CKbc9m6+9Putnfvs+ZdERoH0LLopxgaZ2u6PRlXHI0bFREzAG1X9ON2V0zjyom7fkVoHEDrrXs8A3t3GEdFB2i8dY9rdGu6Fjtr3vUwjogZgOZYnu2tlpObuuetu8piJ0Y9iyM0DqBB0a95xEy6kS5VMoxTk+Z6pT6QPAHQoui6db+eKqIrVWytme01RAdoD/cEByd6TI2799xkImYAGmSRi+4KegiBjQdmRmc8ogO0KPo/hejJGn12YkaORMwAtCj6v070W2WNPnneF09roaIDNMjqn1T0bH+tnz9MdSrpZEkBtC96PBrX97XUuHHL7wygZdGP6dG45PyrildapBw+SZ4AaFz0WNHNo1pkePqaHJQ/BIvoAM1hg92vM9FVdk9VTaKP+mScIksKoFHRk4iZGCZlntUS2vfBX1UdER3gJSq6z5jps/trI6FxAC9Q0SthUsWBGTuNQ3SA9kQ/p6Lvdnn0RC66ad6JmAFoDxvsXttf6/t63jOiAzQp+tU9T/UYT8YdVDGNC0M5ImYAGhQ9ZElla3RtuRa9n1d0RAdoVPSsovvUuL7w3B2ZQXSA5tgkoucPZXKdex/zIe29dCJmABoV/VTeajkcpua9l+Vxdw2iA7Qn+jVO3TPR7fZa3rorKjpAkyyv2faaC4076M01e091tsNG8gTAK4juHr5mh+7znXREB2hP9POde6omNK7ImDGtO6IDtMc90ffVc3GT64gO0B6LexW9Tx7KlN5sufE7A2hP9BADe8srel87FzeJT2gcQJsV3T1P1U/dv8w+ui3o+Spdv/wgeQKg4dY9VPSvL3diRsnaBhuiAzSHT4dMbrXENXot2V2SPAHQrOizNbryG2yIDvAiol9nFX1fW6ObsTuiA7xC6x7H7r6gp66PRMwANIcOjTMRM6dZRZ/vpJs/IDpAo6Kf0tA4vb9mPA+3WqjoAI2LXqzRv9z+mkueqAzeiZgBaLZ1n63RreXmTSE6QNusK6K7INg+7rAlqhMaB/AaotvnqfZ9KOkhYEYffydiBqA5Nl70k8uSir37IdlJV4TGAbQs+rXSus9W6YnohMYBtCm6ub3m99F3mehxGqfIkgJolmVe0be7r/ncXREaB/Aiop+SJ6R/pafdi4U6oXEAbYruH7O4Pab7a3uVlPRkHkfEDEDTFX27nYsuQ0H3on/ySwNojmQf/VgRvbJKJ2IGoDkWrnUvHsqUlPQweleIDtC06Ob6WrFGLzfSFRUdoHXR0yekB9HD1F2RJQXwIhU9mcZ9zfbR4/k4RAdoXfTkaFyyQs/OwCI6QHOkoXGVNXo4AxsjKIiYAWhU9Hv7a66ch5NxCtEBWiSGxh2N6FsfJnXwFV2GFl5S0QHaFj2bumvTlQqHYJXPgFVkSQE0XtFdSY/XWlw2pJ+3+5qO6ADNsa6KXp6BTZ7jQGgcQPui1yJm0u6dLCmAVxB9Mn2XnoHNU2YUWVIALYp+DaLfbpUwKRW319wnkicAmmOTin6siS6LVTqiA7Qs+lH37rvwVKZ9sr2WnoFFdIBGRU830pMHLQbTk/Zd3vilAbTGMmnds+21w17t0wvpoaQf+aUBNCf6yZ2MO+VH4/Z7FUq6Owbr2JE8AdCm6Fcn+jzxObTuYZX+jugAr9G6p8M4pciSAmid8/mu6IXpinRIgFZZnPPWPe3c+0M2eSdLCqBZ0d1TFmsVXT87WcZ5HOmQAK2yOvvHqaYRM/NhXGzdER2gWdFv8ywpXdCLZToRMwAti+7X6Lu0oifXWnyuFKIDNCr61Z2YSYZxX5WC7nt3RAf4eyw36/Xb22q1Whg+9afV6u1tvfmr+1tvd9foan84pE9adKfjRkQH+Bt+T3ovFt3FIsYJ/ekyXjyT8W9/S/e3dI1ehMYdDvkpWELjAP7Y8OVaCz56nyezDZc7jIvVevlXRL9WQuPc0bj5eXdFaBzAj4v4atFVpP7f9HaJ4l9G+34J5X3xtvlz0W1F92t0P3Y/TK17ukYPFZ0sKYBn2axXiw9TuEvPreTT98aCIb7UP/aHrpssqZPr3fMsqaRzj2Ud0QGeK+ST459e3Ms4L+SJ28NgP+ybeZXIvlj/ieihouf3VL/cw1pUHkBBxAzAE8366minbEOxDs8lH2aM/rMv74P+n3dvyz8UPcbA7iq3WpJQKUQHeKhbfzPrcWNsJnni+JA6LtzHTHlX6a3rq5918Jtrub2WPzl57jqiA3zfrn9qh4WryFkpt5IPpeRCCPu1qnvs4y+r5U9Fj89NrgY+Z2v0EdEBvinlk4+dsDKny/JsSR5tngyf3nv92TPUq7tbAPxgTrY5nf1TFtOSvt/XTDfDOELjAO6vylc36+04iKKYR82LQi56855oLpJmXsxdv3w+PZZbns7Fw9cmz73pyT56vL225b8mwJ2G/cN04KMwh9wqkmf9+pDU8L5PfE+W66Je158u6strRXQ7dD9kojvNlfwkYgZgbtLbQmi/JzfHLq/leSl3VXyYbBLO7MnyTHTfvQt5T/TxsnjSQy/6Ka7Rd8XtNX8C1l1gQ3SAueXdILqpFo9ifqI1KeXBY6O5reST3k7w6UuXNPDJi7nq3XPj93NR0bf3hnEh9BnRAbKOfbLcSD4Z2RmpS81Dw54sxKXxu+9NLbdfpq/d9D33c+6nbYs/ZOM5O4B/aqG+qLfumegyPkGZiBmAlPVK6FKuC7rfS0vreZTcl2y/Ju9dy+5k9586/9dAMn+vzuWmf8v6R6KbI7CuopdD9/SiKqIDWDarrXZ8qufac3vMtezZ4w6a69Jto+7l9rILV9xFKboMkzkRXLdfnqrpmejFjXQ1K+mIDhAsv2nJtea6cS9vm+al3FXxQPaH7Dt+CW8W8YMcjPJymF4Fw10r/1T3vkr30fPefXbSXRIxA+DHb52xfPJ8mKr6aA+oJponE3Y/WE+Q/T1ce29F18N590W/D2E2J4Yna/oqfYJDsUivHJdBdIBpYd55zTX2DFxqeVhau62zKLHbSSvrev5DcSof/6rQpX0Q/qSsF33cPCe6v48eTrtXDsC6kk7yBPz6Yj5Ey7vBaz7mQ/ayW69W7/Aq/I3g1+dSqy3lkJ2XE265H6Z047h8SvR06m4W6Yf9/LwMWVJAMV/ouXhiudPcnml3G+bzVr00fLZgF26vrberc/0+GN/ifZfUem/6OH7+YI3uRK9VdEQH0FdPM5zm7uaKncfJBwq5mt70e0172UvRSzeQs9LbIZyUmebCbuhdHrtmZrOkbmGNbs+6z++0xGkcETPwSzWfVuadzDx3mscoqGG4M1SvoMof9MJnp+cG98JN5fK7L+bfuXpQ9HLqHk/G7ct4GUSH37oyn3r27r37MG+ubU+a9pgG9ZDj/ay3F059lameal107qaq2wM6j8zH36556x6HcenJOHuhxQa7Izr8wgHccdL842P6CNVc76ldLmOa62iWzf2DSHFv0S5motveff5dt3v/wEDOZUndktbdlXS1r6/RSZ6AX9ezv0+SWybF9ccgusFpfvGJrf5w6mNzdv9a6CpezuaKay3CztqTku5eShsru3hI9ErwRC1Lyp2XQXT4hZp/WsvNh/XcHWqvxDuK9/7HuMm73pmT8+59yI7ImnwLy/cT8k2s6LcyS6r03J6ZQXT4RawXH5Pln+Z98rz77Do5mG01O22v5bj+2PJwna27J7jI9Q9x0JsHRL/WW/dy6m7PupMOCb9Nc2O5/axbd9m9i1Rzu5WelfTQiR/+Y+A++46Q8aKLULN6Lu3puHyTzadBf3wr+mm+Rt/ti0stMex5er/xnx9+B29Wcy+59bx77/KHqdQSW7+fxFVMlyIW9uwCm7iLE118v8e2POWtu6no+6+Z6X4UR2gc/Jpq/llgPRf+1nkaKJEFumrTDw9W8viPVL73dkdtmZV0L/r3R2G16MmTWozo+92+NnV3+2zvRMzAr9J86z3vRP+RlfOsXRc+HEL45v1Qqq3+8/SMKnfZy9ypeH3V47oKvaG+eLii69Z9Z/kqQ2D9ZjqhcfAb2CwyxS3d+3sn7NORbFWXIcw1jXVz4U+HR0fslT90Lo3GS53KLUVW0YfBP7Xtm2Mzbupuz8A60auZceFoHMkT8OKar3Y7r/nWfNkazz/fRxskI3TnLpNibu6cDNK37iJdprtC/X6/kVf+lf9G1/U+kCYx3Ffz/Mj74J4GMYr//j91ztboiedKpTmw8Q3R4cVncNrr3f/Zu9betnUYir5m2ZLixFaa2AsM9P//yUl8SbLldF9jiGuTtNvNcIGdHvKQPLycBqF0wHl7IicZa+c5wBxmUg0jHXbN4sI4l+n9VnzP8d33ycx7L6V6RzA3vIxuYmz0OPj7fmmmvyVA94x+SVT3cdtdq4xe4/DF+cWzuEfC6TKcAto9u/sv2tMJ3OGs7aZ5Bvo2ZPuCjhAGvzRWTGA8wJsnihxCun8yDK9ga1XFTbYS1FErUL+upr8lNXq2plrK3PtqMVPj2PFxgWw94BxfBXb33D60ZBvVeTrX2CxPvVo1YTFeTFTKnZs9sEe4x8Q967mpvJnOG6tbpGONDpT+8R9AR+eJgfvoQOjj1koqwL0CvcZxRbgL8Dk8Dgj14Ryy9yZIcZ1qkM4Ffez7hOSORhEoy/l83YWPX0S5pKvWN643690WcKLYwbkR5Z3sZt7/k9E5dYebTAWo4/paBXqNw9I5ep5TEOI9nZ+aEKZpPZ033D4LYjj0wAh7cEOJamrbtk1TnI7r03x9lbi77BvhnSl1x7+BUZ5rcnEw72mV/oEH0rPJuPNQvLFIuXu1mKlxyHh/y2DOWD+dB5iKa7rW49xqq8jhTZGXDDu2hpdi/KrTZvr/h0tm56RtbtSK0M1aeLdoB336FegB5yLGicXMytu9eknVOHLaviyB0K/wK1L76XwZYPpVn9Q8Gzq+gE1uqqotoRC73DY5mAbAdQmK+//BOP+xLlA6pe6Kka43wjsgHZ8+/4PRAejUSBfZfVwV6ZXRaxw0/lwhp4W8lsAeHgePc5h+bc6+PA8szlqZAdbFxpjZGkXgYwCwe77i0u/P00CPLUneA8BToHcJpcPTk/G4j8d9fcABpt03OJcb6dVipsYBy3MAgMSFPoK1Go65D9PP5IyYtbJMbtDJUZMgh+KcFa8IpV3jGO2uhO7+maNcorervf4ajeSFjv6zddU/GdCvxOgDZe75zAzOwFag1zhcvIV//pDV5mAPynSYnGmH+WdqlFqZPgGlg/mLMRrhnp1BDX+4cU/4vNBL73JWDyDXkrRr1OSyQVgb77E9oXQE+mpPlZDer1gd5LhqGlfjeDJcKF3hk9C+AOwhww2EPnicmzbBuEeDmLfDVLomh+bkaioB/pcGW19otEVXOfwBQkl7KscVinT1tMO2coccpJF+HjdlOpJ6dZ6ocTSc3wjm8omJvM9wcVpm8OV5Uz6NiCwfSFdH/BkbgZ5RuSsBvdmp3kl4i/7uBtvq+HUnRTpeXoRhHbtLw9E0LiF0mXfPPZ+xvVaBXuNoOF8krvEBrdVCe+0y//TNzvpZwHiAZGbSbKwcURJKb5otkffPK/UeaD0k7IJvnQnvrMYFMQ6KBtv+DvTsKNMYrd1z2+fqJVXjwDhP47Is51CkA853pXLUwQHxtE9KvG555L0JU7Coxj1P44t0H/EdtffwVRd19yR13++wfd2E0eNWC0B92FxxQEavFjM1jobzG37CKHjAAma4y3UIxHedf541xKDTpqiIVpmrG8+8k+TuSm/Q/+o6laTvCea7fLHFUhPfvj0B+i294HCR/tqa0gnp5+o8UeM44XEOFkuEc8F60OKgmL1OP7rd841QYuxoDK2acV6tUXiX1XQHA66rjVWC/x7RN5C0p6yui6uqyOhP5bgIdGgpDFF2Z0YfV3KcrkCvcZj4uK1iwQfG+cXj3LYZ8fYFm0eFl1cQ5TYTxIOEJkBu3G7OXvodQzLbekk1NtmMiHF0gnVPjntPU3dUH2gKVk4tjmM+MVOBXuOgOF8E6dRmu1y7n2nMcdiveuAGTq3Q+Dsm1lolZ8yNDbq6Y1rnd+pdjnVX8HmnOXZL83CJKIfNdeymG/KYBocK2/0GdGwoIM7PNAWLjM5IJ9O46jxR4yDx+biVA0t0H6ef6dx7eDY7u6V6tW5mcBtFWe6kEwhzHc6RtZQHe+NcuVLnSZgJB1xNmr+j9q5lIz7Y2NHGrLVfvzE6qe7I6KMstiTLLYj0CvQax4ivfZxzw3meT1BZ97BcXvB2zM3YGXnaxZQaoIm76czracbu3KZyV4nXJGMdd1axuU4KXezosQ9tuKW+M9H2ntxkWnCUPx+DzZbYKtBrHCfe7wjrxy0B/INqdAT6PDtwgAGMulQl6xOftw2xW9eKe5yhqZkm+lDwGznGfibIoblrAnPyeVWa9f2sWFfgZBd+Gy+yWVuurfM+OqtxfCM9Ij2m7xXoNQ4Rbw8CuX/wcXvwVzdssV2X6cc5J2zsmt0+eOT1sJOu19dVrMEfFVrSApcBnX6ShJkak5rF0545WzobWqMx2QAN6/sau/jWlvdL3wDoycQM20kNG0I3+FgtZmocpEB/cNz4Mbzg9H05zVOLybVzEZRuH+v5jZX0NmKP/3lSqjeQIqT5vGs6W4yJ7NsDljsagcfUPSytcw5Af6XZaaW/pVstFxmZyWr0fFW1Ar3GERJ3wbdAPXwiGlCPm+dReFeQvu/2iHsn7MhupXzWnppRb3eSIHC6HngcpLnwKyNzlRXpEelGsYEVmsSqjuV5nMhVO630t3u+vnal9lq5SK+MXuMwifs6iNapYveJ++wE5tq1Camv7N96WULR6BrH7TWPOssDbZG+XVqla9TdmybX30q0HubfiMuV6Vh9NyLQ0/LqTu4eUvdkfe06DPls3No9zvTVYqbG68ef+wbo/B1qqbezaZF0E0IHBnb7Kykkuoe1lqCbdYqxqVZvFN65SYT8NcxzSmdNblI8WE8NNkCseyxQAAAgAElEQVQ7rrUQ0P1X19L/MFrMxP21aBB53qH0CvQar5+431fwvuPnnWQ5z+hUoAc0Cpu7uFK6M6TeQaEOQ2p4eoFPuPQuLfYzvDfamFyCKyGdwkiDDaZje8zf0ecCRuU6U2ylfySyO66kC6NnwvvIcly1mKnx+vHB8L7jA+L8HnG+qNmJDtdGpGclemYQY3gglgQ4J1MuaDMFPyea1umoywWZPUc5IrwM8cnKRKzWsZ0eMnk+Aoc/Y4pjsAj0JTnWkrhPbBvpFeg1DhBfCO57hDk+3CV5v8wTQbJNkE6yebM7nE5A95/tKTNotlYHb3hODlDkC0BXK5QHwIIup5LD6+mfYMHdPzaMdbrN3lEvveT7TBYzmLvLwEycgU2qdI1YrwvpNV49vu8B5XeCOr3CZ0T6Ms3jOs8WVs/H2foU5SqZlLP5LoqODXn8YRGeSswNhjX72XschW2aBhVAMJ3wxTn7SZZydwA6Uvp1iZNx68xdcN73Feg1Xjw+EdgC7vQVEvpp1szmTMKtFNklnwi5iZqcS4IqulOSYcfKvEGYx5zdqDXYaVDebNN3w2vqTds0KL4HOg/XoPCyetHBlSxm5HIyGcEizgvZe/WSqvHycd8PrNGXaWpj4h7VuMLYTL8efVe0baLJ1FFs2ePAuy/VwxsAuI0l9iZMKyWFekQ/DMbZiT4MramjjEdjs9DLAyM5/xefikDnM4uLzMCe2TUuDWL0CvQaLx5/vksQx3QeE9zT5DPYUJi3G5gHOnaiyfXZCKzcdACbZsXWsNxhE6T7dwjXGdLK3DDEbbKkspXlYEhOsQcFnZEwocMW7jvCzEwXnGa+9hkdi/TEYmbYqu4B62ap/1JqvDahfyOwv7/50T9/f38LqXtCD5BsSYMbEe3titS34juNwOLRY6qk5QaDYqDDSLvCG+ssuZm0tZZYtas1zIHSZXuNnumEOmX1PoEv5O6fj5WzOzvBjmtKJ6B31/ovpcarE/o3IpxeId4F6LfzRHl7y5J7224Uud2Bd5U7vYn3UwdAD0NwckidcA1Hlxncat1R3/bY2A4WCV2Lqfyk2Gdum3Z/kfqwsOyO7bXxXMA56nGnajFT45XjG1ANFI6fd35JQF9Cx5sA7npg85EEuTadei95UYSSHG86GL1CuoZeum5gLtYKti0V8bFATyQ5MZnJgI5ONokbBr3DZPHUi88XNrn71y0y+gI1erKQfh4LMzPVNK7GK8fnNyXtEneidvx43C6YtkPEHlu7YfWSPTOdYlOaU2rdWTR9guOoTuP0TEQ5br/QN4yyqxxeFTkdm+lgFY9VOmh+U9DpGo/0Tm3n3QXoWY0+nMdS6g6sXoFe47UJPY2I979E749lcJpxzjTO2XtfBHpfMmkGou268BFQDmPoQSqbuJ6WWdet5qaiMKcKQAfh3WTXm0L+D/YTDeyubndV32/RYgZ9YHnY/cxnmTKY95XRa7w4oe8GMP3tOkRClxZ6X+6ylQt1uqoMg+cm3jmn+w4d2jlyoa6SqdeMwuHC+s5Om9oAnZbSxeTmfQt0qdGTpZZhm7aLR2S1mKnxuvH2dx/lkMXfLqNmlEOJTnr7OKYtdf306ArNtHQdttXkkhpfa6KpOZUqcrnkTrKcNqqgy03BLN7kBxlxJR0bbKGn/llmdPGsR6CDrzul7/0qea9Ar/G68XWXPD080HN4hb9xf1wvYyD0cBS95TZ6oPQA9DFfWQVFLr+70mdHEhVJ4xrvI8pZNlhqAzkudssVp/HyLWVxDKaw2mKzMw9kMjPhXgtw+kZ3f19NxpXba33qG1edJ2q8bPyJEP8bn/0TE73P3HsHIPd4H6FEB4T3GcoToOdiXJ+yOm+NwwYKnkKlU0q86qLkDqraELsqrrXwkBzv1kRGFwtJKB82/u5oGpdPxsHETHKXKef0CvQaLxsPovG/fxnqiHRm9/tyPWsP7lPrGXwUJY7oXCcgf3ZLKZrO8P5qvHWMd9r4pou1pMErazdDM2p/W/Ufe9e23DaORCt2EoIkeBEhkZQochjXeis7+f//W/QFQIOkPPPKKvQotqVo4hcfn76cPl1tm39VdABKlbsB2zfaU43Ha62JraS4REcdrE7OEylO3IpzMEeITxOhfJrGEf/GZu4okrFAR3Rjld682GOjAyvXo867VLP4/TUYvBXyaCKztvI6GeXT99eaGV6D2QI9ML2levsPvB8CnTfSL7Lp7m4n05n0cMYhAT3FqTP3aSKIYzhuHwn00HO3ZG7y3LffKPCJiTP3HcqbuB/Hdk+kfId+O3vFhkOJVUFjtlCVx9hWr63kNkB30ho+xa7Vtkh/955xzOiuREeY84SNKN2QNC4BPcVZY6RsfRN9P1ugw8uQuV99JovNOJM7pBs5YpOJ+wt7qdCKs0k7TtVLFszhDoryRx6IwwtV7Vvvr4GuCNFboOPL8BfbARsD3dXoznhCKOMQ51ekdAR6sphJcdL4gUCftljvp3mkV57LzQSgm7oOOAc6b2LRuzimRtDwYJc9OfB1A9kMHlsAnFfC+b2iMZvzhpa4VsJ5Qh0CnZruROD4j8EkPSuzHC9BfN8CXdbo3kmqFc4TnLg7uXsCeorTZu674ER+pCeDLdEFoefQkmtywrnZbbGVx4tsUQYP2C40L5VpXUYXXLg490cZg62MiqTvSvi7x7k7K961X3VTsEYLTnRb5zjB6HJ9LRhPNOEok7G/uXQyjUtx1vg2bbh85k/9CF/NkLnTDB1+9K91i0M2nLIhz8eSmWtZfiGQY0ULH1YpgdJtQV7YQFCXPEyvXP6+30r9qkIXlE4Gk363FTN3+4rarJl+H55BAovmkNR3byNCB6BTipK8pFKcNd6e+/p8IoT38zTPkLnXlt7quoaffgv4GoEeanRzJIJln/dw0WGHeOzHoRhWFYHMdUUaF9du177r/m9wDnaTDPMjoJfbAdvbt+dz4aDTyZ0bsAVGx8471iH2QwJ6inPGd2q5T4Bp+7B/6DNk7vD1NCw3QHdrHy1U6F2dM5/7Qt24aVuzJfNmw+WR/J22UPxdZX+vSVdeB6e2i6r/BHSV0XfKnAYWCwACOvjLbgUvP9/H2+XmGb0LItigi5MnHBLQU5wz3pnQZ6BxB3R8Ps4Q/bJ0yOYdUToV6iZM2Hz6HhrvAe5N8zKFVyUvoSCnF1rtwmlhpfMEduOU2nvPeKBnkWKGJvAe6Ht797f3dR4sf7fN/fH49ethXDtOpO5hjJ5M41Kct0SPkvaZP8wjAd2mtpbM8affAz1k62KQXv6bbdVY9u5gXqqCG++++U52zY7jY1GcUi93WWWRrinvjxk9LtLfvr/PH5+fnx+2Tumf/fr599qBcqZr4xIddLwUyUsqxTlL9DFC+cyZu/1kS3SI4QZAby3MpTvq9bqpzaV0ho+bO+F5s1fA0qVVFMDCwmpTbnhcbcXu4onamEsdF+mkvpOpe54D1sUk/e37t6rpLssyrh+fH59/fv/+j40//XO4tHB8rRXnG64NUXvykkpx0hKde+4B4PyZM/d5WC5tW7MNsps6BXznBz25cuspdZC6k2WjRkYnH+gwRt/up+qdodQXQFdusyXzQNcW6Hl+xVG668ZZLrep+v1uP9jQ3TBMfwDnf/3197Mf+FdaE4RxOEWH82sJ6CnOGD8Z51Seu57cjMO1eV6hRLdA77qocg0KGUa4ibSxx8eZmp1CThe8z1ag4RuAXAe2VjuBuwqKGSWz+viXgGvFZe4sE6ypWjrPSUXzk1BeIMDhGKt+ENh//fovIv332o83lszEFTqCPS2kpzhnL84N1OY4xnEFpEOJblridJwv57n9U0dIjybq4UZT+TXWAeIFUTvTuxe7s2JGhdWWyPBdOSW8/LzVu7t7rAR0yNxz6sZZlKvHg3GOICegW6T/+f0/G599vwhlnAsgdm2S80SKU8bopuiiOieg95bP1/m53JDQa8J5a2qbwAchHK25GO/zbj+XuLv61aKq8IYtC3Zv5Y02pV32Hur1SnJ8UMwptdfC3qN2HCYJ4E8VKD0ri+Lh4v6QcX/80h+2Upk/bBrTio30SrvTa2VaSE9xzvjRT2G8FjM6fFhhiu4Sd1jfpB//Kyyz5dyDM14JG2+rxu33Zq+cUeDC7Lg8onQxVFdbV3flS3TP6XHFrljsnmnNGhxbGoTcXT1exy94aFu2DF3A+eOOtTmSum50AnqKM/bi+iki9NCOG6FCX/tluAiYd3VL/isiUyese8GMVLwj3l8wOs/WnD1sgUgHH9h4iO522cIX/pCy08/IMRtaz2UO6NpP6sqcBmyW3B9fxt306zQOWK4gzu/PdWw1srkGKWzaU01x7l6cpHPsxdkafR2XoWu5EWeja2s0ZUAUyBEbNuX4qLKJzGauB133xjfeCy1mbjBTK9k+TonttaqKhm9iWVXFFTq/A4FOGlj3//J8rdQqu3+Fc70s68c4Dv5ay/3y8bk+G+2K9QT0FKfuxXmgT74XZwl9fQLQW4/zztS1y2mjSXpQwQbruLDH1rwUxWr73B9CVftVtkr5xhw33MWsPfpdEMZu6OOOOyzkKYs1OgEdNHhHQKeWHMzbzP1ms5nh0lLi0jSjBXrf6Ssp40zaU01xxghLLNumew9An4dlQSInpFPfvWWjJYdw4zP4jU+kGLPtEngtDjFqvqyCnsyq3NXoweZdiXzeS2fkkhtp5TO/kk7HnQDoWKTbf7uoXuTsvjv3nBHoWKU33TB9rKMFupPGJaCnOF+wLm72ihnZiwOgL8Otdbm7o3VTt6YWnI4Qz53djIlUsDtT2BfcrukSI+lhfY4uu+8+f/cJu3xeSfk76d0zd2gRoQ7jNQS6Uscwv+OwzUYzEtDR3L0x5tk/BwOZB/bk0vpaihPGjz5M0eMiHUr0dZ0s0LsQLU3aarKDlYJ3Mpgyu777oXam2evkUDqjyPjZgVurUHYHx8i4aPe/CKLGPNI5d+P47BNQeo443+bud34gzB93bSzQnxfEuaV0fb/dLgYMca6Nsal7AnqKE8Z334vbtOMA6DbGxXJbt4maV9Nlyr4Xvzsuvx6hHG6vaSGD1wVN1kvZbucGfOESdTlsoyeFChaxYaUV2nEEdLSwUdTpQ6l7eVikM5nrOwrlzDj1FuiEc8vid3iUvN1SpvW1FCeMF033ee7HFWr0p2+6B1K3j7qOt1MpZzcxpYcRm8VzFjN54VCvHfiLArrucjWdJ22lqiLiFqIZpvQils+wGaQrCRRVBNCMo8xdVduMHYn8TjC3QH/OPTM6jtcwnS9BDotHZ4b0U5PidCEFsBHU+wmBPligdxugY3MO23FR2z3idi+DvYoTSU3TvFxyIejjUTa/vqZD/S3Y2uvci0D4u4VVasWxrwV2+CzMOXUXQL+zDNaF/Z6WvwHot5YPsDXa4bwhR6kl/dSkOF2wX9y8E8ZNkLnP8zIsG5wT0l3mvgX7VvHur7j4DvtrLzl+YD5O95liEwrfg5OELrvzfv9FEdAzd0UVsvfM9+JEN47Kck1MDgHWEs2AQEecI9JBAetV7yYtpKc4X8wvx2sI9P7yvHUHlG6uwRbWeD53UljDiplwz+GVXWQjrjow2jFbr3AfXXu1CyG9DHbv4nUxcVPSZwYH6XifBe7AUC+Of3XosNLC6TrBXOOimh5sjb4Qo4MRJm6jexuK8pJ+alKcLd5GR+ibbtwEmfu6jrenv14iU3dj6uD0TlvpDdfofsMlc2p3oNYXSG9iM7mCDKCpEVcoFUnivAbOPSkLh3avmwnG0JS7w7eG98EXGeri8H2508doonIHc9g7b41epn5c+ABbS3K/xi2yGZOAnuKMQI+8ZTaZ+zouW6Bj6l67vXRO3f1APVLLlcJthsv0rNzecTnI4Xn0zTAuBcjF7FwdROUXVxHoDuswRM/oUgu/LTectUsytyAGLVDX3m2NboHuRP1UpZBHpEmpe4ozxg+6xTS7/2Kgw47q87LvubdtbCnFQncPfXy1ZHEc4OvqfKUE0NvIFlYHgld65xB5CGvxhiJsr7tROi2xYO5uUQzfOndAt++7uAYcwhyXVUDA34Gtu9HzikA3XRudSWdKT133FKcLuKPK5q/TtGP0dR0G2F27XDape+eZTo7YPNZD+m6JO8sDswuD1i8oXXThqlcY9y8X2xe4HaepSM+OgK7ubcM9dt1wxg4wv1xut+WmWzDAHRDnfrUlWD8nwUyK88VP6TqxB/q8DMPloBkXTFKFI2xgdSOONblJ+pXF56I8j5ygdQEzdfSVUrHcfdtX3+BaHn9Q3guafV+DPR2stJQe6HnrKvOGCnNCOdq7L/MKZ6gczCOgX5PWPcUZQ+yuTfumuwX6czkCuhGEbtzBRYn0oJ0p5TYb9sT2dN4IBQ2243xLrlL/QOjKF/NKC018xQvobtm9LINcBoBeXzhjl2QOMB+W5/qxzgj0Pc7x3clKKsUZgd4f4xyB3lugH07XjExpxSmHq6N4OU7ne2z24ZLpfQteyy+LUqsXzbYqqGQ5cS93/M/N90wAPQMFbEB6VV0kyilnB5jbII/r+f/snWtT48gOhg8LQ7vbHcdO2iEpJ1Rq/v+PPK1bX2wn5CtjaWGAIbVka3mi2yvpKut0yt1xoINVh672++xtdrthBvr5ax10sZk8ps7R95yjt8HwJ0ki94M53Pe+a9u6EMdReoF16+Z/xUo6At1Kyk+g52Lcbjf28aUFMMb628iQX69fp48///vv/XY7jyl030t6Di8MmqGr/UKTne6z3RMC+vULu2uLRvoh191he1xFekhu3Vjx53kmnb3s/snMKmneI8DZBe+Y5sV55YausFbRu0hnsPpGoJvWQ+RuUuVu933Yk5a3pDxyfqX9MVMMZmiPfS/b3ZHzoP5c7Rfaf7ICdh67T0Q6gI6nhFc1sH2uxaU22z5V4o7zDRStLHh6PpyOO2ZwkM14Y5ofzTWNX73Z1iLosFcWKu+0Wiol6cMAJ9bImX8J5tfT2xtl4O/3G/YVaYAtkf6miyHVfqP9Ocsl1WmudEfBTPzdH/Fk+FB10g/FLuRjfZQpDbNVV5tKoM0jzn1aDdvgCUafk/D56qiac5lgq339DiMCvOIALx8l6LvmchgP2Zkj5Nev94zxf9N9+qK4pecaXIzaFXO132kfadezSGDz9TVYOxERGNhm+rg+sZ74tkfaMxPfCXSbzi6SRC2gPC2ss15MsDrnUlBOoLtFuZ1lcyijg0e6GnV8nGHQscGGoKfvXsw41pi/fVSnlj6nGwTveCcdPfrwrtV2td8MevLn07KNHt3cyJwvVTNFmp7GU61AzoVqOvQAcLMe1XCT7WktzgHbDmtxrq6oy1cu62MdZPWzVXPk0rFzHh9CB9NN1svAA7jKzpR/Lij+PE90ga3HEtyHXlxT+732mSL32xx1iN0B9FWHXrTTucxOHy2AnjVykfKYJ1tGnZa+/Jij8wqKCG9FLl1mmwXt6OxbXhzr3CxR52pcgy07aLYVgcFlTIn59X01JP/zfoKXufjf+faplKv9I6AvRtLJo58z6MOc86KXLstgLcXtx8C1eLsnfw+USRf9BaPdT6Ujb5u2fSCYacjru4WajqtxPAULT6EpQb9Smf2Zr/7z8f7+qb5c7Z8Cfb5iJoI+ZdCXpONCqbRSKinholPHhpRFSyk6gh6K8P0F3MFJO14Mu4o5ZfOOHrdSecckvZVJd1NGCJfhvEzM1dT+TXsvi+7TQhlXgj4sXXrf276b3XIgunlGHRcsh73E70R8XYszc3FcIZFzZTgu06pevqA2eiOsL2txuCZOfgKKZmSCHUWwV43I1TYD+nSan14r2+g16CuhOwXvxLUl1PeBHPkxUQ/fMsmxG/PIpe/T6UU50AR3Vpsq/d7NhDFSchfS69qdh2ocsU4ePQcGl28toqttxt4mcum32cJnBv10PX+XoNcdtuOxGFaF46rcZ4twW9jIQsE7eHMLkAvnjzL1/Uz7DhU2Hm6ZB+apl0Y+H+L7JsX6LnfaCHS+yYxtdJ8m3Dv9v6+2HdBPuexerpJ6AHq9f2K2lqHUvHNFDjGHsTETbHLopm1fTtIBdCjBt4tFEylHd65xObZ3POZKE+0+5ujp4NPe+HLR5EU9utpWDBSwGfRpoYCdgT6sjbcsOd+L6B0jd0jPrZnZi7Mt6Ml943IJfsY8YU60w9229KrAoBsLoDe4eIJ2SSe7qMxNbTOgXwtd3Mq65zOAPj4I3YtOeqiPpUtb3VoJ39m1k1kSzYSfHbrjfNzlwnuheXFSiWtT4R1bc84J0L6FF5q22ZnO03yLgq62adAxbs+0T1R2P5+vEfTxQT1O1HF9vWgm2L1k6jYw5HiZzValOPOSP+eU281nV1LsznV3R+R7UMnRKioYZvG0fMLvOEUv90xedA5NbSsGMy1JGDcbbJkE9ArzNRlsKNN0BHsvn1DZnQgPrHOHjjqjHn4AnQBupRrXSvWtrMjB48ilS6eNgnhaJUsLInGvVLmLDnJ0HSxX2xLopyyMqzx6BP02A31Y1buXeTqjbQOMbsONB8zSOVU3Ipc5WicdtrDeanOOBtMJ5dYR3VBczwV4rrvz4wFvit65O+c5diedDHzi0cnLsZeLbm1W2yDoK2tgbwD6OAzrkpm097kcWLWdlYY6yWKZ9FyOi+DFR1HkbtqwNt/iy6o7i19dmmWrBDS4d4o9f0s5u6PV8N5jM81gfy1+80gbKLxPHr1RuYzaRuzjXEpgi8L7lEGHcc410hPlhHmPOXqHU6od5ukYv7NmJtfiLOx/7rIw7pkelkCnIhvrZCL23olsxuGcKjXSG+cdLadpaZ6djkDgj4hw254453ocgK79NbVNgX6SonvZXrsj6Cfw6Bn0MnKnRjqRLh49+vMjCeGKnTMongHAMXgnJayVAy6vyt45BYcxNS9n1OkjJOSOxLIyEAMhPipuPLvy+Gf8eRi5tz4fadOyu9oGPXq9d6IAHfYgr/n0vq/XROLhRcCa4nZM1RP2SQBrZffzno8k/VB+9wz6ysRLm/29S9l6ur9MWbqHy+x8wLGh0J33v18un/oLoLY1jz7L0gX0E4TuELyP41ovnRYis0PH8jsG6nsRurdwkhwNCnW5kQ4O1ravTLKxepU/gmi+6L8j69Gh+yx/rTS0ns8ltz7sJUVPdXftr6ltxj4r0G/lKVX8CKDD/sRhfDbCls45EOiW1HFHys1DnnGRqjvcYjOmI49uHi6ZmRnU8DqYjI1vNgjoTWbeCehpCs5TX820HLlXoF922l9T2yTouRg3VR59GH/QzBwDLkamJVL7yHVn08gq+nRK2ZP6NVAVXlZKPd9G4ahmFymnra34DPrOptcDdOguP7aOCBr+kRK5F530b/0FUNsS6CfZ91z00e/YR0ePLsH7Q4cO/hw2I0M3rbMhC2WCSUX3wKE7XE0XT55RfwK5g+uItuNrKvxc4rPoYDDNSQku+XI3T/B9up2MNfcsoLVup/01tY2Afqo2zExl1f1W5OgjluRWlkQK6Ph5IH27iGYQdZLPxBwdBTSkj8tjbE9i92Tx3xB9OV9GI4PnA6hzhO+o8r5Sx0ugJ4eeDzG3bqf9NbVt2HsNeh5UBdDvNeiP5XFHPK8KW6V6GVKl7a+Gdj9bIyL4aiidzzk8BR3y8o7OLMhxNGI9Poc+ZvlM+kpKn5dYwI/Yt6x/T/Pol91Ox1rUtgT6aXZ8bVrz6FKPO6wPtuD6OL66xp6cGmvkzyVdp9H0av1EEcQvqm/B9t0h3Tmlgypo4NXBpxtOy1cduiTpbUCPnmtxeILxEknX/pralkDPSXoVuse3KYM+LqfSe7rachDSQS9jIU3HWD3kQlygzZAW5e5tPZhOf7GCOdTYU2Ker6N9XRl1OBXVmUpDtx68R3ceQluX4vDgqvbX1DYIOu2TotCd2mv3CvRxeCSaoaVStBIW3uJn0FzrrLh1COQRchsWlOc8vdhGYQLW2IvMPC9hB9jJqcfnYcvS/LraxoM8Z58cus+ga39NbYuh+61Y7L7i0ccHoy0y3HKUUlx3kDXPPMnGW6RAA0ua95AD93alIIf98jXKz2TEOkbvvW2fo47VuKMoYnM1bneJ4bvOr6ltw96qHL2I3bNH/16QfhiWmJNHZ707/AOk77n2TmJYCt2TPs4akcC2+TP4iOU3vn+YM/NE+Yz07hWx/N4I5eLSAfRo2l9T26JHv809+k08+iCimbF26hn0I2jWmHTb2WJTJJbjaCY9iDuHvJ3PM+XI3ZSJOVMu3hxF+fhsmXSM3sGlm73/QUWL+2V5dM1zcw1Av2h/TW1zHv2WJDOSozPow1qSPpS30ovSOwTvWJWrjijzaIuxuA4WYQ/tLFUH8VsgXz5UITtifpZXI6CdUH/VpdPRZE9vUnZv0KM32l9T2wjo53noPlWgT9f1WtxQD7Zw2f2Yg3dcL4Oi9yMcb5DTTIG6bEGceisFuejypfz2/V1jfsZ9V1mGj16dgncA3f4Yufs2LZ3A4J1K7jttpKttKnSftdH5HlMCfVgjvQYdUe/Qn/Py12PIh9dsbqwb1sMS5xyuo0sn+Vvly5MzP53kOeFTiqhz9B5d+uHQvTbR7stynICu/TW1jYA+WzGTlXFA1b0oxj2UxmXVTEQd2ujRseOa567rUuXd8lkmk5fN2KKpTlr2saq/SZk9Pj+84Hyn+67w5Milf7FLf3F3RcLck0dvtL+mthnQz7MuenkbHf1nEbqP1aKZ2d0W8Ood1OQ6GCKFPL0wVrwHrLqTbKbqowPntTNHX06F9hO5coD8zqizS+ck3T5bRsXvCfTcRAfYFXS1LYF+WvTXJgZ9Oi88+qHK0nvRzNB7Z1EKC9oZW5mcZMs9Nr5+CNl5xjxRjv4c3kt3nkFnl46t9Gcu3c9delOSfnHaX1PbDuhVll6G7pCjr4Tuy0PpRYut62HJc5Dp1LTgXVrnmTAAACAASURBVE6rUhWu8OkhufOS8gjxF0btwvffe4H6dCrr7iyW2fmf03QeVOU2ujbS1bYH+m3No5+SR39Geuqmg27GlveYAl1pIV+eF86UU6q2OwzjXOUaEb6eMIP4+ze+/YU/hXUctqkabAT6YP0LeXpbhO47baSrbcI+n3l0lMbl0H21j542wrIM9tDT9rje2o4Ot3S5+s6DqyaEPKYK1XZUwc3E7Fds8IkjZ9SZdYrdUzWOZLDefHWeB9hr4E0RuuMS6AJ07a+pbRL0W+HRMXSHI4srYvda756nVWVLJF9T7VKCjs7cBGmuJZeeOS8mVq5XiNm59kYfa58+Iek8wyZ6dwndbfCP/bnnojsn6TqoqrZNj54ksHd06lMZuq8PsCHohyJ47+S8KorkMF03IZ9dpLp7Swo5i4W4zDn6dXg+t4Q0f1GQjlLdBDqoYNvXO2wigd3poKraZuzjPGuklzk6gz6Mi/2Q/2fvypbbVnZgnZxlOFzGFEVSXGSVpUqqJOv//+8Ollk5cnJfzUEcRaU4jh/cAtBoNBIXlK1AztxR7uVR+eM1tnknJzku3jXYKaFz2U67KzTdI0CfDyf4FlefjLuRPg6Bjp5Sfw70ys3XSDWT52s5dgL08XdANzgPRmwbnNviXXUokQOsY0IXkgt45uCF5Ape4A5LZxI6YH0CLftqUT6uw/TrBrTbtH74wbQ7ZvTh/8nolSHdG/qjyIuqOXaa0QNlnF+6hy4zG6C7/RaYoduTi7ig7l1Kl+Q2IzijW6AjzJH1t134NHXj436/od79PQD6aoCONpFSlH+OcyeZQbzn+VqOnNFDoB9eiN1tn97R3RYEeg+qGZTBAsaVma7xmSZB1LtsCecXyubr6JI5AvnwvN9/PtcTkvBONmPn6JdN6R4z7rFFVdyk50F6jj3Ev5jR1yQZh6z7+3iKp2sDq+O21TvX74pSeo/iOKOQsy6Rxg8WsrpkH5nTGd9u3j2Ugypuvt0fj/vjA94I9HvAynstH74Elsk4Tuml+F0Zb7ZUG27T83wtxy6B/u6z7h8O6C6jW393m8jb7c10oOR6KtudKs5ScpKNn4Fy11/Qk8CBRMcaSyyfBHRg66Z3d0bGCeMGo4EtrZeU+FM2Dov3Is/XcuwD6J7U3TuRbnp0D+iHQ1Ic1zo3WDyVBLfRZHuUCrk4X/LeW05OClpaxQ307mQIOCDTT91w4jGbBvrj+bg/L1De65xvF3DcPjqO0b8m40R8uYVzOv/O87UcewD6mcm4MTrW4gH9hTTuEPfnRiCn0FKqBdtnto9TsjdJXRjtO5hOoAVkeyECDkv28TB9Pj/Y5PWy3DTOH+MCAzjacMGtVbukCrq4A66vlb+FuLCVe8mEe76ommM38YN8HbZXmcx4zS/dB3dVtevMsUPeXQuPOaBshnv1aI+NFtLJ6h1cIFW3eo35cH7cfz5HvsbSql/P5/u1hvL+zD4U58kYSdEUHc84cI+uZJ2q3EUIdLO/RvV7HqTn2AfQNxrY1S216AePjAvn6KE/pJPMdGaPDQQzyszXbPUuiJVD0zgpO1WdzbAMivFZd+X3+22g+2rDW3lql1p/4YNdVWcBHW63EeeulDF7blVC+xp5SXNGZ0aumA/5hyDHHoA+ThHQ19XfXgvIOIL6cLC0+8FV7F5Gh3wOH0fbo/dOL0MeMzhf0y+1zYD0G3flcnwA0D87864ilrnq2mN3PB5oldVK6OgqE1JxfCz9xRW3+NWiKtyhxTxfy7GPmOJTLZbZ5oy+boC+GaVT9R7W7nSiiXwij4x0gTI5PrioC+2uV8s8raeLPb2y4Dzt/qu2JAC2/J3Gu/6SwdY6HlWFz2lV/2ZurAegFgmkw+WmuvKBPudF1Rw7iL+mcCPddOmrc4e8DMPXmhkLb3tdlVZbWlTKKK7chTmzKNBmBgDYy+UwDpfzwAl6WD4eSL/VBubw1fS/v15hwxSgTvIaczoZO3TV49klnKCLJCcnYr8ZA/QiL6rm2AnQx6hJ9z3j4MHze47NJ+IjDq2r3Y/8Gwk5ZeWvxnaixxXVXs7zuZuej88TteTD2+H5eDym62CaArCV7avlOhdzU1dvRkiHOD9gh24qdymTUjib5oWvmSm9Tj0P0nPsIP6Oe3QL9Q8C+xrfZNpW7+6AQ+eR7sS6o4GcRDUsnVCmRVU0ndBAL4fL8/7zfuv4PWQ5f36+X2f7FtLDLaV5mSEaDfUjKenM1ixIbo99T8dXUYbjV+rCS+fu1VIn9LJ05HsGeo7dAH1Np3RUm54vL/J58gYb3VYFmOuaW5HsHT2lUBJnjrHx6YZqPhDN/mmIvWHRoTidy+NbVWuEL/iLkC47p84bDhrnygAdWwJ2le1jvj3o0+uysEAvsmImxz6Abti4MdS620H6+fKqdu86r3r3fWYQ4C2o4yik7zODOCQk1nN5eQD79jkc+evIohGksIPsrGG+UBDWAelQvne1xG+ghUKhEl4nTg+9OfJkXoip99oBPQ/Sc+wg/pvGgHc3UF+tsfsUlO5p3zg/obeKFlt4uwWBHklhAXfAizXNPD0ez/v9VkuavwNxhw7xsvJhDkDH+r2pKv05XbUszRHfDQDoVVnypUbh8W/GlM6cgomBzkk9W0/k2AXQxym0dueUvloNbMS6D1/R7i6UG6MrenDLLTro8mFT1N3zoX+d5vZISzACP/PYV3UDMKcPgjkhXf87qXF+1VDvOmoCirIKMjidabVke5qML3kxvVD5hyDHPjL6RjLjm8a9Ty9K9w6RbmWwnX9UFRk5dZStojUX5ZbY+l6R0F1n1aaWy02n9NP1eKz6/g2POYDOrUCULwbps83o8wxrKcv1Ch9NS+15VZqLL15rblO4dLxctMbGOT0rZnJ8//jHJvS4dtdAx5Q+XX43XuuiXO4V8PJyMXndG7ABPumoaT8v77fLdbZoBJ9Wi/LFq9wxo+sn9RvgXMNcxxvhvCidqSyX7O7iemXOu6VG7HiHLStmcuwC6NM4xruqq7e+Np1ekHFdsKoaTtItIdd1eKSJSndl9loEOb00TS1mSM2ifrM3k+YA4ZzQ7ZO5WRDnAPXZVuE+sCtfIkeJPtGke8ZSGeg59pPR13Gb0Yl1fwn07RUHe8dBGaMZatGV08f1rI+jrXDdcjc6f5srp/A8grml4syzxuD8utRwPrHAyTh35MK16IaCs5cito061O76v83SuBzfP/6FjJ4yjuPSPQJ6PEc/JGxgbU5X7CVF2hmb0PHMYm1vlOu0XtfNa5AzzLFP11m8mV1Ch/cH5twre+LJgNrW6y8r95qIggz0HLsAOtimR5X76m4yBQvpv23TlS7ezWANT6oafRy7x5ni3QCdTx0izfZFKrd/h5/HQK8M0Jl/I6ib50El37/o0QHsWRqXYxdAH6eNChaWW0Zyh/xIAH1IWcGarRYaodNZVeWCO3Reb8HSXedznJe9RDnje+Y5G8zUkJFjnBe6DCjqsiwrh3T/qTvjaNr0+HJ6iQ1+lsbl+P7xg92Z1kjvvlLdDmL302tpXFS528yujp5cBpi41iPjesEZ3QD8RcXOo7U5It8J6Njdg0tMXVp/iaCAtxSc4+OrZFovsmImxw5inMyALbJ9ts4TsL52MSDfdOndhnkHwp0ewCYSgd5K5XvNaMDRiXJAMQ7K4PH6goGbw2c0eyOc6/4e1TKVn7zdQE0aJs428YnIGtgce4i/jGImnKR7GT0Uu6e9J1z5rgzjbnl39nj3W3RZeUC/LlcH8muYzq0ujrpzGqcvsN7Cfs1F6eg2YfFd+bi3w/TUHmtZ1Zf8Q5BjD0C3g/ToMpMDeiCZGdI9esy7H9lkhu8zRYp3QdM1AjrhPJHTfbGMRT5trHI+d+uowhLtUnrydl9Hk3Z9L1WWxuXYAdANGbdp0pl2jzP6V3eZQifYowN615lNNr6QXhXgzYjwRZnbNdmfO5CbpzMvrHI+r017LsOULgJ2jgfrXMNvmvQM9BzfP/42Gd1P6XAMZb19kHLmdenu3VRt+cRiZ2fo4DAjsUknZymaqLNLJABdB5fr17Bq98dqHsQt1B3Qy8KK36SbsOGZVnoizYuWrUt06Vkal2MfQJ/GhArWKWYuhoxLqWCDi0wMdGjQFTNx2Jq3sJnm7rb0sL6GdssE6es1kc49aFu4M85rRHrdFJZxV9JScJU3T/Nnay/puKyBzbEPoI8W6esYlO4I9HW6vK7dt0dVzVitRRMpU7sbiRz36AqBrqHqJuSJzjwo3m06rwHnxMUVlQO6SEXltHKx0Yy77ZKlcTl2EP9hQp82G2ygmKHV9On0unTfwBw/GOjkIyHJ9hk5d2UNYcF1ooF11DT/FvbnrnJnpNceFcddel8lge5UNFb2vsnoWRqXYx9ATy6wYUY362sR7/4S6eQnFWjilAG6t9qisY4rLVWdRPoc5HP7J6byuTbS2bqoqspTs1doLrsN2cGpJiliC4oab6mLKkvjcuwg/pncWotHvb+jBtZttXzhPkFxCNp0lYhgVVWiuQR6OX2Zzl0ip6IdC3fAeQHaV2FGa33Eu3svVOoAip10fw4FfAZ6jp0AfZy2g3QN9BuV7mOU0TcWkVGnjsuqdp/FHGDj2r03q6o6k2q8Fk1Rz68Gax7N7uMc03kBS2u8eR5P14R7rceMLmvJSBfxjaZa9FkDm2MHQXuq08YhkoAe31ON7yeHIG/NmI01sP5KC5ft1jVOvBWYmeHDm6fNURbnJw1C/I323GCAbk2jhEjgPJTJqQMcdLS7bGFqFyIDPccegH52SF993n18vyW3WmLePdWnm1k6U+22ZD/q4C02gbX7zErY2UnZ4w6devO5pmQ+M9sejtGkTI3UTCjDySeOLurvoz7ln4Ic3z5+nCfLu0fiuBtZvI+omLmkEnqI9NaldbSBNZ25ZwPrMrqs3phUC1TsIcKZY5+tMwXdOq5DfbsDuvQfLfqlT8JvErrO+Fkal+P7A32a7KbqGvbpt6TY3U/pXZzSvevJYDzRqvCEg+p7C3VO6ew6MZtl8wDlZmpemJqdxHCJPRbZBystzMf53Jwnj4tPrmag5/j+QWRcasDmNLCX4eKn9MN2lm7ac0/tTvo4c8DhyJ5xZN+uwH2iqj2g45J5CHLwkkM/OWNF8z/2rm25bSSHViaZacO0eykZ4jArWZXK09Tu///fqhuXBrpJ77sIVOKr7LzkELeDc15eX7dQ7vN3Te9Tl8xl6G6AntrboMZFPH9cOaGvA9CFA1szukX6OHUny+T57HBu9mqolDj8QF6xpfRWU/pPRbqluRbtmbeC9Z+sLPfyYiUmhhk74lizDy+jTdyQ0YMaF/H88W3d4cYtktGZ7L65Smf/NU7lukbvVulmf46gerD1sqXl73+PrXnRmXoncgxJRk09g13Sd3lf/6bU4xxBue5y59LpxgXQI44C9HUZD1sa2Z3y+ZjSt69Uq0dibqpxIHv0pvfMKd0j3azTCOTv78R2fZv+VTEODGLcq9zR79pgoL37Hp0/DA5sxAHi+6pIvzqgG7J7h/Qv12tkrEowt5rPYGwWFehvbx3QuTcvRFdiwNGMnX2RbVUOnggH/DXBehkCILfs4Et+g/MUQI84ENA3GTPXX78XpcY9UL7Vo5/Po/rEfM75zKncIB02ojgjd0h/cxvz9/dX2XcTevtASOYJUN/WoxmyZ5amXZgy8nzwQH8LDmzEATP60jL6Ukv3B9DvFzeQO32pG0dYp7K9ykmJpLsHOzfPQ/Wutfv7C0vCoaIXzKZ88rmd3yKfx22dsVkZudQsm4LsHnGA+Gtd1y2VGSW7P4AuKL/viD6f7B6dZu9ylT7P7ZplbNNZa6ZbnP/8WQkyMn5DfEAdy4MBwGT2ySV2gTdAN3Wfkinca78wqbRUcGAjjgX0mtDXq5u8a49eMvr9siczs0WaoWNVs17jFh1tUkcSlUrTW5fUyYituKjUtRnZptPLBc3JpnYp3um7ULJ67dphnMOhpnMzkwugRxwgfqxmke6GcZ+/P6+ldC+MmRIda4ZpM+ce6aweN1uYE+sdwJfvPCyfyrUqc2Grekz5nNtqNKRZdnkBnbdBS+2gWK8Vg6bvVrajxb3Rg30NsnvEEeLP1V+ktx5dyO7EgeVh3H3cpFeoz8MF25yVG/chWT272r3erBaz9Oqi9sKKj3ybRhm4lO1YzF2EcMPpnJ2dhO8qjw16EkBHiEttIg9GYErBHmT3iAMA/eaQblP6I6ML0O8MdJ3G7UhK8XLtPG8Q5EpWR0WslO80kiPD9JLJeZ2Wal9erVfr3I6eDrmBmaE76didkK7K8W4KJ/M54tcYpNP7AHrE0wefrxmcLz017jZU7rZDH3zSmTYj9kzZsGb6yTvhGOXoJE3GeAVpxIZmepe4SfcdOpSkD656Bz9s140bWPUJEXyf3oLsHnEQoBstKYX62jiwhPQ9uvtInPE26eDBnl1SB9iku5VMX/VhEGVwl/lDoblWgCfwozjt/C1NRn4CnWJkq92DAxvx/LGuqxeILDBfZJHegF7b9Pu+vHuX0muDPlDefTqXd0jdeBIQTwJNpFk7msxOQ/gsL0jQandQxCdgmsykRDnHp/PmTC8B9Ijnj2+rS+mK80J2X3iRTlv0+9YwbiOhSy4fVCLBZvPk9unYYFr5MXUAh/xOleao1kdDhKu7tKSHMq5u57kbNfVCk3VaM/TBa3BgI44C9CYQaRbpvxvQKZnfd0r3TgRWcT43blzTjttgw6IkYjB9duZPOK239TsndE7R4Jpz1F7cnKfL/A6Hs9W4aok4FNCXxXDjmB7ngX53Kb03SncakXqqShl9nqHxZtjTQQg0bdaGbbieCZxIA3e0GEadvCPjGy3BXSk1U6PJtOfAQIuV0j04sBHPH0p2V7p7A7pwYKk/N1n9tGer6jRmuEuf++Kdt2zZdNV+mAZVR4JwX+ZxtsrPoFw5KfEh+Yxv5GTkJaMixaR+qwH0iAOEkN1XxrjS3VdVdr8R1/2+fdYyeLC1DbpHeR73a3tVvMngjVqTNl9ZoWx5d+rbUtHdCgCwFHlZsQUHNuJ4QBecL40Dy0C/y4Ztu0nv5+51gd4P3XPzWdy+WpUGGyRRcx2Obh5neK5akTfWHcDUS1IoQ755Jye0bPcAesQBgk2ZzNh9uTqgE9md5aTaNt36OHR+LXNPjJsV6F1Sb8P2zPV5PrNsRFuyG9yjGdOjfpTnx8/JFfrUxOMSWqKNkOQ6i9UH0IMDG3EQoHv/tcXpwF7rIl0PVQfWTOG6n0acl2ncR0W3IB6ao2q2UKeztIrlB2hPmVGOMpCDeqPK3++remG+op230SfzbGcAtJ3fXKWnAHrE08efyphp6u7KgRXGzKW/XvtKU2rWHdtgtAi5P0/XC5fE6/SWhTV/Vzqs+V4dvid+NvAzAiFDN2V3QC+0eOjN0wXowYGNOArQNzI6A/1qdWC/Oko/2YxOdJmRMaMacrZeF4xjGchnd5haKe88SzNeL9XHLfvZnTtNH/p/BO/oYGxbXgLoEU8ff6yWBGspM6sCve7X7oO2+2VnGkfp/KM3WwRp0/tZXLlFrSYuaW8Kj7RjQ2PqpIRYZcQMMM8b92xuj84p/T2AHvH8QL+5oxYzdxeNGV6kd/drW1u2bhiXN43S1aBJgYhUujPOcQPsyeIam42bNvN6qpod691MA2rpDtuMmSC7Rzx/rEPtvsGBvVyGQdzeCdssNy3zuEfPRhXWWC/yMA0VxO7opbLgdD4vqT0pM64fz+1u7gC8UDSRYF/TawA94vnjm6XGLZTPF0ONuxLQvbT7cL/W5u4kPJElrcN43GKGcgP7Be04nZVkePZOZLmqFtkodF5ZNmfYX9FDV7ontoVIcdUScYD4vnYkWOXAfv6+VqQvN96tdeO4bXocKT7TNE60pCBbCQor/5yzHKRRA858V2ys1TZrw9qrJzlss8cum5J0mX57snfv1kpd9CeCAxtxHKCvg/SEMmYeQB8y+mkI16F/NL47teN2KAfGj63l9Sr8qCV4Sdsoh6qGWkPUdyRSexOT0wIh73NsFeVogR7UuIhjhCq7uxWbp8ZtsGV2VWYI4W3LRhCHuT9L72biSp9B26ejkYxL7Skw1deJYYOO3dp1XAf3ZFZsU8voogQbQI84DNC9STrJT/z+1EX63VTv5JHe+zicnFkLwRwe+Xy2idyBPfdI9DoTCRrsVSOSpWNbke9hrkDfzuzozJaFMxMZPeIA8WO9Cdvdm6ouQo1b1vul82oZTlVPp1PPdC9leyHBzh/cmGcY1mxb+lJoDBvspky04riqx2RE38X5CWRbP3NjkDMYoanJ8mWIFl+Afon/BRHPD/Rbq93d2H3xHNge5R017jQKQ5aMPreaOhugz7BrvphwGKejeQhUnfckilOeH0POjnYQ0IYB5OGgq/SpejzSZ68QZPeIpw/WgbUbNu7R11+NGneXpL6Fc79GP/PYnfvzgrKPWWhxYOt4KDcsDu1JNOFk+oYbp+qYWHQCoSvhqSdQEp69n0l04ZZYc3ZimdgC9tdQdo84QIg8pOXHLSw9YRgz9w7nzj3ZysbZK9XZNdCON0M4PGenAZUsBSY5zUcVZ68CUzx7l54epBNIoDUDDMczbew+WffF1yC7RxymSbcGbJLSrWqcI8BuyMbpOI7cG8562aI3qqDFumW857wxHW/z9dR9L1XzNWTbB8CudN8YxmH3C9D5rBI5LoAecYD4frv1q/RlMdS4z0p2H85UT7tU96YyU0VgS6teKHINjLkV8m7RLcepapM8AJ2zOL/c+rjoXl7uZ2BcsqGBOanGVbAH2T3iGEgfyXFlFrd+qmpcE5ixA7nTl+ru7JCe62l4Jc5ANmBsxPcejWYiV4GeO3UpGq2Ra6JbsvXKVeCX9s7NSTTjyp/gwEYcCOlLZ8FWgK6MGTuK0x59uEk/eQO2uZBfC8gE56wxk0fWqp+ho3NOhH7RVsfnSK16ckC3YLfPkGwPW4BN2JQyE0CPOEj8tfYWbEtjzHxeBw7sRuV+GowWecVWgTb7pKu0VU+Na3N2KxyFvnRHaO7JCONtq72cAWsQU/+ZPJ6qpiC7RxwlvvWDd6LG/XLUOL9F/7pyr626gjn3aRfcJdsuOZ035zadt+1bcg+ClrrdAg86oKdMw3ds6hMB9IgDFe83f5XeU+OGYdyQ0TurxTlLo27GYlquZ9hUf07ZTd6ccpxVkQAyWiXJioTgOLWGZNvG71IeVKA3ifdauQfQIw5Tuy8j0g017u//W7oPCpFNHnI0XPM3bHlb4w3RW7GpGg2vzxF65zXBdFvdOc57JpFJNNbqVLy/Bdk94iDxY3kg/Wb8kwvQV83of48asJf9Ht3ZtRSozf10PcNe3Z6M6ARanis2+amUmt2DfUkrBxwNtp3B1g2bcXfgZfp7AD3iKEBfBenWhI0YM6QxMyhPdFR3c6jqM/o8brRhNsMyLeuTa71p9o7o/RqyW4qT/ows28eywbFr1WkV1W21Et4fcY//ABHHiD+r9xohXTdsTkyqK9xpGnfZG8YJM66XhHSnpLLjHpgtqRkmqscDbs7qdGvWtwdpQitl0/zVFeCsYFOa9PBqiThI/EH4Lo26uWL71cSkNmp3v0l3tXs7SS8Jfd5sxLtyflyoY5ORsnpRfaGfEHppKlGZALVZlCKAkA7VfI1uXEqPHlctEUcJTuSrJvWmMXP1qnH2Hv3ydUo3bXoewC6bsJ1ngLLkrHNTJ1fhrNGz/3EcaTj8YJCqnbJ7nbsH2T3iIPFNmDKPpL54oJeMft/O6PuLdF+7747Xc847AzmetW0t2OVHUIfwGzIWNc9/qHwF8eJzc2crl6pU4z8igB5xkPhOyq9SvnOfXsfu12KoOrLdT1+bJ583HNi2anf56gjV5ryC3cNhFIq2vxwb8zVrSp9rfZA5jyO7r3FGf4urloiDxF/MkSlxu8m9qrdf86v00/4Bm8zezyINuUuA+0K1VbgyRhx2fHHa/UXZVPyP153OE03xEafBriXO1yKOA/SS0T8/L/dVynddpFsO7L5bS5nGzb3OjCT0GfJGE94EKczn2pcLYwZh54e//BLkubtiJY+3wYPt8ectrloiDhI/6j7t9t9//vP5enp8QEIURkzqsqH43MvMXC7ePpnW6F7mebfjNogVaxYWfe2S9u5v8i87/4+9a9tyG8eBJ1daksORZNpWt9W246PeyPb//9+KAC8gRcmZeSUqm95M0tPzkFMNEChU7WWxo/8+0jwynoCqvmGiMzLBj0737cfnMIz3z748o13kRPSTC1Sd8zzWxu33NXmgy5ZELRaLcUmJs3Rv3Oqc3tVMDisW+G6CnHQWlApe8juMbBW4WatIpGrJYndGJvjaQet+OHzeJ64/b/vyPFX1D030U0oxs0/aScloFGfOWorVO7W087PlthLW8I2avb7o5Gv6+6aDl3UVtO7WNa7iUCZGRsA3+rV/Vx8P4Pq1fD9/mIpuXOPWzaTml6qybkl48lLDLWVSH2e24GEiuv9EOXOmoLo75/JcyNb9PiW6TWqBVzpftTCywRfcrz3ut83v8/UxDsP9cXjvT1jR+/3sHr2ZJapGZMfw5Lau6XJtqapbBivfs1sn9tTuPbp0W85bE3XjcmBUNIwznnF8vsbICLhI394vl/H5ce575PrtiPzvAxPYZulQtQmtJyRdpBubmZU5WlzV0eyV1HO58ImLfBckhN0SvXIeM7Iwb3Q+X2PkQ3To3ZvHZcJ4+Pjojt3tOY6n3hI9LOlNIlF19a6lXV+az3XvwjhRpBt4OWvdE+Eu0TcNRbboMJFzOYsN//0zMgEu0o+PyzD8GW/99XqduH64XftZRXfFfB/r4gKyg7e73O20bxw81JdX3ktF2kzQi1Avs25AFbFbknqvqqB1rxy2gq9aGJngOyjj+s9h+N/n8PytTtfuY+J6Zxxh959QtAAAIABJREFUiQC22dsw1b1nO3TtMdElBKUXELX20iKukHExlmjsrOKaL4viBdVlojmAkl7FwzjDdCY6IxP86CBv7TaOf6bH+fg4vF9vU1k/dJjDFsvc5yP3Zk51g6IuZHi+Iv+ufa9rkTpGX7qHK0J7isQzvlJVFZdzPl9j5ARYpB8OE9GHCZfL8Bwfv7tr12FFP4au7lHrjhSPj9JtpKrLPSy82USSoHHf3jZC/L1CPnCokLOyjkyHxfmM6py+xsiK6KfTFXg+6JHcZXhcu1uHxy7HYOreJGZxOr+BhDgQ6wko6JCgvKReVamaLnTlFvNSLeP0h3D2DofotZyfqWtrSJOrWEVE/8VEZ+QCs0hHoiPT9aqt0dpYFLv75VqTWK618/Wa26EDOdu2kC8WbMRVriaFW7jTdTe5wz8Vq980YqGd8iXdxCtW2+nnP9sNn68xMiN6Mw5/PM+nqv7W4blLtEWPWL5P36Ijz2uMSa/3tSPpCjmxWyfaNi1u8wtxGoEefR1jREEW6sHx2gSpKqtvh3t0IPrUuTPRGdkAFDMf6n4Zpme6J/rxCJfp/ZqjezPbrbX0RlXKV8swtaxcF4WYWgGVsKAi3zHquHdPrNn0SYtQple3jfsW6f6Lz9cYueCnU8wMhOiX0xnsKPrQFDKhiWuCB7qNWfS9u3xxP+7zl5J/EK3co2yG6POUlcjQ+AZIb1DBtF1g885EZ+RG9KMmOu3dr432lHJEb+wePab6ecEdsrY36cSqdbmyKxWXeJXcjkdRTwktrCrCzZxUeOBezbHdMNEZ2eA7jN37GxLdMf22gda9C6Tu/mm++Eo3ls/SiGALk9fyAiIRmJ7arsnVbxbKdgfUYwZVcUqYjr3abl1R3/7iO1VGLgDFzKm7DRfSuF8un+8HK42jJX1BMGPRSGLsXid9IV8OzKVfmqs501++95VyCS9KeX+ZSsxL+oaJzsgGuEg/P2nfPuH5DulM3Xl9GGfUMo35Eeav4Qc7NFvhaNU0wtmyy2JmPRO170lHWKX8FYt7tcPJq/Iid7V11+gab0x0RjaAN3r71KN2QvT7O+awHckkbr8kmMFiPv1opavpbStnA7n0U32nVN2utOzJFl7Oyrmp34X/H/jUeKKbqr7ZGqZvqg3fqTKywZcDTN2Den65jEh0p5hpnIVUWNtN647zd+A6FvR23xhTuJdjd23qtlLvZWxKY76FpHyilanm+P82c80frm23WyHNFr0qN0x0Rj6Ai/TzZ0x0rZg5nHxFN+V8XtVbX9DhA5R0aSp6MfeSkqts3i070ZiuXjTNnOhoEo3shjG78jlsBuX0c6rmu8ISfarpR/7rZ2RF9OMtIvog+wNZpMe7tX3kOmFZbp1g/Xrt1cxdM3I3Z79aM5QMv66wflH4USgPDGLynhO6ZYfWHUt6yc4TjGwAF+ndNSZ6f4Rk1T64adnbw5Z9bCPVWK6HRrDy9eR9pykqZfREV2HySmhUEX9Z4QfsqI4RQHgRxzZEvhPVhp0nGPkQHTLSuzEkulbMBNK4Jr1bo507dO+4SW9DHaxcIfrEUV/RRbG6Tbdfy/PcDNcxSFnpX7lirlI8n1p4co/OwcmMbPADiH6+R0S/vWF0+nkmlwkncrZ31+Vcv55bU9SlE71TcquZUmYXmDWbgzOx6PIqA0eaqemH/HPMRPe9ukrmMLmRnCM6V3RGXkQ/tTHRH++BNC6u5/twGOcrurS+cW6d7m5R1FKi4k6lrGBXPJ2tZhYqucJ1uWnVlXmML9Gc+D0XJVvMMLLB114TXT5DZZxWzBzQYyaZzxJ7wDZm7r5vSF4LzONqcluq0rGoyhJdkn5ekWjV2PPRbMpxDmdYTSwlYdSO8Ushw23rbgPYBBOdkQ2+QEWPF+n335TopHVvF4RxMIsL7lqgore1XExfsgTe7ZIesEHYogpmc6akC8hKFSJd96uFgu7S1wR7STHywTdN9PNnKIEFadzh5KRxzYK9jBfMYN9eE6bDfg1sn5d36MKavkkykBNE7qZCiSvxkzALc5GQ26CLhRB1uz6P+8XOE4x8iK7NZGaL9PG9g2nccSla0TXuDXmiU0OpVlJYLXv4EsexW6H0K11Kf55uFKzKkV2pIM3BbcqLtKzOdgWph3ppd2yiKpnojGzwUxO9O4wh04eipx4zYUrLHg1gzXqtsUN3WKO7W9WWZCfL+WzdGbrhvJwEpemxWkWErJTY5urc/dmiV5yJfFkax1Vb3boz0Rn54Lsmen+IFTPdOVikR8pXS2+s6fqahVZ0P3eX3rlVzoQuRqKq3HhNBao2KnOz4zk7brefpFbP3Jfn7nDYItg0jpEV0Q+nrruH52uXm0Sin2Omt6lzdHfTgm9089G4RJpL1YTs3RBPueMzoYiOVYT/qArPefe7q+6yazwHDSxbzDCywQ/wcO/PEdE/32AaNyd62ue51V27LenQukvr7279YGP1jDBvaDtjV2pHH98VTtRtYReC9O7mH8Srq9ZlogPZmeiMfPAVpHGnPvKY0YoZYj2RXqETppuxu3mmU99n2dLzFqJ2BaaDrg1krEKEzTtEoCojdPM8V5irDJ+g/ivRjeEzE52RD75oQp/24yXYsEVEtyW9DbUyXjADs3fiEGnDHCRWd8d0Ocs+1kTXbFdOxGoiULXKDZRuxg8Ka7vhuJ3Zv2J6sTB1h4R0JjojI6LrRdpJTUSnNV0rZoj1hJfMtIlyjhO51s3dken2Mr2tiVez3CXW3sqQ3UrVge8TlyvguVW+2Je5/pZQ1XX1iudyuaRj+75hLylGPvimeX4qIzcps0h3RCdJyU2c2uBP2Ijtc2tMn2tMYSMCuTo+TROmfUe6Y4du+B1ylVybt68b98Xm3TjHCSY6IyP8BKLX2tr9Mrhz1aHsQ7F7eJxqPsRUt7M4u2GzUnfr8S6ljOLLbU1XSHRhm22jdWllRdWrhOl/YS+3/ErfYhfPRGdkRHQo3efP6Y1+v49BKhNdpO9pDlNL9K8JmEc6BijDCr0uJElaEWa5RvlonJ8iasJEDiPTLNfd7D34ZiH/mugmgU2Um19sGsfIBz+A6MfbMDwfRB93iBUz/q6lTb7Sw0xVW9FrXKm5/GRJhXFzPjqqFz7R3NG8Mg91YYhuvlPIf1fSfTITu0MyciI62MN1t3G8jzSVCRQzXRi/5qZx7SpqK41DooPpo6yVuUWVc+f2kIozepqJXEU6d1vORVr/KpaZXpVg9jz9Z0omOiMffEUfyOt9DFOZ3pDoiQwHI4BdY7pfpRdkBEfe6cBUOa/o9pW+cGQqAtH7Ut9upnupDVtVitL2CEx0Rk4Anp9OSHS6SO8OUfxa4BW3Utfrug6J/tLwOWB6EXpFhL+c1fTkQYvwxlMioHpVasAbXXDrzsgJoJj5ON6HgOlPs1+LK7o7XGvaZqV3T/FchoJ3mST64imKcLKZeUlPH68FgnrPc5C5A5jojIzwDRQzxf0SvNHvE9GnHzMzKULzZq1tb1HtHtuyB8krSrw8QPED97igp7t3KXDIt/SVK13N4ef0SyY6IyP8BLV78bwMdzJ1B8VM5xfpwRM9EaWKqlf7C+zdd7POHW0i5b+4KQ0XYyJIabBTN1+/WzCLdG90/Z+LOoXS/BBiw1EtjJzwHXt0HeIwjM+n4frw1ndEGueLulXLJFZqtc9vcK17vYusXc0qXcxW4VTu6qXpZVDfHc2F8j5ThTBLeSGlUOZaxtf56CsW+ouW+sPmzH/5jIyIDsGp18PxcR8ut9/dY7zoyn4+6op+OM72awsLtjoEqF8lzVOzhjAohTWqV1UsvKZX3unkahWn9/rfLaC+gy4Wbd5Tly1FWepvKBVyvdzzXz4jH6Bi5vR/9s60OXEkBsOVyUza7QYHO41twDjgilMc////bXdLfdrk2K+WMmEIyU5tVepB1ytpODW7+j6ejll/OW5v12PTRo10L5lxyyZcUl5tNjHpZs8zjw6q2kWu+HdhxHCGQiyhsx/F78wOrTJbe2fh2hnGkH7fS0fQuf3LcC6UT88IdLIFGTbS69NpOPX16ag+hm4/DL1J0oPVE+HuiSpSxiUBO4C+mT+xKP3aCQ7LmuX8nbSv3LqN3u2Od1elY3qoLVlKEWTpMCwjICGgK4tkSwS9rRXhw3A6HBXz9QR0GGGr5qZZNlHrfLPhZmRtwrmMr7RI9OVc/gJzaUmH53ishTNbgTMRgr2cPNu8E3BDWYNe0E0msgXZE6x2Nqxr1AdN+qFrlYXSOHt1zS6aKGPQvepVfybNtGhhq8RdzwyumMtv+ufzuCPrXhADbXazwgKOt7G5dbC5r/LlBDrZouzZga5Qb0/DOA4nnZ1Df22qmLE+vZwW4t5MT00vhNT3V6xTN5hHC5ol7ouTv4rZY9BxsSRz4+y6bg8pO26vcDI5J7vjjvQsI49Otix7CUDXgNfDeLsNyqVHihmfpVdVEr1vgsOKCvANf9Oo64UTmzh0d2NnmEjLcPb8/zFfFMl0q2TcXU32klj7lSV+3TdZxgl0ssWCrlHvjuNtbFpjgTQuEsdFDr0CxjXeG8O4pj3srfm7C+hgJThjPS8qf+HX+VzDDcZbAWg5nYRz7y3cE38+jbs13U0mW5L9TUA3rB9PXduG0ji8vlYFivdghqV604i/cR24w2Sqcu3pLWQ4rmT51NTBZLiU3qHzHxbkpiwL9Nwy6tTZcVbhHLp6Zb1qhnG/zgl0sgXZv27CuU7WsRo3XSblN7+GRXdFtgnc7QXkNx4F7vb0ApbLTHotmZACtsj8NHCXD7y8K7rrNnmQlbvJV6G3TeJr67L7HJtdTqCTLRP0Ng7gNefB6okY9MlIKt+8FcXb/EAqHlAzXTUXqeM1FueF+f9K0sUksBdJXO+E8uqh2O3FfjsMn0O9260JdLIF2Z9uGrsb0qG/lmIez7NEutc4KU+66DK4mQb9MQE72oXrjP/aoYswfhd8I1D6xqM8gDM3BLc/jpthHMfPrtw3PYFOtiRr29Sl61cs6MmxlrS1VhX2ANPj8XDpP51QFU8zSNjgJjFvdw2z+VIcn3Xl3ApgipzBcAw02vyPC7wFsWbjqLy5etiu+6El0MmWZFYx04acp6Bv528x2W2vunmusvS3+TUyVSH9KUVLOupWFeUmhIfjK8Dt71ptdpMkx066sM/Tw4ps1x278bMd6/P5OIwdgU62JEPFjHHj5hPq7V3cX9vOTKFHsXuRenHpnlUFA7VMOE6uy+0Cr6thj41/UXbnX/l5Hu2QnV5HF+YUE9uxz8/hs27Og/Lqhw2BTrYke+kCZVzd2k/w6G0/W3YP5lrQpXPOiwerl7V+RsaXzbEIJ6yHF996cf4gP+eebv0a59FmSGziqZhe//yuVFH7WO4OivNjvSXQyRYLOmKu6+1drJiJOE9dehGcTJ3L0plEH+8uJUINzq5Zd+E8YzKtuvEvCu1xzS3w8lbmzhkcYFKgC7Zujv32vG/Hw2Ho2pJAJ1uS/e3a0KE70NtZ0NMZ1cpxPpedg+pVegms9A02DTtU4oR0d9ChGpdA+4h0MVupS9dUCZen52Wz3+33h6FWoO8yAp1sSfbPBOmok7E+3Xn0bub8Wog6HlmbGUuV/hHm1bhEeZzAtVDakzvQQTUnp8W4nzXYLejCy+VcPC+wHsfWfGyGU3cch5KTMo5sWfYHB9XQpTvaI9A95o5x0Ls70HmRFuNkMooOy5+CDroU0F/TVTl/Ad0tkvE32X6ug+diZim8UC8b0Pf15/g51G/DcZ8xAp1sWYZldvDo6NbrOvLo8Z0WdyhZfZS6tYa615neeViCZ9ILZ5jpbAutghXwadZFWML5NwthhZO7PazZCf9z8KOC5auTcubDabffKU9PoTvZsuypbR3rbescOoLexxfSbdHdMK6px9VRxYxMBsG2S2WsQg7qbgIf0KlDQY7JQLkaJ+cz7Oci+TafJvNcwGIZ/Y/l7HQYh7pfw00mAp1sUfbsMvPahe61C937MjzIZD264rwytAe1uMSt46IomeTs2F9jkKAzm6gLG7nLYAukZ5g/cvNythQfl+YY7p/Id8MwdLs1h9IcgU62LNA7S7lvsrW+7F5GUvcqdOro0W17rYhOIvmrKsi78ebB+DkKYFEGq1N3IfyNhmQALU7WTW/84S1GID/PjVLOXV1Ur+2HcbPT3xLKzxPoZMuyl846cUu5eWzMy10TRu6RLs7k6OoR5O5B3V09YwW3R9LsDSUJlxXM0lYgXjitO5TkpPDS2MA7y4dZOmPf0W43zADuYtvvbHJPY6pkC7O/eiK1a9pUGgf89xO5jMNcc66D92ITl903BQuVcFiak2Y7BO6LA60MkyI06YddfiOCfdhtc5tleI45fLbj7l2CinFkyzLdSD8Ohwo2PLueeiiNS0vu0F5z/tym6UVyackr2xXfQoZyGVOHY0A6i1j/0W4pIYT4ptmW62G2HP6Hcs5ZoJxhVIwjW5796drueLveb6eidwOrWjHTIehlWU77a+jPYTNkxHkifnUKd+Zm0tlEGufa6WbSJaqxiUegi8fXGMX84jjT0XMbnwl0smWBrnkeL5fb/T72qw4wb30jvSzLcm6/TAmt9MrV4ibyOKdsl24M1XKOV9DM+Kj36bY+p9lH2s1migR3Yf/4ZF08EsPnuDGO+bKcziFYTsshyRZmBwP6dbe9Xa/3066E8rsHfTsFHZtrBapgi9m5Fhw/dQNr5q6CEGF1LczQRZyxM/uJihcR/Rf4ipi6dhFLaXigiY2PsRHoZMuyJxW7j5eP+3A+D9fLdez3jQG9w0b6LOmFk8wEHbbEn/ujiBIEMiCIA39tHTJ6dBmm6hPirc4tTOlZ8AOhLxdT1RxAbj6FZZ0OOJAtzJ4V0cP98vF+uW3P7f1yuQ/7lR1r6foodnfiuMI69KoCFezMXIu9niRxeMWNmUjhuDSkG92M+JGx2Zemnjw6weSm4IKDbAQ62cLspWsPbTd8vL+/f1yH8/52uVxv/b4zmhmtgS3LuTzd1OJChx7PqWJijPoXEWjdtKg9kKsLxsTvLX/0PvBIBs94fKapoF882bLsrwK9PoyXd2OXGzvX14+Pe9m0s2X35EK6J50nlXcJNw/NLhlc/sjQsWO1fd5D/y9z/04mQkGNYMlCCjjGzulsMtni7J8C/VAPCLpy6/fj+Xy/1L126V0TzqJjGQ6Cd3/AoTDVuHSZlD2WahppcdssSr3BXn8bsed57Nd9zs7iAp1II3jTWt/SL55scaDXCPoHsn4Zz2cI3dsmidxtZh5cXquKYjNDulbJuHXLDPdAOoc+9eevr69zuL8+CN016JZ0Da/nPHojiafc3Bm2vKdfPNmyTK+eOLSnq+JcmUX91vRmsqWJi3HV5FxLMKoa5+mobGdQU5deriKC0D3l/CvHvgqS81yPtTD7pdbc5oEzF3EXLk7UzUf+RL94soVZa0E3pFvUb2dYKdWXCenFDOlWMFOk22DdOCnw6LRrobvORJapx9fXTLxmry7X9rTmemvEylXhcnDoDIJ3/36hy+yGfDOh9rUQfk2gky3NnjoVup/u75Z0YP1qgncNuvPpRSiUme6HTIN3N4liF76GJXb9t+ZbPWSa9AyRR8LNd4wPX0XkK7jtE2UQv7uYHfa3a9a/2zvFGYFOtjR7NqDf3jFJR9QB9DYEHUmfOdYyK4P186E2XPdiV6Z5RcTBVhZ7T3VmXDfG6/r7ylHnGX4NpEc1OSfB+X4sJiPQyZZmupFeH282Zsdc/bpPPTrG7QnoTgY7UcEyLLsLHCcJquPGjceg++ciYF2DzkyQvtLfMT7cuHIgHXDPTQCf53EH/UvcKUcnI9AN6hfdSO9cf61Chw5Da+VMOW6ijrOgh1U3/MpSnRtPjg7dPtXvAQwzd5EB00Ll6Oa9Ic/hj2McsJ9gHeymyGekctkz/d7JFmZGMdOOIeia9bY0Hr2xG2bcvFpVTgUzs6DHYbtPzbXe1XnwFTys9aMyeB0qdOqNQCfq6jVNOjpzXYTLgXXLOVTicjeBOj/WFnt0Ap1saaYb6cfWK2bQhp3tr1nOK3worPwVJDN+fC0txpnVEnEbTTOs+AsidsM4uvUV5Or4HmD8t35xla9W67XGO8t5obm3oJuIXeft5g0gZPvrihyBTrY4+6N3zNyu98Slj1B2b9yganQd3d9qCXz6JhTBToZRbaE9D/JxBfl6rUlXjysN+WoVl+fMMwVmtloD2wIxhz/QbMtyy7kQ0Rjbw7tt+Qv93smWZnXb1bfLJXHp/7F3bdttGzt0NWmr4VwYWpJJiqJ0TKqSmvb//+8MBnPBDCnHfSYQW7KVxC9eWxvYADb+mWBVNc3AutQd1TjSSm9Cfy35Q+L5BoqvOMTiC29FgG6Q0o1N240OWE+MD+8KAOL4vaN1IQKne/ldEnDjXcUM9EtGZ6BzbC5+s5R+//nX34HS8flfYPQxecyg6G5RjjstdX4hPTvMdCQW7WkkNUjtWd5OMndjtM/d7YPy0hzk7liUE6g7TneYx9a6lPEqy07tvtRe+51/7Rxbi+9gPfHz74/Lz7+C5o4TM+NIRuP2Eep7Mh6XkB7HX4/H0uTRC+0qttEkMjXC2yCzQ2jk9PhmoEVI5rXP6Y1T5oIeJ2KrLQ7kUK+5BP8yiWegc2wT6PO//47DMGKTzQH978nhvAC6S9vJbFwi9EMd3V8LK9coxDl9zSXeCHIpTcS48c+0ShcJ4vRFKZPwbn9Q5HSVOmk0bVcr7XXJQOfYXPwJx1ou83zpj8P+/jMk8PK6zujZsHtk9EPV1LnPc/R3VHEEBpNxmafuJgO6KYG+DJMa6E6Qk4quqK5dcli8Kv/gXzvH1uJ3OJ089h82+vfhdPH6e38s1Th/X5HOuju/5+bQNNWhSYbuaBWHR9ZSWw2BrhcVeoS6xsdA6uuIh7eE1ETH7D0eaVLqlQd0fp9RMNA5NhfQSAc79/PHPH+0nbIZPCjw8xCA/h7b6LU/ulZTQj84Qq8OFc3dj4nPcZY1TsPJKKcTShcR6hr+/ILSU/YOQzVYoofNc/VrLU4Jw5ZxHJuLb6O/sIhQv4zv6jj//N8/g6vRCaPXfjiulNybpsoPqdIynSpxClN3r8ShDkeq9BS/TN9lkuL9Ehs9iP6LkRn7/xjoHNsDeh9OqZ771kIdaN0M8/yep+6Yu9Meesrb6WF0X6UHmLuxNbHoqmWULlKVHr78GtLjrqokqvtuafVeQp1NYDk2GOcA9PZsPy8W6nN7PQLOId6p6L7fA5/XLnf3QK8c0A+Fqfsxjp6HZphSaygXCOqS0r8OdPejpSRbM8vbqwty5+U1jg3GbwnoEP0ZoH7pOiD0aCblq/QwD5eA7vzi8ty9yJRjPZ1DPAHdZOm7/jrQ4edpIReGz+Xka5HMs8EMxxbj+4hsfg4BGfx9vnaO0a+kvRajRl9IIPR6YQp5pFuhakdgLpZTcSFhF/+N0eOEHOy15dbu3lbqM/2dd1o4tgj0vk0gx2j7eR672EiPLs8e5k6JQz6v6qapcy2OUqmfRi+BLtP460KLg7H3LwHd7bN4PzlNF95fDrkrXl7j2DTQz4to25EyejzHVO9r0kGvnat7hvOUuUvM21VIspdQN7E1via6S7Ei4hGk496aDN5ygrhVLRbWKt5p4di8GOdxfsEIUPeM3qHJ89s+W1mLw6+4nhqz9nSowdfFSTMTS9097KiKIncX6/V8SemuUyfXLzQtFbj0AgOdY4PxrU8gj2Ff6ZHRu7cC57ZA38fcnSyh+zvou6rK0LUKcvF6Pi5V6J//N3CQw/U29JCUi3suZBQu53cedefYYPzRI7RLrDug9w7oaB+1X0ju+7C45nBuc/oqNdby/tqnOP/vUlzcVXcteinky5OLQXanCh0vr3FssURvL5ePC37SaD2jv1NGr1Fxdwjf50CvAP87uom+wzsLeeZuxGqHjYT8Ap+X1b5cgXrZZ4skz6PuHBsMy+UfGB7r/vnchYmZPfGCjI9lD/14RKBHpDujZhn66DKOuS/Sdjrtboz3nBH6tQ63hnZos+kFzlWWW4SveNSdY4OZ+2iT9oj0BPbLxQEdJmYyc+c6W1ClcnvVVMfFXHmU416l7dhg865SJghzX+fysOgmwTFWv9LkcmWOgc6xvcx9bCPQc7B3vr9GybxpqOZu03bM3P0ii1qU6CpZRMjVdDxj8UTyX8K5DGgPbnMW6HpxeFVl7u58p4Vjo0Dv2jNk6xBzlsPHRvp+eYQJFXdqCekb6FmJvsNzaZ9pccYTuln6yGml8yMun8Ddm9FoTcdnVL7VxvMyHBuOP7u+xSp9ngHqc+T2vgB6k3zcw7hM453iXGvtuHCRcvZOlQruUfKF5h6AHtC+4HOl11L+mMBLd+QBGV1plbN6vN8qw9QMA51jk0CHCw4fiPF5xicH9PbqG+mpPq8bGm5UpvY4rwqcoxwmFXi8i7xGN+RTmCi6U/iaz/vuaZddSBNZH2fkAtzLkLGY4HkZju3F7x0g/YyU7gORfs6ADjROgO6s3OniGvGJy2ybYMnlxV4LmYtL/XPC8LnwRt8FfFVvDEn0cUgO0L4EOh1053kZji3Gtw5EN5e9zxnU5wD091Sb1wTnQOhpWuaYbJ7pUJpLmJMWZ3K2NjR7f6XNJWNoQ30q8IX8/cDfWkZVTq/o78qpg9xG59hgtF3X+fR9Jlj/mL3s7oGem0el04qZfxRK72GBLF0yD7q7ejUCS/g8rqivmMWSxruB24yF6ZQldGBzrfRa7q6wCbCT3F3j2GB8t3jG9P1CsneAuu+vvafbS0jlOdirAupkeQyPnxKXiBX9vSjNTUHxMW+nyT222vUwnQ5ZM07DzweLupWOegC7lO/8O+fYphoHSF+B+pg10pv92/4AQD8c4t5aVReekLvjjp5Bw3V0VU7MmDXhnfTZktpWAJ140Wg9Dfd5WAzHS63cveUL/LjHAAAgAElEQVRl7r5zl9Sl5DY6x0bVOB9j32dQ76/ZxAyAvSaMXtUVBXoYmYmda7dXkg3MxA300hcy32uJI3JrSA+7bqdhft7uU6jYRVxih8b9epnuB3K5u8axUTVuHJHVx5zVWwp03zr3SD/AR1WI7nhdMdxMQf0rHUrLe2u6tIozFPKiVN4NLdLdV0P9vAHQ4eLDNDQ6/Gst8Wirs4xczMlJ3kbn2Gq4vL3DB5huR6jbj/MVkvcO+2vUaKJG+9e6TNy9FEdGyyPAJPGPCqRdur+eCKOLwN4ms5tKO63DFYGu1TBd5tPJA91NxALa4cHm7+Rkk/OeULykyrHR+M2hGSk9Qd0BvaMTM0mMq+rGX0+ty+5a3A9VWKNLGXCer6sJkqOvULqhZXqR3Hug7xHoajjdHbMvh2w0sLvyvu+2PkfFgK83cGwzvntGD6zuMnhg9csV4f9WnE5NI3FVtQL0Hd0ocWKcP2ceNfa8GF/FObWgiJN09K+GygFdDOb5v+cw5CU9nm3VQghiNOUdaWv+jXNsVI0bI9Rpsf5xca/4RnqTAb0pvdwR5QHnBOuZrbswdANdrOO7NH8mw7IkBumArqc7PIWyQNH8XevQy3fPKP/z7hrHRuMPAvMAdjct16JMB430phyXOTT1Cp9bqGP2rnKkr91J/oTITfKNhCc5TNNpV7wveKCfhuft2QyhGa/jTpv7ale7fpuUuzAuw6I7x1bjW9elxH0kGXw7RkZ/o0voToV7kbkfl8skSr6CeXYfPavFEbfKOUuZ6f0+n05aZPn+6eSAPs2322MqVXon81uo18fgAA+WcQ7nhrU4js2qcQnqMX2337U95u5X9JJKy6nNYp0lE+NynOfrqQsXyILQ6TR7VbmnaX4+LZhjyg82E0YEoD9ut+sUlHmdD8jbtx3hc4p0G4on3Tk2rsYF5X30Q+7nFl9LG+kNqdM9zA/HIkqkv3aBJDSe1lZMGIo1Zrezr6jpbDn7duun8A6gwU1GQc5ugd4DoccfhDdeVPCrUK6n7q48gOczAp1Fd46tqnHXiHLK6V2L/pBRdt9HlBNrmbw+X6vQhfgkdU97aSYts9FZGqjFHxbT84T/VGtbsQ/VwTH6Awj9MsW7y/mKi/OG1dIddVF+EJcHYDk2rcZ1XSbEOYD3Duhdsp5YOEgRoKvVxF3pZOK4aJiXUzOkQ5bOM9ki/PGwufsFcnchq9N0mu/n4eAZ/Xl7TqflVXUcjgNCl8DpCHOg9BNrcRxbVuN8gZ7UOPvYXyjQGyK9O6AfSz5fWRYrh1/XbqEXw65+sh2JXp92Dwt0C/X9YL+V9TTcLcAt7BHoM1B9pdeQrv3srRKSLsvyACzHxtW40ePbM7v9OI9kI70hRXq1mrgvsK5FcbshEbgwy6kZkS+c2+8tnM8W5I/7E3h7N5wmaKrZeE4DAP3p0vehorYUxE9ShQo9AZ3tZTg2rMZduyS8x0nYsTsj3qP1BLL5Idi5H4sWuvIfCHIF8jiZfqVTr4aIcGbp+ej/aprO/TSC5P54nqfawv5tcDi3+fpuwC9vDunK63CB1Z0EqMgh9RSsxXFsXI1Lmy0e6d0ZjWC7a666Hw6Hoj534Z9+ED5PYlzS1YvBdWx6y7C7ImMpL4buYfNyqMIfT5ufm+HyvN+RxW/P92F4AOJvyOlK66zGRwc5Vzf4iTh3Nobn4jg2rcZdOxIIdQB42+JoXLCecGLc4dCUQF8pz+FCEq6nRqQbs+ijGzyenNlJBfhPZ6e1D6NF+jydDAD78bzdT6C0P98coz9aR+v36aQKG1ntoI4k7qQ49IXkuTiOjatxSXdPj21LGT3weVWtEjpQ+Y8fjtB/uOJYE5iji6ssfSbsX+PwG/w72ke3HzDzBkrb8H/2rm25cVwHVu2eGtIk5fgSWyIsKSIdSjO7//9/hwAvouRkfyBEpRzblZk8pNoAGg30bboYONM4DVk4QHV7zOiOfijspQe1TFLC0kJLxLlkqwNc5eJq/GQ2bpPSM/++na+ddoZroUXf5PG3iPQglFF8T7qLl0F6XEcVBdJjCR6BLg/aGDcDNAshWjAC+pmAPht6ERbTywFdSujFSXeq3qsurkZl47bT9DxI3y+qXl+AnnP6G0I9Ij1uia62SbFOf9lLiyX8Xi9nJgK2VDDhsBwwoy8aGMNPgAx0KuSfywTbO3PpjlRk3LOhat1RrfGT49f40qOv87VAu59OO5yH2r0YqQWUrzmdtDJq63W+WzdfZTOiOOnclEAX2ix5nDYb/6FBQB8j0KX/7lt4w0pnVUI6HngXaTmVxeq9cnE1fjgbN5ZAj4vo63ztlDP6tUjohPUV6pTMc0Kn821fGK0VtLtoduDOPDzusgSg80C+QQK62gKdH/VVGa01i3bLyVxd8UTHFUCvLXqNysaN24SOT2i+5t+7vRbu8U5ccWSCYE4Qj5ssqrQxb7KKvVTHJE5uw5kHR5cE9CYBnYDdKJ6AHoAvj1orYDfVrGp5QQyBipO1IJchpNcWvcbPjm58Ld39U6Td8dVYrKNfr1/dlXlZVfvWIbHs0UX6Hk+6UzNPaBXMDKF0/xroiXVvONPQuGUye7u2vMcikz26R3v9S9eobNwG6bSfeseLz/7puA7XTruDE3iKrYS5TCsl3wOdi0INW7DxQZyOohkwRsCw/AfQKaM7pc9HOOrJztZsfd0U6WWocmcB6LVFr1HjV9tuc3pI6d09tuzrdO1wLDM6e2esyOcR3gT00hZNFdcgmuh2XC6jCxGWWfBKhWBgejcBCWY80NUO6KlHv9ib0XK4tPM8GWuh2bmvqnAWEq9I+YdwX6a26DV+PBu3Q3kYsT3i83NO6KdTkdGDTzL16Yjt7yv3oIQNgtgm1+jZZoWQnkxdzHGmCXoEOt8BXdGA/QxHA0eA3jk3uwkz+t6BlT554tUJRjm9tug1fjobN7btHuttnK/hO7fViem6rd1z5b49qV6k8SRgiRN1LNOjTG1LwBFlBj6dx/20nti2L4COd19BczNYO3mI987OcwurLk7wdNCdi2isGFr0c/1D16hs3Ha+Fr49Ii13K+66b3Fetugyo1z9R2onwWtedmnSlB3fOpixbz2erQe1Gkug67VHBzuPhuvz5ObZ/6Q9T3c3QGj6wy0p/PWS7kiFA7B4GxITehW61/jp8b/bK8z7drx3Y8joX5DugYzDyv19Q7orOqnOw8NXWA+VfFC90sJaeO3/NQxPOiZjxufzxoJDwxbouuFHZcB/JNjFuYsv2wcD0+QT/MZAGRUzPN6gDWYxOFyru+g1fnz8/SJ3D4dgR8ro4yXW7oct0FcyLhDtpJPhDWHdfzXfoTzV8Q194RX2plEheT8nw+H+nCFk9D3Q0SpV+Fedh7i9uOmima/30/C9+C0yuzFJot59vVB30WvUlH77okdvu26kVx7o6dbzRi/Dsi6u4OJU/FJqf68x7a0KnvddKLXjwUdj3mlfBUUwuh0g9ug7oDdCCWY6p62brIMWUznfXpTGF4quWBEbF8yYEOh1uFajxkYFmwA/duHiczuej5vNtYR0liySt016Kt3Vq/Mh51qLlH7JZFUqY4T17TZwBPpgmDzgEal2C3SzPOcRFPPPrK/Yu8dsR/Jc42L/S+getMgJPellauVeo8Zf7W6UHiTv+bR7Wmo5FKz7Ic3WcoeeGDbEOPkscL4be3lUM5ZreJ92cWw+0675HZdOlxv4flpysS/dmX0YuDQwOjvfr4uF6QayeUnn+Trkaq8YXZzrRfcaNcg9+TWnt/dQwudB+vF0OJVIXxN6ATfVUDpXVLtv0y0ehMIT7XFmjsBvaNF0idvlSwMh1W+BDvoERih96R4+nd+MswBa8s0Jm0Kas3qoyuTVXiv3GjWIjesT0ld31faeBunZkOlQ2CsWpydokUSsOlfVENBfcH5ePpBKj1cbpTD35eM5D6hoXfB4zIJdN/4//idXoDtomADNYJqxN7+N9pqL/61FRKD6RXlyOgC9cu41aiAbN/b9a07vujhIP532TXpWu8uXnI61O9XvSc2e4Y4UWwQ6AzgwMlwaDR2IWiQ+aAitOxzjAjq4+WrEQevhbrvB9/KPi74/gKQ3XOS7FjGtx5le4dCO3QXehayVe40a6NfSb5HeR6C3YVH1eHql41ADWwA9J/QAcUrpKm6nxkCKjYDOtDlOCg9E+Yqd+czuMX7GhyOE/h1OEegnZaCRTD9QINONbtIgFETzxsjgv0zxYu2OepmY0GvlXqMGRtS3b3M6sXG0v4ZAP5S+6Ekx854IOZExF1I5Vu90yq2o37HzxuVSocHGptzAQQpABfvoH5YrBIFsLN0b9SYOwC8wOOum5W60r+JXnR1fhXUr5y6iApYFSZysnHuNGiUbRwfixnEH9DBIj9boqzN6mK8RzkORLDYno1SwRNy5NCB8CeiIaTob48yBG3N0vkd/wzcvIPJPLpNRSveX1rXG+Zod2qtoNs7IQVG7dWaOW6oyWKiyOEWvlXuNGhi/krniinSUzEQ2jmj3A7kxHUute9mk8wQ5lfr02KWvgQW5L92lYc/nw2B+n4wxLRLv84BpfRkhfGBAOzswrFG6ndx0ATvbHoBLztKd+DSky0m9GK4JnhRxkXOvOvcaNVY2jpZSL0VO73bzNQ/z0+7EDJP7nN5wmbzMd/aHcCWg4wqaL8vxiszF3AnmnTEqAZ3kcmcwwMA0YHET1aipBcYTFRCXW0Xaf90N0YUQ2+Fa3VCtUSPEXymjP3oDKaGPyMbF+VrAecm7U0IvpHGrz1oA+GtOB4XsmzItduQSG3OHMHejz+sCe/RnCwm9ulFmmltj7dlZaEAzmV0bw/Y6zzrapLCNmtokl8kJfax/3xo1QtyDXcNt+v3nYU59mq+NG9r9up+v+S49EtxyraIDF5cTerZWkAHoeNnVGRlMGp6LU8Zo7pbBTCmjI3Guwfhcbj3Q7QBYjfPgoLbK5nlCdlG7h704Ovcskiiu3papUSPH3yGln7vPj89/DUTL9JjR1/21/Rw93p4QpWQmXIRTxQ2ZLHSnedqAZLtsyGfF+hJdSDz62uEDZnSmob37bG7ncbKm65FpR1WtCDehEtCTuZvYsPBh5zXatMSEzutft0aNsklv+7H//fn5sZxNTOlxon4+BDruFehYvIdtUFFM2LJneamCbTQg0AGXzmXwV3uQFyr6ryxExb+BlLp9tP2AuytqGkBrgrDKFsjxcAVLO6/r20krl4TuLEC9UnE1auyb9Pb859Mj/XMw5z6ycZl2P36hjHtPgvf1bgzp3QvPpRXqWs8e6MTERSPFwfhczcDMH/4DwLfkwPwLu1jnTO/s7fpW6GJKo/M8Rc+5PWX6VejORN1nqVFjH3GSfvj3k8Jh+T7G+dp4Pvra/XgsLkkhzg8s7KpG6yORllpi4Z5m6XmQrgG78+fzZJgKRorWKKnJLPECeDxGNjA93Iy7K67TTDdypdfFS6SSvYmwj4hPVJyo+yw1anzdpLfiH4T578+PP9yg2WIYtiHQjwj04gxsuhvHpFyTbBStqL1tagb6gqaJ5uJ7bhyv+Y8TY6YFa3jGtQCAO951bd0wd+GshPgG6KsyLtT160pcXmchrNfrrzVqvDTpfU9Af/rq/ePzbt66CHScrx3LjF7gnLK6EKKQqOEtuL11agQ6Me3cSEmC2EWMFm0Ub0Y2l8708zR6oM92MKiNjZM08UUyX+m4qHuN7+TKPbmoVpl7jRplhL2WXliq3D98PP+ByL63Y9LL7Jt0AtM7WRmuc3S66fwC85jRHQL7YfQBqTm0N/dvgTk05tp3zvaTnQc3mGJsxgohDM3Y+IaVU3wD/3hWJpklV7HM/9m7su20lSB4ss6gmeEakJAlZIEUhLf//7873bP1CGE7ifPWlc3YwEtOUdU7g7EUpG9PgedW0y0he19fw2zcek5zl4xL5n3xQHJG9MuwfcS7asPaF9KhwrYbxGhN+354sMZ9O7RChal1T2dYBeeS7YsCT76lwoZnjtAZjJtB+ubhKRL9eP41Ncm7360X+mUs0dG6q5R0n50/T+tgoVXmYk05bpXZDLo9TdMBTHrbHqZH6I+Zxgcr9vjBIWehuVykNQngwzYL2v5aFCzoDMaCd3eF9GNk+qHx2biZcy/jxmfhKmwFaYI16Txy1jKDRFewZwJEXTew/rVRluaHyzhepvEyalDzUK2LqfXFnPsS2UmvjGJBZzCWUGMXbP9MiH48j67zvVrP9BzLa7h7QoTmuHSBZXYh2WSKbnZQKv8FC+K0LpqhPcHkSj/CSiloaZ+1waRH4rakBwh3syG0vyquoTMYi969Xr/mRB8C0aG0lpHdLXdHQkF7Siyv6fkl9Mh0JHqjlbGx+KltlBX3/nK6bK2a76u6tc+DO6yR2jITcvG2oosQonv7jpk4bopjMOZwXbA6Ef18ej1eBtz5Xm1XdDFkSTpg/QBbkHPIg+d6HiUdrp0/Do3U/4kWPHuDHe2XqbtMdQUXV3SYTZnXzuOJl5zc1OLTbwfjLljQGYw5vqJ31y+R6E/DcD63lUu7766ScSu3ZQZDdJ+Mi5n3mXsnRIc+GK1lY9qhmabHsYck3N3QKLLvfTkoz2gtF7Lu7oMg5dx5bI3BWAAW2IopKXrXvB7rAhQdiL5aZ8dUSSFdkBA9ldMXiQ7W3RK9aUHNH5vptB93D0Orsg1RkegyuXKVE1xeJ+I80WXIuXMmjsG46d13Y4rR93en89TiGZfNagYUdOGpTkU1T7znnXHTpWuNbHRrvzpZ095Op3aLO6LIBQYSnsuZnqtCLSfc8YnQO4PPQpPBvTIMxm3vDh0zgejPw8PxdcDdsNUi0UOYDgSki9vMjOm+231XDsNOtWbYX6ZHPV6m3fauaZSkN9WL+aia8DWzt0prnug+PlfOBHAmjsFY9u5W0qsDKaQ/nW2g7rJxkHN31l3kCTkRims+Qjezvjii6bpp2rbtJhuWD9NmHP/TjuZyfo+RunPHcvVeFV26PlzhZllEIdf8/8lg3PTuff90JPW147ndgHfv7xb0fBXG1xSJ0M11D2ycVDXt4dRN1fQ4tWPdQqL9CoZy/Y2SeV5v81dUY+srT60xGG969/ru+ZhV0nsDMXq/XS0gEB0aVSQ9jiQXW+NMu4dLDMM4ja3WptFSZmtoTDDxOq2ToBH63L/jQ5chsGG+9vyHBh4uoTMYt/Gt72r1mhH9OKJ37zflVZCOTPfXk3HhQ+iZCUdadDaOLqV17RqOMYxNaRrjOG38E/GYU27e5by6thioh1yg0oH6qhByw/+ZDMZt7153zcvxTJn+MqB13+yWFd0tkyryRY106UTaMGOGaRrGwzQ2rQvNY7Xd7aXR/kqikde9McXturpjuo/mvaM3bNwZjNuw2t28nM+U6a9D31tFr9aLNCc7ZuglBZKCI9a9fbhMMJVqVPTqdK0cHGZMqfviA0xXVNKjwluec6sMg/Gmd6/NBDtmniLRH9db9O7r8maMHrbGzYk+T7Tp9uHUNlmK3aQYXVPr7ve4v8t0n2uHddOJ6bxWhsF4Ez/6enU6H4mmn89j2wNmQbovr7kxVRxRzW4jzZdO+MPlbav0daLdE13qhSLb295dFa6YRkN2GxVwjzuD8Sa+9H31ikx/QqafnyBIB+++uUrF4YYZOqWas1cvqLpZLKhheh7vqSdRX2h3VzMx9zuj/E9EdO6GryQzGO+m4/rd+ArLIc+4eeIJgnSw7lW5FKI7oot5kA7B9yLTl4gemI7mvXhX0d2BhkKp6yQ8qrvhyhqD8Q6+QhtcoU+vNkhHtv86n5stpOMq3xKXjaOnOdVZkJ4n5N4juvQbpzRphlV6meZhjYwgPKeMbzhAZzA+ko6ru27d7F+efKx+PjRW0PtqK25Juj+QLlXUY53dZXqf6gYFHRbCa4zl43JIdZ1oV4HoeX+ci9Qlt74yGB+SdBxL76qmC1QfWwzSt+W1oPv1Mo7oiiq6lh+Gl35N8nHqRt493ltaMO6uysYVdAbjY+k4x/Su0vX0DFR/gSDdSvpuoYZODqqSfc++DVZiF8ytJJyjuA4NsEbPPx1Enl8PfW8+DRcSgFqJxHTJiTgG40P40XtN77pe96Ol+nNboXdflddrYN12SEe7QPSCZtjfdu9kqZzRiKjpWBj3U+gZxdNFdvsdbX+lVJxsuFOGwfgdSb93VBeb8fmpU5iNoy0zNBWXL42bm3etzfupuPBU+9xQYXPcFi4MV2SPczTtUL3XaVhdCNlwwp3B+CCgwhaZ3tXrajzcoXcnQXpZxu2QqhSh2qXotRa5zHtJCuUzuXdBeiylB8fu97oSokeFL+LXOA7PCXcG4+PYO/Pumd7VfYfd7rBOSmR9cXCppQxZd5+Qy5mcFdaXp8/1jOpg3uGNVPLsge4uDRdbX4t0sRmZzjxnMH4DP/EMEzL9/h7p3tNsnHABOpCdHHDwoi7nQi6dF9c3PwAyOXdUh1f41Hr07ylIL0LV3q2fVcxzBuOP0OE+SGC55TlQHZvdQ5Au1nflel2Sxe5o3p3V9vXvxGkfdNNh8+KK6H7OTfsRNldLj5se/eiKiCcUg7AXilTZmp473BmM35Z0wvT7ukKquyBdrLbbu5IcVHWSjtwE011kRJfYBaP1rcI6GWXVxqs6uvfQ6+plHHiOj+FIs9CKtsmhnlfMcwbj9yU9Mt0RHXpmNq6sJlbrUEeHv0L/Cjr3QPQk4NoYPXfvywNsxn8aINUV1s5IOc23vbpang59c+GHTc08ZzD+KEqv++5+v9+Dqvco6RUuhYztMh5qKRkXU+fOi+t3e2EN6D60vGOFTcv0pt67e0ajd9dh8XvU8y/Mcwbjt3HvJL2v7/cH4Lojer/Gshox7ZTp0v0hKTjt1j3qN4vo4WCb03PshU0014HpReyTQTnHKdbQTcN5OAbjz/C9drD2fX+w6CpXSXdabt27I7o7kZ60N863FKFWplOsrq8r6mb+leO59+yaenci8NhMg0THlpnCcJ8Mg/Fn+FIHTQemP9w7Rd+gngussGXXVN0qWCUDzzFMx0i90JHc+irfXix0xFrBht/Eu1vmp0eFkql2ruDtG+Y5g/GH+FoHTXdUR+9eY7s7cDtF6Wl8zbt3lV1h0wt0Xlg3Y1/lNz5r5cdUA8m1Dm8Mj/KNFBAnNLwJksH4Y/wkTK/vDy7vXm2xar4SNBUXO2ayjFyRDijrN4ZXM/OOxXb/+kRz7afd4UYD3fnuXtUInldjMD7DvIOod967WwV3PbC7mJATWX0Nx86UnzKNwXpguZr3uxtKeHhCoYLGo2dP75v124SmesNlNQbj78x7FxNy2OruumD9hCqRdB+eE0YW/p/E+cU0nHG3U9P0mvY5e1+Pj+49uoSr5rqGy2oMxl/iu6e5V3VkuuuCtezOSukiLZQi7al+pnxxhM3ka51jr4wz7Z7m+BvM+3+0az4toDEcnjMYf49vgemJ6Na7u44ZkUheuvulhOgCzxjLUAe7gSIRHmNx6W4lSjXz90q68nxWj1dg2ze8NorB+KwwHUXdinlN1sxQNYewPdEcOt6VkCErF4+suvra8tYZnGMpfKbdt8HSHe/Ot+fddYZtO4PxqWF63xNNX5flvAdWhOXuWbCOobVWC9n2nLBx2QR8RuiM/HEThZJpt5xL4ZlGsG1nMD4HPzqSeu9jc5zbMCMizfMQnTA9kRYYq/JlcsS4Y75dSdo+63fIuQd+ui19Clg5Z9vOYHwWvtez1Dt4d5T0lYhxOgq6mGXfk5MPvj2deDA40+Z5Dqvcs7AcxBvnW3TkujFZhG6aguWcwfhE/CSpdy/pZRhriZvjHNPVAtGln0GROtW+/eyq2+Qec2yKHG2xht/NshnPdXffKbyY5ZzB+Gx8I/k4+0+F/e5lxnMcY1tQc02ITjth4930OMAKiTh3KT2eYQ1Ex245d8bN07xVLOcMxr9heubd5yPp1sPjTohZL2yYQYtEJzF6oLkm5NeE5hRK+StuoO8s5wzGv2V6BWMtfbUN2bgo6GXYGycE9exhAzSZbSniTWUPtOxOsPWc4LNvwPOadsOt7QzGP8GXnph3nFV1O2CJrPvE+7x1RrqyuKuTU6LnPIdcnLftmuh8oHvU+aY137h2zmD8S6bXsd/dLYMtV3HZjJtiC2siRbLuodUl7ISRWXSO0Tc8tLIf4nII2k12Od2EAN20Lbt2BuPfMt2PscFf2zLccMgt/LyaHtZQIKNJL2yonJGLTIHm6UCT/r+9u91NHIfCACyGFlJCSqFBVbIz3P9lLok/YtP5uaKweh6JqjfwKsf2sU8s3IvP+buqHe7xTZ975Mppi8uG3Nv8qNS2eM8xdMC0qXIvD8r3qRtuv7z33MUt+JDupt6Xuy7Oh42qHe6Q9NAedzmfT32Oel+csU2D2KraPba6FZvrRW97Pk5bjtX21UyHcj9uHCzO4Q7Wl6UX9rjkPExnSs/C9tuyQy51ut8Ob9jHunxum5nHssWk79IT7zfnbBbncN+kh9r9lIav9cVk1TCcac74/AR0ak6fFuR11PepPM+pDl/uOGE1fuiXxfnK4hzumfQwg+0cP+l9sU7fTqv08nRtubl2M5Bp3nPrcst7OFUL91ZCz3vXFCv0YbyIOdzRJp2nn+MJWzlCOSzWy5aZJr0UUy3RY8nepJ7XZdtteWOqK2Ou3xXun/TwotTxrZY33vuyDTa+8ljvxeVUx+q8SRvt+QOfN+eG8SjmcHcv+YTto4p52pjbtnkrLt9Ii6+xt+UCvYz8nOxwrrav2l7FHH7Ia+yDvfmkp8V6WyzRl9kM++VJiW/f83B8Hq+t1kX7u5jDTyV9msI2rdJPfwl6en8iBr3NT0K1deVezkXfN/FGamWKuYNz+DG/ViHpx/dvy/S3MMWlnqD8rVsmnqLlbrh5Pkt9cC7m8ONJX5+nzff6kx6zfo15Pcuh2gYyO2IAAAKtSURBVHNPW+056E2+2lLFfHCgBj8vJP348fl5W7zXl1TbdDmlLccuxZx36VL61A/Xlefm2mPgIWzOc/H+8Xl7wrbt27ft90b3tuqKW+6kd/M23HKtRczh4ZJ+PN0W7tPTsH1+aObQhq72fTVxrbjHNi/Oq552z0TBI3m5zMX7t66Z2C4Tv+rhivn+doZqk16Pqvpdh3FYizk8lNfrMv18+ujr0r3dFj2wU7d7P4W9LS+u5Qcocs5jzHdiDg9nGtd0TfrtIj3F/DC/ITVdY6uD3i1Bb3bp5vkwjhfnafCQSV99fR1z0qcbLdXnPB6u9dcivS2vpe925aNSIeaDHTh4WOtr0uPO+5zz7bztnl6dCC/AtnkrLuT9mvJqkvIwveyqZocH9vL7cvpM45lCzJfSva0mqsX/d1XQp5p9pWaHB/f6Z056ekkql+2H6Xdoc76blPrya35NuX12eAqb39PO+zY/Bbtk/XAoBiGnyC8f83FamfuYw5N81Nfnrp0bZfp2+aYfwkd9qdmbctLilPKvjY85PNNK/c92aOagt3krLuQ8NMLmG6vtnPNrxT6elezwfFH/pxm7tprd0JZPxy3zz6d1+WX9qmSHp4z6ajcO+7w8j+OYmuWlmXYO+bhbqdjhmdfqm9UwDl1TDlJNe3HdMIV8u1q/SDk8f9bXb8NVnJ2ai/Vx7I6rjZDD/8Wv15f16uv4/v4+/a5/jl+r9TXjFuUAAAAAAAAAAAAAAAAAAAAAAAAAAAAAAAAAAAAAAAAAAAAAAAAAAAAAAAAAAAAAAAAAAAAAAAAAAAAAAAAAAAAAAAAAAAAAAAAAAAAAAAAAAAAAAAAAAAAAAAAAAAAAAAAAAAAAAAAAAAAAAAAAAAAAAAAAAAAAAAAAAAAAAAAAAAAAAAAAAAAA/6l/AUbDLgb4/LcEAAAAAElFTkSuQmCC;" parent="1" vertex="1">
          <mxGeometry x="-536.5" y="113" width="209.63" height="209.63" as="geometry" />
        </mxCell>
        <mxCell id="YRH-If-phGwxbPu7-fWD-117" value="Internet" style="shape=image;verticalLabelPosition=bottom;labelBackgroundColor=none;verticalAlign=top;aspect=fixed;imageAspect=0;image=data:image/png,iVBORw0KGgoAAAANSUhEUgAAAE0AAABNCAMAAADU1xmCAAAAAXNSR0IArs4c6QAAAARnQU1BAACxjwv8YQUAAAKFUExURQAAAP///////////////////////////////////////////////////////////////////////////////////////////////////////////////////////////////////////////////////////////////////////////////////////////////////////////////////////////////////////////////////////////////////////////////////////////////////////////////////////////////////////////////////////////////////////////////////////////////////////////////////////////////////////////////////////////////////////////////////////////////////////////////////////////////////////////////////////////////////////////////////////////////////////////////////////////////////////////////////////////////////////////////////////////////////////////////////////////////////////////////////////////////////////////////////////////////////////////////////////////////////////////////////////////////////////////////////////50ERS8AAADWdFJOUwABAgMEBQYHCAkKCwwNDg8QERITFBUWFxgZGhscHR4fICEiJCUmKCkqKy0uLzAxMzQ2Nzg5Ojw9Pj9AQURGR0hJSkxNTlJUVVhZW11fYmNkZmdpamtsbW5vcHFyc3R1dnd4eXp7fH1+f4CBgoWGh4iJjI2Oj5CRkpOVlpeZmpucnZ6foKGipKWnqKmqq62ur7CxsrO1tre4ubq7vL2+v8DBwsPExcbIycvMzc7P0NHU1dbX2drb3N3e3+Dh4uPk5ejp6uzt7u/w8fLz9PX29/j5+vv8/f773hl/AAAACXBIWXMAABcRAAAXEQHKJvM/AAAEpElEQVRYR+2X+1tURRjHh5aVJUHBC+EC2gWM5KIJltlF0m6aQYJI4a0LSWVSWKgkomElKxnZFbUwQCssS0RLybJIDChFlt3v39M7c96znHP2HB+wp1969sPzsN/3nTNfZmbPzLyICBEiRPiP8KTk5OdlTruBw39Dxuqm7n4/cLWvs/6xJE5eJ4ubL8PAbzvmcMN1kPsxu/zVe3FYU5drpnHjeHn6b9n/5NblOWlJybcuKnv/ooy77+XmcTGhXvb9pGACx0TamtOUGn6Sw3Hg2k8dzz7CkU7CJjnjdRyNnQY5MC8HBhb+RA0lHIyVcurTaJjkKLO+A4L3czA2sq8Cn0ZzYMHbDVxI5mAsRLXSmk3nIIw7/gTelSIm9ZYElbk2D9E8H2Rtw+PUfLd44J0z/YO/t5RM4qwjXwAHWNryEdD+Nlkqugo468AcPwJ5rG3J4p3R3yt/j6zgtD3PAsdYOtAkXfYXpCTlvkobxn8Pp21pATawdOA+MuMtMf9X2n2xmrYj/jyC+awdcNWdWslSLKRpF7G2Id2PP6awdiSGP4ldQEcU63AWACdcrBWGnnYsCOLKzazDyQPaWEqid55dz9IeTw+wlHUYt70OfD068uhGWvEXONBxrygrHT02DwM/brZd6fTdg9S7JzQ5l0++DKjgkInvA3JZC7FXPdK2LGzxii+pli16gxqZZCMnNOLOIZDFmhbuh4B65nAOJ5hqmTz54nwOR80sdmY34Z5X3hqkZwaWc0LxCmXOF3o4omlKs/ZB/HKcPo1rZ3GT5O+jZ4wv3sMUHkrlgIiWa7b99iF0eY+QquQ0YeNG3WnXBkJ3UOLPQOuNHBDqC2gQGUH0iISjpEcna+smsi8Ap/UDijZ7r2Fkic1ksIeeCeBcvJjaQdFrbm6zdxOLaJPxFRRDJ7Rxs8+kv9RA320WucWR+THgS313O7iJWhqctux3AZdMx316j09+sJuY+m3HZBlLnNwyrgDa8bQG+EyJEF71DutuYkrIzNFN0Ho8p0QdUKWEhZCbAUc32pXqApLnaakSFsbl9hRwUAkqFZ5QwsK13Sw1YhFwRAl6u4qVsGB227ZL/g65vfy5+QIs1sdWA1QrYcHo5t4GvEmfutszdB+ZbvFKYJ8ShcBXSlgwusUepHe4jk4kzW0DRadMpQ9t7M1KzB7GyFylzJhmGvshGewU7h4EMpXZN6ZX1EMV1KOapBu+WVMmzOum7Grd3fCnrSLVaS6sF9OplKJJWX0UatKI2U14DtBjvjMYkBVep6VWorOhiaUsL4as1WSYm4iRowvSD03zJs4xVZQL3Q9pdG0HK633ttVNeD6gTpJOs1ncG5Sr5YCYJ6uU71eaC9QwNxElJ0sjM63ZzFVdlGs3nI8i64R8rO9QbcXateuI9SUT2W1WWalO2Qy1dp3TXUWrtUz5S/VtA7Jni7lGmFRt+ucFQzPYbQknJEuE5z0cTRYpXHjp9FWYSgTJ7Co5Yp1hr8ilcy9eLOWEhC72qDsnCpE6wgnJyPFK2/LBM7do0463FA1bJwvvlpqNMSLbt1fHl80PJtY1apk9259flhk2rggRIkT4vyHEP3QbqYVI46A1AAAAAElFTkSuQmCC;fontColor=#FFFFFF;fontSize=15;" parent="1" vertex="1">
          <mxGeometry x="-256" y="221" width="57.75" height="57.75" as="geometry" />
        </mxCell>
        <mxCell id="YRH-If-phGwxbPu7-fWD-118" value="" style="html=1;endArrow=block;elbow=vertical;startArrow=block;startFill=1;endFill=1;rounded=0;fontColor=#FFFFFF;strokeColor=#FFFFFF;strokeWidth=3;exitX=1;exitY=0.5;exitDx=0;exitDy=0;" parent="1" edge="1">
          <mxGeometry x="-0.0114" y="18" width="100" relative="1" as="geometry">
            <mxPoint x="-388" y="257.4" as="sourcePoint" />
            <mxPoint x="-283" y="257" as="targetPoint" />
            <mxPoint as="offset" />
          </mxGeometry>
        </mxCell>
        <mxCell id="YRH-If-phGwxbPu7-fWD-120" value="&lt;font style=&quot;font-size: 12px;&quot;&gt;CUPS&lt;/font&gt;" style="text;html=1;strokeColor=none;fillColor=none;align=center;verticalAlign=middle;whiteSpace=wrap;rounded=0;fontSize=12;fontColor=#FFFFFF;" parent="1" vertex="1">
          <mxGeometry x="-371" y="239" width="74" height="20" as="geometry" />
        </mxCell>
        <mxCell id="YRH-If-phGwxbPu7-fWD-121" value="AWS IoT Core &lt;br&gt;for&lt;br&gt;LoRaWAN" style="sketch=0;outlineConnect=0;fontColor=#FFFFFF;gradientColor=none;fillColor=#7AA116;strokeColor=none;dashed=0;verticalLabelPosition=middle;verticalAlign=middle;align=center;html=1;fontSize=14;fontStyle=0;aspect=fixed;pointerEvents=1;shape=mxgraph.aws4.iot_device_gateway;labelPosition=right;spacingRight=0;spacingLeft=28;" parent="1" vertex="1">
          <mxGeometry x="-80" y="218" width="76.93" height="72" as="geometry" />
        </mxCell>
        <mxCell id="YRH-If-phGwxbPu7-fWD-123" value="&amp;lt;TOPIC&amp;gt;" style="sketch=0;outlineConnect=0;fontColor=#FFFFFF;gradientColor=none;fillColor=#7AA116;strokeColor=none;dashed=0;verticalLabelPosition=bottom;verticalAlign=top;align=center;html=1;fontSize=14;fontStyle=0;aspect=fixed;pointerEvents=1;shape=mxgraph.aws4.topic_2;" parent="1" vertex="1">
          <mxGeometry x="-61" y="464.68" width="40.65" height="59.82" as="geometry" />
        </mxCell>
        <mxCell id="YRH-If-phGwxbPu7-fWD-126" value="" style="edgeStyle=orthogonalEdgeStyle;html=1;endArrow=block;elbow=vertical;startArrow=block;startFill=1;endFill=1;rounded=0;fontColor=#FFFFFF;strokeColor=#FFFFFF;strokeWidth=3;exitX=1;exitY=0.5;exitDx=0;exitDy=0;" parent="1" edge="1">
          <mxGeometry x="-0.0114" y="18" width="100" relative="1" as="geometry">
            <mxPoint x="-196.62" y="258.4" as="sourcePoint" />
            <mxPoint x="-86.12" y="257.9999999999999" as="targetPoint" />
            <mxPoint as="offset" />
          </mxGeometry>
        </mxCell>
        <mxCell id="YRH-If-phGwxbPu7-fWD-133" value="Device" style="sketch=0;outlineConnect=0;fontColor=#FFFFFF;gradientColor=none;fillColor=#7AA116;strokeColor=none;dashed=0;verticalLabelPosition=bottom;verticalAlign=top;align=center;html=1;fontSize=14;fontStyle=0;aspect=fixed;pointerEvents=1;shape=mxgraph.aws4.iot_thing_temperature_sensor;" parent="1" vertex="1">
          <mxGeometry x="-661" y="219" width="78" height="78" as="geometry" />
        </mxCell>
        <mxCell id="YRH-If-phGwxbPu7-fWD-134" value="" style="html=1;endArrow=block;elbow=vertical;startArrow=block;startFill=1;endFill=1;rounded=0;fontColor=#FFFFFF;strokeColor=#FFFFFF;strokeWidth=3;" parent="1" source="YRH-If-phGwxbPu7-fWD-133" edge="1">
          <mxGeometry x="-0.0114" y="18" width="100" relative="1" as="geometry">
            <mxPoint x="-558" y="260.80999999999995" as="sourcePoint" />
            <mxPoint x="-477" y="258" as="targetPoint" />
            <mxPoint as="offset" />
          </mxGeometry>
        </mxCell>
        <mxCell id="YRH-If-phGwxbPu7-fWD-135" value="&lt;font style=&quot;font-size: 12px;&quot;&gt;LoRaWAN&lt;/font&gt;" style="text;html=1;strokeColor=none;fillColor=none;align=center;verticalAlign=middle;whiteSpace=wrap;rounded=0;fontSize=12;fontColor=#FFFFFF;" parent="1" vertex="1">
          <mxGeometry x="-566" y="239" width="74" height="20" as="geometry" />
        </mxCell>
        <mxCell id="YRH-If-phGwxbPu7-fWD-137" value="Workflow Decoder" style="shape=image;verticalLabelPosition=bottom;labelBackgroundColor=#27284b;verticalAlign=top;aspect=fixed;imageAspect=0;image=https://upload.wikimedia.org/wikipedia/commons/2/2b/Node-red-icon.png;fontSize=14;fontColor=#FFFFFF;spacing=-1;" parent="1" vertex="1">
          <mxGeometry x="-803.37" y="454.38" width="74" height="74" as="geometry" />
        </mxCell>
        <mxCell id="YRH-If-phGwxbPu7-fWD-138" value="Home Assistant" style="shape=image;verticalLabelPosition=top;labelBackgroundColor=#27284b;verticalAlign=bottom;aspect=fixed;imageAspect=0;image=https://upload.wikimedia.org/wikipedia/en/thumb/4/49/Home_Assistant_logo_%282023%29.svg/1024px-Home_Assistant_logo_%282023%29.svg.png;fontSize=14;fontColor=#FFFFFF;labelPosition=center;align=center;" parent="1" vertex="1">
          <mxGeometry x="-825" y="431.75" width="49" height="49" as="geometry" />
        </mxCell>
        <mxCell id="YRH-If-phGwxbPu7-fWD-140" value="" style="edgeStyle=orthogonalEdgeStyle;html=1;endArrow=block;elbow=vertical;startArrow=none;startFill=0;endFill=1;rounded=0;fontColor=#FFFFFF;strokeColor=#FFFFFF;strokeWidth=3;" parent="1" target="YRH-If-phGwxbPu7-fWD-143" edge="1">
          <mxGeometry x="-0.0114" y="18" width="100" relative="1" as="geometry">
            <mxPoint x="-760" y="559" as="sourcePoint" />
            <mxPoint x="-587" y="596.75" as="targetPoint" />
            <mxPoint as="offset" />
            <Array as="points">
              <mxPoint x="-760" y="597" />
            </Array>
          </mxGeometry>
        </mxCell>
        <mxCell id="YRH-If-phGwxbPu7-fWD-141" value="&amp;lt;TOPIC&amp;gt;" style="sketch=0;outlineConnect=0;fontColor=#FFFFFF;gradientColor=none;fillColor=#7AA116;strokeColor=none;dashed=0;verticalLabelPosition=bottom;verticalAlign=top;align=center;html=1;fontSize=14;fontStyle=0;aspect=fixed;pointerEvents=1;shape=mxgraph.aws4.topic_2;" parent="1" vertex="1">
          <mxGeometry x="-583" y="468.56" width="40.65" height="59.82" as="geometry" />
        </mxCell>
        <mxCell id="YRH-If-phGwxbPu7-fWD-142" value="&lt;font style=&quot;font-size: 12px;&quot;&gt;PUB&lt;/font&gt;" style="text;html=1;strokeColor=none;fillColor=none;align=center;verticalAlign=middle;whiteSpace=wrap;rounded=0;fontSize=12;fontColor=#FFFFFF;" parent="1" vertex="1">
          <mxGeometry x="-735" y="578" width="74" height="20" as="geometry" />
        </mxCell>
        <mxCell id="YRH-If-phGwxbPu7-fWD-143" value="/adeunis/confort/co2" style="sketch=0;outlineConnect=0;fontColor=#FFFFFF;gradientColor=none;fillColor=#7AA116;strokeColor=none;dashed=0;verticalLabelPosition=bottom;verticalAlign=top;align=center;html=1;fontSize=14;fontStyle=0;aspect=fixed;pointerEvents=1;shape=mxgraph.aws4.topic_2;" parent="1" vertex="1">
          <mxGeometry x="-583" y="567" width="40.65" height="59.82" as="geometry" />
        </mxCell>
        <mxCell id="YRH-If-phGwxbPu7-fWD-147" value="MQTT Sensor" style="shape=image;verticalLabelPosition=bottom;labelBackgroundColor=none;verticalAlign=top;aspect=fixed;imageAspect=0;image=data:image/png,iVBORw0KGgoAAAANSUhEUgAABEwAAAEYCAYAAABGJmP8AAAACXBIWXMAAA7DAAAOwwHHb6hkAAAAGXRFWHRTb2Z0d2FyZQB3d3cuaW5rc2NhcGUub3Jnm+48GgAAIABJREFUeJzs3Xd4VGX6xvH7PZPeSIKUBJDee5EiICpYWBu4wrpWSjITQJr0HoogCyKIApmAYNm1oKtiV1QURWnSpSs19N7S5ry/P8TfWkggk0mec2buz3XtdbkhJF8NITPPvAUgIiIiIiIiIiIiIiIiIiIiIiIiIiIiIiIiIiIiIiIiIiIiIiIiIiIiIiIiIiIiIiIiIiIiIiIiIiIiIiIiIiIiIiIiIiIiIiIiIiIiIiIiIiIiIiIiIiIiIiIiIiIiIiIiIiIiIiIiIiIiIiIiIiIiIiIiIiIiIiIiIiIiIiIiIiIiIiIiIiIiIiIiIiIiIiIiIiIiIiIiIiIiIiIiIiIiIiIiIiIiIiIiIiIiIiIiIiIiIvKSkg7wtVSkGgdxsKWCaq6gymnoGOkmScqh0OKhFqf/+cI/S4RFh/nd17sgPnrqo1/eG/1eZekOHzoOIENBfZWGtJ+kY4iIiIiIiPyJ3zyB7ou+oVnIegLAIAAJ0j2Wo3C6cvPKGztN7lSm1q21akrnSPnyuS+/fnPAmw201nHSLT62TUFNSEDCG6lINaVjiIioaPRAj+hwhIeYMEv89jYNXSIXuQYABCP4PIAcAMhCVmYoQi+VQZkz/NlARERUcH4xMElCUm0DxnsAqku32EFwePCeVo+3yrhn/D31YkrHBNwKnON7ju9+qvFTpy6evthMusXXFNSXQQjq+gJeOCHdQkRE18YJZ4SGrgzgegVVDkB5ANcDSNDQ8QoqDkAcgFgAQV5+mjMATgE4paBOaejDAA4oqAMA9nngOWDA2OuG+3jh/42IiIj8g+0HJk44WwD4FECJq70v/UVW2ZplV/992t/DG9zToKl0THHSps5d1H3Rsh9e/uEmACHSPT6224TZej7mH5EOISKi/xmIgeEXcbGRCbMegFoKqg6AWgAqwjqPyY4D2AJgm4beasD4yYCxZi7mnpIOIyIiKm5W+eHslSQklTdgrAZQVrrF7oLDg3++uffNR+4ed3ejsOiwcOme4rJ92fY1M2+fGWfmmFWlW3xJQ393GqdvXYzF2dItBdUd3UuFIORj6Y78aOgLCuqEht4I4GM33KsAaOkusobLZ2m1VVB3aujaCqqkgrL036tpSPO7FXcWoJKRXMeA0VJD3wCgOYB6AIKFu7yhAewEsEpBrdLQqxKRuDYVqbnSYVbihHO3dAP5LwPGffMwb7OvPl4ykh9UUE/56uMR5WGzG+77pCMKw9YDExdc/9XQnaU7/IlS6nzllpU3PuJ+pHK5euUC4iyYnIs5Z6ffPH3FntV77pRu8bH+brifk44oqB7okRiEoIPSHQW02oQ5fD7mfykdQrKSkXyvgpoMoK50S0G44bb14wGrSEFKJQ3d3oTZXkHdCqCMdFMROgdgGYClCmopDx8HnHBycE5FxoTZbD7mr/XVx3PB5dTQab76eERXoqDW2v1FGds+QEpG8g0KaiVs/O9gcWapqqV+7DKjS0TDexvWkY4pDl8898XSNwe82QQa8dItPnI0EpGVnsWzl6RDCsKmAxMAMAGkuuGeBK42CTipSA3KQMYzAPpJt3iDAxPv/HYznwGjs4a+D4F9ltpBDf0+gLfLodyyQFx9woEJFSUOTMiO/GFg4u3BYVbwKDgsKUrGsd3Hms25bw7CosN23j327gvtB7ZvaDgMv/1v3r5f+w4N7224e0L9Cfuzzmc1lO7xgdLncb49gA+kQwKEAWBCMpJD0pE+RjqGilcGMtIA9JDuoKKXilTjEA7dYsJ8IAMZ9ymoBM0ZKQCUU1ApAFIykHHCCecSAG8D+MwNd45wGxERkVcM6QBvKai/STcEisxzmdXfGvJWo75Rffd+MP6D73Ozc/32VaPrKl1XdcaJGTWqtKriF1srFNQd0g2BRkGNcsH1gHQHFR8nnAPAYYnf64me1ZKRPDEDGXs09NLLw4GA2LrqhZIAuuPXgf1+F1zTXHAFxGpVIiLyL7YcmKQi1cCvJ8pTMcrNzK30fur7rfpG9D3+xoA3VuRk5tjuQNFrERQSFD5sxbBbO03u9DmA89I9haGgKgknBCKloef0RE9/2dpF+eiFXlUATJHuoKLRF31DXXA95oRzuQOOHQpqNIAK0l02U0ZDD9bQW1xwfe+EM2kgBlr6EGQiIqLf2HJgshd7S8Le24lszfSYZb+c9eWN/aL6nXq93+tf52TmZEk3FYWOIzreNnrd6H1BoUG7pFu8ZcIsLd0QoEoZMHjyfAAwYc4CECbdQb6VhKQyLriGZSFrt4Z+CUAbcBtwoWnolgDSL+DCISecs3qjN4dPRERkabYcmCgoO17J53dMj1nmq9lftesX1e/0W4PeWpGTmeN3e5QrNKpQZ8bxGSVLVyu9TLrFGwYMh3RDoFJQyUlIqi3dQUXHCectGvpu6Q7yHSec9V1wvWrA2KehnwZQTrrJT5UA0C8XubudcP47GcmNpIOIiIiuxJYDE7IW02OW+XzG5zf2i+p3/N2R7y43c02PdJMvhUaFxk3cObHd3WPv/hyArW6cIVEOA8ZY6QgqUuOkA8g3nHDWd8L5MoB1GvphACHSTQEiGMBDCmqdE87PXXDZ+iYFIiLyPxyYkM+YHjPh4ykft+0X02/vihdXrJPu8TF1z/h7bnvyyye3GA7jgHQM2UbXFKTUk44g30tGcgcA7aQ7qHCccDa5fJvLBvx6+x5X5cnpoKFXOeF8zwlnE+kYIiIigAMTKgI5l3KqvNTzpcZPlnzyp58+/2mbdI8v1bylZrOn9z+NsKiw9dItZAuGBx6uQvBDXD1kb0lIKu+EMw3AagD3gOeTWIUCcC+ANU4430xCUmXpICIiCmwcmFCRuXDyQp1Zt8+qOab6mO+P/3z8oHSPr5RIKFH+mePPVCtTs8xX0i1kfQrq7y64Gkp3kO8kI7mjhm4r3UEF1xu9o5xwphowdgBwgo+DrEoB6GLA2OaEc5YTzhLSQUREFJj4QIGKmjq662irUVVHxc7tPHdpblaura/p/U1QaFDUhG0Tbm6T1OYTAKZ0D1ma0tCp0hHkU6nSAVRgKhnJj+Yi92f8evYMr7W1hxAA/QBsd8H1iHQMEREFHg5MqLhErn93fYd+0f2Ofzv/2+XSMT6iHk1/9M6uM7t+DeCidAxZ2n3JSL5BOoIKLxnJdyuo5tIddO2ccFZ1wvmJgnoZQCnpHvJKGQ39ihPOZU44a0nHEBFR4ODAhIqVJ8dT6ZXkV9oOLj147f71+3dJ9/hC+/7tbxn23bCdhsPwm21H5HNKQY2RjqBCUwaMVOkIujZOOIOdcI4BsBnA7dI95BPtAKxzwjnKCWewdAwREfk/DkxIxLlj55pOajyp4jM3P/NN5plM22/TqXJjlYZP/fxUbmhk6GbpFrKse1KQwpUJNuaE8z4N3VS6g67u8iqEFQAmAAgTziHfCgMwCcDaJCQ1kI4hIiL/FiQd4I1IRJ6v/4/66z25npycCzmOnKwc5GblmtmXskM9OZ6cnEs5oZ4cD3Kzc4Myz2VGeLI80Z5cT6x0N/1F8I6vd9w0sOTAww/NfWh72+S2tn4iEn99fMXpR6afG1d33Lcn955sI91D1nP5xpy7pDvIKwq/nn1B1qZccCVr6BkAIqVjqEjVN2CsdMGVmoCEaalI5XliRETkc7YcmMzG7LP6dd2oIL9Hmxrnj5/HuWPnLpw5dObsmYwz50/uP5l5av8pz9GdR81jPx8LPX/sfImsi1mloRFSVO30V6bHLPuq89WyS59dunLQskE1YkrHxEk3eSskMiR68i+TWz3T7pmlO5fv7CDdQ9aioP6WhKSW8zH/B+kWKphkJN8PoEA/d6h4dUf3UiEIeUVD3yHdQsUmTEM/fQiHbklBymPzMO+odBAREfkXWw5MvKEMhejS0YguHR2ZWDcxz1edtKlxOuN07uHth49nbMo4dXDTwczD2w6rIzuPRF08cbGcaZo8Wb+IHN56uMWwhGEnujzbZfWt/W617QGZSinH4G8Gd1j46MLPf3j1hw749ZVpIgCAA45UAHdKd1CB8Awai0tCUlMDxlsaupJ0CxU/DX2Hhv4xGcld05G+QrqHiIj8R8AMTK6VMhTiyscFxZWPK1u7fe2yf/710wdP5+z6dtfhXct3Hftl1S84suNIqUtnLpUDz4PxCdM0S77R/42SS2cs/XHI8iEV4yrElZRu8lb3V7rfVqp6qS/eH/f+TQB4OB0B+PWBfRKS2s7HfH+5LcrvueDqqqEbSnfQlbngcmro2QBXhwa4cgrqaxdco9OQNlU6hoiI/AMHJgUUWy42uNk/mlVo9o9mFX57W+a5TOz7cd/RzZ9sPrz5o804sv1IYm5W7nWSnXZ3Yu+JJiMqjjjVeUrnlXcMu6OFdI+37h57d/vYxNjvXkl+pQkArk4iAIABYxwAbtmygVSkGhnIGCvdQX/VBV1C4hDn1tCPS7eQZQRp6KedcNYNRWjybMzOkg4iIiJ746oIHwiLDkONdjVK3z/l/gZjN4xt8ELmC9dNPTg197EFj/3c4J4GG6Kui/oZAA8jKyCtddx/h/+3xbByw9ac2HPisHSPt9oktWndZ0mfbUop298GRD7TPhnJ7aQj6OoO4uA/AdSR7qA/6oVecbGI/RQAhyV0JY9mIeur7uheSjqEiIjsjQOTIhKbGBvUukfrKn2W9Gn4zLFnqjx76lm4Frv2NuzU8MewqLB90n12cjrjdLNRVUaFfzTpI9selNngngaN+37YdxcUzkm3kDUoqEnSDZS/LujiUFCjpTvoj3qhVxUPPCsU1M3SLWRprYIR/H0v9KopHUJERPbFgUkxiYiNMJo80KRi73d6N5l1btb10zKmZXad0XVLhcYVNhkOgysPrkJrXeK9Me+1HFNzzJqLpy5ekO7xRt2OdRsN+WbIASiclG4hS2jjhPMW6QjKWyxiHwJQS7qD/icFKc098KwEvy50bap64FnuhNO2W3uJiEgWByZCYhJiwtoPbF939I+j68++ODvqiQ+eONjk703WhcVw9Ul+ju442mxw2cEndi3ftUO6xRvV2lSrPey7YceUoTg0IWjoidINdGWXV5eMku6g/0lCUlsT5ucAeEYYFUQpAF+44GovHUJERPbDgYkFBIUEof5d9cu53nI1nnVm1vXjNo0717pn643hMeH7pdusyJPtuX7aTdOqvPjoiyu1qbV0T0FVaVWl5rAVw45D4bR0C8lSUK2TkczDXy0oFrGPA+BSfotwwnmLAeMjADHSLWRLkRp6STKS75AOISIie+HAxIIS6yVGPzb/sQYzz8ysMGbjmLOte7beGBYddlC6y2KCVr66ssWwCsM2nMk4Y7vBQ+UWlWsMXDrwOBRsub2IfEdBTZBuoD9ywhnM1SXW4YSzE4CPAURJt5CtRSio91xw3ScdQkRE9sGBicWVr18+5rH5jzWYdXZWuRErR5xs+o+m64LCgo5Kd1nFmYwzjYZfPzxz4wcbN0u3FFStW2tVS3kr5RAAXnsY2Fq54LpTOoL+R0N3A1BFuoMAF1y3AXgdQKh0C/mFUA292AnnXdIhRERkDxyY2Eil5pXina87Gz9/4fnSvZf03lu+YfkNAHKku6SZHrPsC/e8UGdO5znfmx7TVtc3N76/cbUer/TYByBXuoVETQKgpCPo/1eXjJDuICAFKa019DvgsIR8KxjAYl7tTkRE14IDExtShkLDexpWHLN+TMNpGdP0LU/csiEkIiTQt+wYG97d0GpIwpBNZ4+ePSUdUxAtHmlRvevMrjsA2GrYQ76joZs64fybdAcBAJIAVJaOCHQpSGluwvwYQKR0C/mlcAW1xAVXM+kQIiKyNg5MbC4mISbkwdkPNpx9YXa5oSuGHqjWttoqpdQl6S4p54+dbzi83PCsXd/t+lm6pSDa929f564xd22S7iA5Cmo8uMpEVF/0DQXA1SXCeqFXzcvDkmjpFvJrMRr6o57oWU06hIiIrIsDEz9StVXV8kO+GdJ82uFpjvb9228KCg46Jt0kwZPrKTu97fSyy+YsWyndUhD3Tri34W1P3rZGuoNkaOimyUi+R7ojkGUj2wmggnRHIOuDPiU98CwBEC/dQgGhlAOOT5xw8qpqIiK6Ig5M/FB06eiQrjO71p95dmapTk912hoaFRpw1xNrrSNe6/Na8/n/nL9ca/tcPfzAMw80a3BPg1XSHSRDQU1KRSr/XhbQDd3CNPQw6Y5A5oQzOAc5iwHUkG6hgFIVwNtd0CVEOoSIiKyHD8z9WHBYMDqO7Fh71tlZFfq83+dA2Vplt0g3FTO1+vXVbUdVHvVj5plM22xT6v1u7+YJdRLWS3eQiPqHcKiTdEQgCkawC0A56Y4AtwDALdIRFJBuikXsHOkIIiKyHg5MAoBSCg3ublB+/NbxdYf9MOz49U2v34AAOmD0xN4TTYeUG7L/2M/HDkm3XAtlKIxaM6puZHzkNukWKn4aegJXmRSvbugWpqCGSncEsmQk9wfwqHQHBS4F1dMJZx/pDiIishY+KA8wVVpUuW7UmlENx24ae7Zqq6obAXikm4pD9oXsGqOrjQ5d/+76DdIt1yI4PDh4/Lbx5YNDg/dJt1Cxq5uBjL9LRwSSEIT0AZAo3RGokpDUUkH9S7rDJs4D2KWg1mro7wAsBfBfAK8DcCuofwNYfPnt3yiotQC2AzgpFWwzzyQj+QbpCCIiso4g6QCSUa5eudihK4bG7vtx34lFjy/KOLj5YD34+w0dGvFzO8+Nunvs3d/dM/6e1tI5VxNdKjpq+Orh5yY1mnRGm7qEdA8Vq3GpSH07FakBsxJMyqN4NBIAV5cIuXzY5psAeH7E/2QqqPUaerOG/hnALw44fs5C1i8LsdDrw9ydcJYwYFTxwFMFQGUFVQVAXQBNAET5qN3uQhXUmz3Rs+kCLPBmyNTV50XCFNQwDd1UuqOATgFwSUf4WjCCfXoDpAFjqQcev/ozq6DiNHSadIcXFl/+n98xYZ6Sbigs2z5BttNBnnawf/3+ky/1eOng/nX7/X9wAqDBvQ2+6/NeH8sPTQBgy8dbdjz3t+cqAggt6O9VUGvTkNasCLKKTA/0SAxC0EHpDmkK6qE0pL0m3eHvnHAOBTBVukOaG26Jv/eVE86PANwp8Lmt5CyArzX0Fw44vjFhbnbDnVNcn7wLujhiEVtLQd0EoAN+PUcmrrg+v0V96Ib7HgAB/1jTCecSAHa7wS3DDTfPpApANn4MOd4Nd6p0BF0Zt+QQAKBCowrxo38cXX/o8qFHSlYq+ZN0T1HbuGRj6+ntpi/Xprb8K/h1O9at8cC0B34CH7gFFA09tgu6OKQ7/FkP9IgGMES6I1A54eyNwB2WHAWQBuAOANe54b43Hemz5mHeuuIclgDAYiz2pCN9ixvuuW64/34Kp0qZMNsrqDkADhdni4Xc5YQzRTqCiIjkcWBCf1C1TdWyk3+ZXKfPkj77w0qE7ZXuKUo7v9nZdmzNsT/mZOYU64NTb9w2+LbGLR5uweuGA0uteMT/UzrCnwUhqC+A66Q7AlEykmsACLRzS0wF9QGAzgDKu+FOccP9WXEPSK5mMRZ75mP+l2lI65OIxAoKqtPlbsu/wOBj03qiZzXpCCIiksWBCV1Rg3saVJhxbEbFO4ffuUkZ6ox0T1E5uutos5GVR27OPJt5Qbrlarq/0r1FYr3ENdIdVHw09LhUpPKsqSLQF31jAAyS7ghEqUgNMmC8BCBCuqWY5AB4BUDdNKTd44b7XasNSfKSitTcNKS9l4a0exxwVAfgBpAr3VVMIh1wvMyVfkREgY0DE8qTI9iBzlM613/m2DMRTbs0XQsgW7qpKJw9fLbxsPLD9p89fPaEdEt+lFIYuWpkw/CY8O3SLVRsqmUg42HpCH+UicwBAOKlOwLRIRwapKFbSncUg0wFNccDT3U33I+54bb1VfFzMfdnN9wuALU09AL46WOCP2kVj/jB0hFERCSHAxO6qsj4yGDnm86mqVtSL5atVdYvzzfJPJdZa3jF4RcPbT1k6Wt8g8ODg0etGxVvGIalhzvkU2OccAZLR/iTbugWq6AGSncEoiQkVdbQY6U7ipgJYD6AKmlI67MAC/xqe6sb7t3pSE/ywFMDwNvSPUVNQ49LQlJl6Q4iIpLBgQlds4Q6CbHjt46v0/3l7rsdwY6j0j2+5sn2VJhQf0Lo3jV7d0m35KdUlVKlXG+5DiNwlkUHuqoK6jHpCH8SitCBAGKlOwKRAWM2/HgrjoZepaBauOFOdsN9SLqnKC3Agr1uuB/Q0PcB2C/dU4TCL/+5JSKiAMSBCRVYy0dbVn3m2DPxdW6rsw5+dgic6THLTGk+pdSOr3dYeul0o86N6t7yxC2rpTuoeGjoMV3QJUS6wx90Q7dYDd1PuiMQJSP57wDuku4oIjkaeqqCapOGtIA6ayod6Uvw6zadqQA80j1F5K5kJHeWjiAiouLHgQl5JbxEeFD/z/o3fvKrJ4+ExYRZehtLQWmtS8y4ZUbijq93bJVuyc+Dsx9sVaFxhe+kO6hYVIxHfDfpCH8QgpAh4OqSYueEM0JBzZTuKCLbTZjN0pE+3C6HufqaG+6L6UgfbsBoB+CAdE9RUFCzHsWjkdIdRERUvDgwoUKpeXPNhBnHZ1zfvn/7TVD+cwCc1jrGDkOTYSuGNQ+LCbP0ahjyDQ09iqtMCscJ53UA+kp3BCIF9SSA8tIdReD1XOTeMB/zN0qHWME8zPsuBzlNAHwm3VIEKoQj/EnpCCIiKl62vK6yG7rFTmkxZblSSkeWjNQAEBIWYoaXCDcAIDw2HCERISq2fGxwXPm48NjE2MgSZUtER5WKinMEO0Jl6/2PI9iBrjO71m/ds/XJmbfPPH728Nka0k2+cHmliTl0xdAdVVpWseS/U3BYcPDodaNjx1Yfe8I0zZLSPVSkro9DXE8Ac6VDbGwIgGjpiEDTHd1Laegh0h0+pgFMcMM9/vI/02ULsfBYF3T5WxziZgDwt+1vQ3ujd/oczDksHUJERMXDlgMTA0bEnlV72nr1mxXOOYIcp0MjQ0/HlI05W7p66ezEuolG+YblIxLrJcaXqV6mXFBoUJiPkwNCufrl4qcemBr/5sA3N341+6vaAGx/s4fWOm7qjVP18O+H76zconJ16Z4rKVWlVNmU/6ZsmtNpTiwAh3QPFamR3dBt4SIsypQOsZsUpJQ2YfaR7ghEwQgeByBGusOHcgB0c8P9H+kQq1qMxR4A/Z1w7gHwDAAlW+QzUR54xgDg3yVERAHClgOTQtGI9uR4oi+evljh4umLOLztMDa+/4eVtNpwGIcj4yMPJtZNPFv9pupGrQ61rqvUrFKl4PBg7l29CsNh4MHnHmzQ/KHmR2Z2mJmVdSHreummQtOIn3rjVIxYOWJXxWYVq0nnXEnD+xrWb/FIi29WvrryJukWKlLlQxGaDIA3NhSQCXMoAP4dXsxccFXX0E7pDh/KUlBd0pD2vnSIHbjhftYJ5zkAafCTbeAaOjkZybPSkb5DuoWIiIqeX/zw8jFlesyy546da7p92fZbPpjwQbvpN02v+0TEE2G9Q3v/PLra6BXzH5r/5fp316/JOp91XjrWqqq0rFJm+tHp5evcXmc9/GC5sjZ1/NMtno7bt3bfbumWvHR/qXvb2MTYH6U7qGhp6OEDMTBcusNOeqN3WQC9pDsCkYYeBT9YbXhZtobuzGFJwbjhnq+he8IPHgtcFqygxkhHEBFR8eDA5No5PNmeKsd2H7tx9Wurb53beW6zftH9wp8If2L3U82eWvbhxA+XHdl2ZJd0pJWERIQY/T/t36jXO732OoIdx6V7Css0zZJTmk+J3bd2nyW/zspQaszGMVUcQY6D0i1UpBIv4IJLOsJOPPAMBxAh3RFoeqFXFQAPS3f4iKmhH09H+sfSIXaUjvRF8K8Dl//pgsuS23SJiMi3ODApHEdOZk7VfWv33bxk7JKbx9YeW61XUK+DkxpP+ubLWV9+d+HkhRPSgVbQqFOjSlP3T40qW7PsZumWwjJNs+Tk5pNjDm8/vF+65UqiSkbF9l7S+xSAXOkWKlLDnHByAHANeqBHoobmgEmAB55h8J+tv4PSkf66dISdueF+AcC/pDt8xGHCHCYdQURERY8DEx8zPWa5/ev33/TGgDdaP1nyydj+0f23zr5r9tebPty0Rps6R7pPSnSZ6LDx28bXu3fCvRvw64F5tqVNXXpCgwk4c+jMMemWK6nXsV691j1ar5DuoCLFLSbXKAhBIwDwIO9iloSk8gC6SXf4goJa5IZ7pnSHP0hE4ggA70p3+IKCeqwnelaU7iAioqLFgUnRcmSez6y9+aPN7Z6/+/lmvYJ6nZnUeNI3K/+9cqUnx5MlHSfhrjF3Nez3Ub9DjiCHrVffeLI9FcbWHHss60LWBemWK3l0/qNt4yrErZHuoCI19FE8ykNM89EbvSsASJbuCEQGjAEAQqQ7CktB/XASJ7lCyUdSkWpewqVHAGyRbvGB4CAEDZSOICKiosWBSTHSWl+3f/3+m1585MUWvUN7X5pQf8J3KxauWO3J8WRLtxWnuh3rXv/UnqfCYsrG2PqE+cxzmXXG1hi71cw1Lbf9RSmlxqwfUy0sJuyodAsVmdLhCOfVlvnIQc5IAKHSHYHm8nax7tIdPnDaA89Di7E4oH5GF7VX8MoFDf0PABelWwpLQ/foi77+dGU2ERH9CQcmUjRiD24+2PqlHi/d0Ce0z7nJTSd/vf699Wu01qZ0WnGIKxcXOWXvlOr1/1Z/vXRLYZzOON1scvPJK7XWljv9PzI+MnbM+jH+cjsFXdmQHugRLR1hRT3Rs6KC6iHdEaAeBRAvHVFYCiplPub/It3hj9KRvgVAf+kOH4jOQtaj0hFERFR0ODCxAK11yb0/7m03t9PcZn1C++yd23nu0hO/nDgg3VXUgkKC1BMfPtHooRce2qaUsu0rTfuS2EFZAAAgAElEQVTX7W897+/zvpHuuJKSlUvGSTdQkbouCEH+dPOEzzjgGA0/2BJiU/6w8umTNKS9IR3hz9xwzwfgD7cO9QegpCOIiKhocGBiMZ4cT+X1767vMLLKyDIjK438/vuXvv/e9Ji2PiT1atr1bldr1NpRF4LCgg5Jt3hr/Tvr270z/J1vpTsoIA3ikvA/unyd7ePSHYEoBSk3A6gv3VFIFw0YPFS5GAQhyAXgrHRHIVV3wdVBOoKIiIoGBybWFXxi74lWi7otatUntM/x+Q/O/+Lc0XN+ex5FhcYVSk3+ZXJs5HWRO6VbvPXJ1E9aLU9fvkq6gwJOfBay/GFpu8944BkNgNvRBJgw/WEb1MR5mLdHOiIQzMGc/QBSpTsKS0P7w597IiK6Ag5MbMD0mAmr31jdfnCZwVFTmk9ZdnDzQdsOFfJTomyJ8Kf3Pl21XP1ym6RbvOR41flq/Z8++2mzdAgFnEG90IvbrwD0RM9q+PUMDSpmvdE7CkBn6Y5C2gLgGemIQJKIxNkA7Ppz/zeduqFbrHQEERH5Hgcm9hKxZ/WemyfUn1B1UKlBa1YsXLEagOUOGy2MkIgQY8yGMfVbdWv1o3SLl8Jnd5xd5sSeE7bdXkS2VMKEOUA6wgoccIwFECTdEYg88HQBECXdURgaeoAbbr/eBms1qUjN1dAjpTsKKSwUoV2lI4iIyPc4MLEn4/zx881e6vHSDX2j+m5bNmfZcn+6XUcphW4LuzXpNKnTFgCWu7L3akzTLDWhwYRTOZk5mdItFDg0dP+e6Gn7m0kKwwVXdQD/lO4IVBra1ufGKKgf0pG+VLojEKUj/QMFtVa6ozDs/uefiIiujAMTm8u+kF37tT6vte0b0XfXFzO/+EZr7ZFu8pWOozrW7f1e7wPKUOekWwoq81xmnck3TLbrKhmypxIOOJ6UjpCkoVPB1SUieqN3BQA3SXcUhglzgnRDIDNhTpFuKKRWTjirSkcQEZFvcWDiJ3Iyc2q8OfDNm/rH9N/2/Uvffw8/2arT8N6GlUasGnHJEeQ4Id1SUBmbM258o/8by6U7KKD0747upaQjJLjgqgPgQemOQJWL3M6w99WqP6Yj/RPpiECWjvT/ArDzGWBKQ9v9DB8iIvoTDkz8TNb5rLqLui1qNSBmwObVb6z+QbrHFyo2rVh6zMYxKig06Ih0S0F9+dyXrTYs2bBBuoN8ysrnG0QFIzhQV5mMg7V/pvnNtskrUVD3STcUhoKaAD95ocHGtIZ+WjqiMBQUByZERH7Gyg8uqRAunbtUf/6D81sOLj147d41e7dL9xRWQu2E+AnbJkSERIQckG4poKA5neZUOLLjyH7pEPKZd6UDruKJQFtl4oSzvoZ+QLrjKpZIBxSVPuhTUkPbeTvOljSk+e3Xx05O4/TrAPZIdxRCy97oXVY6goiIfIcDEz937ti5ppNvmFz1qWZPLTt75Owx6Z7CKFmpZPSk3ZNKhpcI/1m6pUA04ic1mXQp+2L2RekUKjwNvQCAlb+WUcEIHiIdUcxSYeGfZwrqU9j/2tQ8ZSP7Htj77JgF4OoSS1iMxR4F9bJ0RyEYuci19WorIiL6I8s+wCSfCtq3dt/NQxKGBC98bOHS3Oxc297eUqJsifDJv0wuH106eod0S0FkX8iuMbnZ5PXSHeQbCmqOdMNV9ElCUhnpiOKQjORGAKy8DF4rqLEaOlY6pKgYMDpKNxRCjgHj39IR9D8a+mXYe4B1l3QAERH5DgcmgUQj9odXfugwIGbAwfX/Xb9SOsdbEXERIZN2TaoSmxi7VbqlIA5tPXTjf/r85xvpDiocA0aihp4K4Kx0Sz4iFNRQ6YhikgoLHzaqoZfMw7xVCipOuqWIKA19i3REIXw4D/OOSkfQ/7jh3q2hV0h3FMLNTjiDpSOIiMg3ODAJQDlZOVXn/n1u84kNJi67cOKCLbfphEWHBU3aNalm/PXxP0m3FMTXc75uuXP5TlsNeuiPTJhl3XAfBzBLuiU/CqqXE84E6Y6ilISkpgrqXumOfJgGjHGX/7mEaEkRSUZyQwC2PTNHQy+UbqArekk6oBCiTZhNpSOIiMg3ODAJXOrApgM3Dyo1SH848cNlsOHy1+DwYGP81vE1bbbSJOTZDs9GZp7NPC8dQt4xYMRf/sdnAJyUbLmKcAU1TDqiKBkwxsPCq0sU1FtpSPvtlix/XWHSQTqgEI4oqI+lI+ivwhD2Bqx9VlS+DBi3SjcQEZFvcGAS4LTWpZeMXXLz4LKDVx7ddXS3dE9BhUSEOMZvHV8jqlTULumWa+XJ9lw/vd10nmdiUxq6JAC44T4DYJpwTr40tCsFKeWkO4pCClKaw9pnBXg88KT+7v/75RkmCqq9dIO3NPQ7britfE14wJqN2WcBLJXu8Jadvy+IiOiPODAhAMC5I+dajqk+psybA978XGttSvcURFhMmGPC1gkV7HR7zv71+9ssfXbp99Id5JX/XylwCZdmAzgi2HI1YSbMEdIRRcGEOV66IT8a+t/zMf/3q9/8cYWJAtBSOsJbl28vIuv6XDrAWxq6ZSpS7XxzFBERXcaBCf1e1BezvrhtcOnBa07uO7lXOqYgIktGhk7cMTExLDpsj3TLtXpr0Ft1j+06dkC6gwrsty05eAWvXNDQUyRjrkFyClIqSUf4kguuVgDulO7IR46CmvCnt/ndCpMkJNWCff+9cgF8JR1BedPQn0k3FELEIRyqKx1BRESFx4EJ/cX54+ebj6w0MvLruV8vk24piOjS0WETdkwoExoZuk+65VporWMmNpl4xpPj4ZJwe/nD4Z05yEkDsF+o5VqEmDCHS0f4kob+8zDCUhTUIjfcu//wJiBCqqeoOOC4QbqhEH64vK2OLCod6TsA7JHu8JaGtvP3BxERXcaBCV2R1vq6//T+z82Tmkz6Mut8lpWvT/2DEmVLhI/bPC4uKDTIytsk/l/Wuay66Q+m2/n6xEAU/vv/swiLMhXUJKmYa9QjCUmVpSN8IQUprWHtg0azFdTk37+hL/qGwMKH03pLQzeXbigEO69eCBgKyrbbcgBwYEJE5Ac4MKF87V+3/9YnSz55YufynRuu/t7WULJSyegRP4xQylDnpFuuxbr/rmuz6YNNG6U76JqF//kNl68mtfLBw8EGjJHSEb5gwpwo3ZAfDZ02D/P2/P5tHniChXKKlM1fQefAxB7s/HWy80CRiIgu48CErio3O7fy9Jum13x3xLu2ObG+fKPypXu/2/sEgGzplmvgmNNpznUXTl44LR1C1yTsz29ww52joCx9CCmAx3uhVxXpiMJIQcrNAG6R7sjHRQX1lzNtFFSoRExRSkWqoaDsekbDpVM4tUY6gq7OA89y6YZCqM2DX4mI7I8DE7pWYR8//XGHsbXGLsu+kG2LLToN7mlQ6aEXHtoNQEu3XI3pMROfbf/sZukOuiZ/WWECAAlI+A8AK68UCvbAM1o6ojBMmKnSDVfxvBvuQ39+Yw5yQiRiitIBHKgIIFK6w0sbF2OxRzqCrm4+5h8B8JfvKZsIPYRDfrEVkogokNlyYBKEoNMdR3Rc3jap7Tetu7f+ummXpl/X+1u9r+vcXueb65tc/23J60uuioiL2BQUGvSLMtQp6V5/cmT7kZsHlR504MiOI7uv/t7y2vVuV7uts62Vn8T+v/3r97deu3jtj9IddFVXHJikItW0wSqTx3qhV03pCG+44LoNQDvpjnycN2A8c6VfMGD43QoTA0Yd6YZCsM0WUwIArJcOKIRa0gFERFQ4tlwq6Ib7YtrktLbX+v6mxzRPHzx9PGNLxtED6w6c3b9hf87h7YeDTu0/FX3p9KUE0zRLFWWvv8m+mF1nXK1xpx5b8Ni3N3a/sY10z9U8kvZIw8PbD6/f+fXORtItV6EWPLKgVL2/1bsQGhlq11duA4HDCWewG+6/3G6UhrR3kpG8SkFZde+6Ixe5IwE8Lh3ihTHSAflRUDPmYd7RK/2aB54Q5X9nvtp2YKKhOTCxlw0AOkpHeEND1wbwvnQHERF5z5YDk4IyHIYRf3186fjr40vX61jvL79+5tCZU7u+3bVn6xdbz/+84mfHsZ+PXZd9IbsKAuS/jze01nEv9Xjpxm1fbPu0x6s9bofFb4AY+PnARuNqjdty7Odjlt5z78n2VJjTac7XAz8faOVX0unXK2KvdCWpNmCM09AfF3fQtVJQD/dCr8lzMXe7dMu1csF1p4a+5iG5gFNZyHo2r190wBFiwizOnuJg21fOHXBwYGIjGnqDXQeOCqq2dAMRERUOBwIASiSUiGvapWlc0y5N//9tWReyMrct3bZ1zeI1p3d8tSPi9KHTNaARLZhpRcbKf6+8I2NzxpcjVo+40RHs+MthmFbhCHZg9LrRNYcmDt2bdSGronRPfrYt3dZmx1c7ttS4pYalhzuBLAhB4bjywARpSPvECee3AKy6+srhgWcsgIelQ66Vhk6VbriK6YuwKM9Dm02YfneGiYKqpK1/PNSVmNnItsU2TfqVgrLtlhwTZiXpBiIiKhxbnmFSHEIjQ8Ma3tewfs9Xe7adenBq03m586JGrByxu62r7fKY0jHrYY/bV4rF/g37bx2aMHTTxdMXj0u35CcsJixoxKoRUTa4btgx+67ZIZ4cz1+2fJA1ZCIz3787NbTVD1d90AWXLbZUOOG8C0AL6Y58HAtC0HP5vYMJ054vj+dDQ1eQbvDS3hfxotV/BtDvnMKpnQAypTu8oaDs+n1CRESXcWByjZShVKXmlao+Mu+RttOOTGv03Lnnch9Nf3RtlZZVvjWCDLue4O4z50+cv2FI2SGnj+48uku6JT8JdRJKdn+5+2FY/Oac7EvZ1Rc+tvA76Q7yTjrSv9bQn0t35MPQ0GOlI67ROOmAq5g6B3POS0cUMwXAlk8ENfRe6QYqmMs3Gh2U7vBSOVh8yzIREeWPAxMvhUaFRrRJatN02PfD2szJnpPQ/7P+22q3r/2t4TAOS7dJyc3KrTa25tiYrZ9vXSPdkp8WD7eofmO3Gy2/h33166tb7d+w/2fpDvKOAWMkrD2Y65qEpAbSEflxwtkJwA3SHfk4BGCudERxS0FKKQCW3YKZHwV1QLqBvGLXgUlYd3S/TjqCiIi8x4GJDyilUOe2OrUGLB3QZk72nDJPfPTEluptq3+rDHVSuq24aa1Lz7x9Zu1Vr636VrolP48teKxR6eqlN0t3XEXojJtnXNCm9rvTIgNBGtLWaOgl0h35UAYMK68yUbD+6pKn3HBflI4obibM8tINhZAhHUAFp6HtOjBBKELt/P1CRBTwODDxMWUoVb9j/bqDvxnc5vmLz8d0ndl1TUyZmPWw9ivNvha54KEFNyx7YdlX0iF5UYbCiFUjaoREhFj61caLpy/Wf2voW5YePlHeHHCMBix9Pcr9yUi25HXbyUi+H4Al2y7bF4rQ+dIREhRUaekGb3GFiT3Z+evmgce23y9ERMSBSZEKCg0Kat+/fbNph6c1mrBtwuFGnRp9aziMY9JdxST0tSdea/vhhA8te45DRGxEyLAVw0KhcEG6JT9fzPii/rmj5wJutZI/mId5mwG8Kd2RD6WgrLiKQymoMdIR+VFQE2ZjdpZ0hwQNHS/dUAi2XakQyOy8wgRAnHQAERF5jwOTYlKmZpmEXu/0ajP74uyS90+9f0NoVOhu6aZiELRk3JL2r7pefVc6JC/lG5Yv9eCsBy39ypXWOu75e57fIt1B3lFQYwHkSnfk475kJFvqnBAXXF0BNJTuyMeuBCS8JB0hyLZPAO28UiGQGTBsOzBRULb9fiEiIg5Mil1QSJBxx9A7Gs46O6uq803nxtjE2HXw7+06xnL38k4L/rngY+mQvNzS95aalZpXWi/dkZ89q/a03rl851bpDiq4NKTtBPCydEc+LHWWSSpSLX+Dj4ZOTUWqlYdgRS1WOsBbucgNlFWe/uaodIC3NLRtv1+IiIgDEzFKKTTt0rTB1INTG49YNWJvmRplVsOPByerXl/Vcf6D8z+S7sjLwM8H1gsKC7LyK1jGC/e+4NFa++2fEX/mgWcCAMtu39DQd6cgpbl0BwBkIONBAHWkO/KxpRzKvSYdIcnOW3JCEHJJuoG8YtvDlbnChIjI3jgwsYBKN1SqNGH7hBuG/zB8T6kqpdbCTwcnq99Y/bdXna9acqVJWExY0IBPBwBAjnRLXi6dvlTvk6c/WSHdQQW3AAv2AkiX7siPCTNVuqELujgAWH11ybhUpFr5IN8ip6AipRu8dREXM6UbqOBMmLYddGnoaOkGIiLyHgcmFlK5ReXKk3ZPajr468G74yrE/SjdUxSWpy+/c/HAxZYcmlS/qXq5m3vd/JN0R37eH/t+5ZxLObZ94BjgJsPar5J2dMLZRjIgHvEPA6gp2XAVG8uh3DvSERYQIh3grWhE8+9PG1JQdh50BUsHEBGR9zgwsaDqN1Wv9vS+p5v0fq/39tDo0F3SPT6mls5ceufbQ97+VDrkSh58/sGG8RXiLTs08eR6El91vbpSuoMKzg33IQAvSHdchdjNNF3QxaGhR0p9/ms0MtBXl1xm1yeA5mzMzpaOoILLRa6dB112/X4hIiJwYGJpDe9tWHPW6VlV73/6/lWGwzgu3eND6rPpn3X4ePLHlrtyWBkKQ1cMragc6rR0S15Wvrqy2ZmMM7Y9AC+QBSN4KoCz0h35uN0F100SnzgWsY/D2qtLVrvhtuw5TMVJQdl1hUkm/HTLq78LRahtByY2/n4hIiJwYGJ5ylDqjmF3NH/m2DPhde6s8x0sfMZGATneHfXuzd+/9P0y6ZA/iysfF/nwCw8fke7Ii9Y6Kq1L2jbpDiq4F/DCCQU1U7ojPxI31DjhDFZQo4r78xaEghoBPtn+jV1fMbftk+5AdwmX7Py148CEiMjGODCxiYi4iMj+H/dvPWLliIPhJcL95cly8KJui5ruWr5rrXTIn7V1ta1ZtnbZTdIdedm9YveNGVsy9kh3UMFp6BkATkh35KN9MpLbFfPnfBxAlWL+nNdMQy9LQ9oX0h1WoaEd0g1e8pcXHAJOJVSy81aqIOkAIiLyHgcmNlOpeaVKz558tuZdo+/6QSl1XrrHB6Knt5te7sjOI5YbAg1cOrCaMtQZ6Y48BKU9kJYhHUEF54b7jIKaJt2RHwU1qbg+lxPOYACWPrvEgDFOusFi7Dp4CJUOIO+cwRk7f+0se6U8ERFdHQcmNqQMpe6deG/LiTsnXogrH7dOuqewtNZlJ9SbYFw4ecFS22BiE2PDOz3V6YB0R14Obzvc8peVv+yQ7qCCi0DEcwAOSnfko00Skm4tps+VBKByMX0ub3yShrRvpCMsxq4Dk3DpAPLOWZy189eOAxMiIhvjwMTGSlUtVebp/U83vv/p+1cppax8XelV5Wbn1hhZeeSB3KxcS63ouGPYHXXjK8Zvke7Ig5HeNd2yh9NS3p7Fs5cU1FTpjvwYMCYW9efogi4hAIYV9ecppFTpAKvR0HbdHhEKQElHUMFp6DDpBm9paA5MiIhsjAMTP3DHsDuaj9049lR4TPh26ZbCyDyb2TS1buqPWmuPdMtvlFJ4cumT5a06kDqx70TzrUu3bpbuoII7iZNpAH6R7sjHjS64bivKTxCHOCeAikX5OQrpXTfcvMb7r+y6wkR1Qzc7b+0IWKEIte3AxIDBgQkRkY1xYOInEusllnvm+DPVGt/feAUAywwcCurY7mO3vPjwi59Id/xeqWqlStw2+LZd0h15efHhF+36am9AW4zF2QrqKemO/Gjo8UX1sbuhWxiAEUX18X3ANGHy7JIrsPMTwHCE23lrR8AyYdp2YGLjFVlERAQOTPyKI9jhSHk75cY+S/rsMBzGcekeb616bdWdK/+9cpl0x+91ntK5QVSpKEsOTc4ePdtk6+dcZWJHCUh4CcBO6Y58tEpGcsei+MDBCHYBSCyKj+0ji+dj/kbpCCvS0LbdCpiFLA5MbMjOW3IAZEoHEBGR9zgw8UMN7mlQe/KeyUZkyUirnr1xNY6Fjy5seHjrYcv0Gw4DT7z/RDQAU7rlShZ2X3hJuoEKLhWpubD+GRmpvv6ATjgjFNRwX39cH/LA+l8XMRr6lHSDtxRUhHQDecXOXzfbfr8QEREHJn4rrnxc/PTD02s1uLfBd9It3tBax01sPNHIvpB9QrrlN5VbVC5TrU01S77ifObgmRt2fL3jJ+kOKrhEJL4OYJN0R14UVPNkJN/t44+ZAqCsLz+mj73qhttyV51bhQHDtk8AHXBY+c8d5UFDl5Fu8JaGtu2KXyIi4sDErxlBhqPPe31ad32261qllO1WIORm5dae0GDCBljoTBbXYlctZajz0h1XsvDxheekG6jgUpFqamhLn5WhoMbDR7eLdEO3MA09yBcfq4jkOOCYIB1hcbYdmGjo8tIN5BU7f92OSgcQEZH3ODAJAO0HtG866KtBGXY81+TYz8dufSX5lY+lO34TUzYmrMPADj9Ld1zJyb0nm/+y6pcd0h1UcOlIfxfAaumOfDRJRvJdvvhAIQjpCWufXfLiXMy15Pe4VSiok9IN3lJQ5aQbyCsJ0gHeMmBYZqUsEREVHAcmAaJ6u+pVn/r5KTM0KtR2T6i/nf/tbTuX71wl3fGbzlM6NwiNCj0g3XEF6pWerxyTjiCvaA09RjoiP75YZeKEMxjAEN8UFYnMIARZ+uYiK/DAkyHdUAgcmNiQnQdducjlz2UiIhvjwCSAxF8fX/pfB/9VPv76+LXSLQUU+mz7Z+Oscp6JI9iBnq/2tMw2od87uPlg8+O/HLfzk5mAlY70TwF8I92RjyZOOP9WyI/xOICKvogpCgoqbQ7m7JfusDoFZcWB8TWx8xPvAGfbFSYeeGy3upeIiP4nSDrAG93QLXZKiynLFZSOLBlpQkEFBQfpqFJRiCsf54gtFxscVz4uvERiiagy1cuUDQ4PjpRutoqwmLCISbsmNf7Xjf9auWfNnhbSPdfKk+OpPqXllM/GbRp3G3x0lkJhNLyvYcWyNctuPrz9cD3plj8J/k/Kf3b2+7Sflbc8UN5GAVguHZGXy6tMPgKgC/p7u6CLA8BQn0f5zgUPPFOkI+zADfdFJ5wnAcRLtxSUCZMDE3uy69ft3CIssu013EREZNOBiQEjYs+qPW2v9f2VoY6GRYcdjS4TfbZc3XKZNW+pGVbj5hqlE+okVDIchi3/GxSGI9hhDF81vMVzdzz3w0+f/9RSuudaZWzOuH3pjKWfdHiyw53SLQCQ8k5K+dQ6qbmw2PfRls+3NLl4+uLZiNiIGOkWKhg33N+64PpUQ98h3XIlGrppMpJvv7wapkBiEfsQgOpFkOUTGvr5+Zh/RLrDRvbBhgMTBVVJOIEKKBWpRgYy7Hro627pACIiKpyA2JKjTV360plL9Y7uOHrjunfW3fp6v9dvnNBgQrVeQb1y+sX02zL9punLls5Y+u2JPScCZim2Ugr9P+vfstk/mv0g3VIQbw1+q8Xxn49vl+4AgITaCbHVb6puvetgNaLfHvL2OukM8tpoeLGCo7gYMAq8SiQVqYaCGlkUPT5yNgQh06QjbMauPy/L9UGfktIRdO32Y38VAFHSHV7iAdJERDYXEAOTfIRnncuqu3P5zpsXD1rcZmTlkRV6BfXKmNR40jdfzPri2wsnL1jizIyilPx6cst2vdv9AAs/Qfs9rXXcxMYTz2its6VbAKD7y91rQMESLb/3/aLvq5ke05LnrFD+0pC2BsB70h150dC3JiGpQCvTDuFQFwC1iijJF559AS/4/d/3PrZLOsBbWchqKN1A1y4IQY2kGwqBK0yIiGwu0Acmf2F6zMT96/ff9OaAN9s8WfLJ2AGxAza+1P2lL47sOLJHuq2oPPTCQy3vHHHnathkaJJ5NrP5G33f+Ey6AwBKViwZWa9jvS3SHX/myfWU+27Bd2ukO8g7Gno0AFO6Iy8GjMEFeHeloa28uuS0A45Z0hF2o6G3Sjd4y4DBgYmNmDDt/PXiwISIyOY4MMmf49KZSw1WLFrRfmzNsZX6Rffb8nKPl788ue+kXZci56nz5M7Nb+1/q2Wu7r2ar1746qbju49b4gH74/Mfr62Uuijd8WfvjXkvRLqBvJOO9C0AXpfuyEcnF1zXdB6JC657ATQo4h6vaeh/zcXcU9IdduOA4yfphkKw8xPwgKOgLPv3x9UoKG7JISKyOQ5MCiDrfFbd7xZ+d+uIiiPKDSo1aM1n0z9b6snxXJLu8pV/zPxHi1v73bpSuuMaxUxuPvkkgBzxkISYsCZdm1jiXJXfO3f0XOPtX20/KN1B3lFQqQBypTvy4NDQg67lHU2YVl5dcjQTmc9JR9iRgrLzwMTOWzwCkW2/XjnIsdwKVCIiKhgOTLxjnD9+vtnbQ97u0Cesz7k5neZ8cfrQ6UPSUb7wj1n/aHHDgzfY4iDYCycvtF4ydokltuY8POfhespQ56Q7/uzlni+LD5TIO2lI2wlgkXRHPh5zwnldfu/ghLONgmpeXEFeePoVvHJBOsKOLq/KOSzd4aXafdE3VDqCrq4nesYDuF66w0tHX8SLGdIRRERUOByYFJI2dekN721oPyxxWPzEhhO/3rtmryW2iRRG0mtJLet1rGeLocmHkz5sdebQGfE9wpHxkcFtktpYbuntiV9OVJJuoEKZCCBLOiIP4QBc+b2Dhi7IWSfF7VAkIudJR9icXW/jCslBTivpCLo6A8Yt0g3eUlB2/f4gIqLf4cDEd0IPbDzQbvINk2sNrzD8h93f7d4sHVQYT3zwRMuE2gnWPzRUI35Kyyl7YIEDax+Y9kA9wzDOSneQ/3DDvU9Du6U78tG7C7pc8awcF1zVFdQ9xR1UABOfxbN+s6VSiG3OvfozE+Zt0g10dQaMO6QbvKWhOTAhIvIDHJj4njp14FTLf7X5V70hZYb8uOvbXbbcv6oMhdHrRzcuUZuziLoAACAASURBVLbEJumWqzm171T7NW+s+VK6IywmzNG0a1Px1S7kX3KROxHAeemOPCTGI75rHr82ANb9GbP3FE4tkI6wOwVl24EJgNulA+jqNLRtv04aeoN0AxERFZ5VH8z6hbNHzzaZ1nZanVFVR313dPfRfdI9BRUUEuQYt3lcteDw4D3SLVez8LGFFcxcU/xJZddnu9ZVSll1CwXZ0EIsPKahX5DuyIuG7v/nt/VEz3gN/bhEz7VQUOMXY3G2dIfdZSN7tXRDITS52hk8JMsJZy0AFaU7vKWg1ks3EBFR4XFgUvTU8Z+Ptx5TbUzJeQ/MW5p9MVv8SX1BRJaMDB+7cWyE4TBOSLfkJzc7t8Z/+vxHfJVJTNmYkGo3VbP9OTZkLSbMfwE4I92Rh2YuuP5wHoQBoweASKGeq9mRgIRXpCP8wUIsPAbAcmc3XSNDQ3eQjqB83SkdUAjH3HBb7vY8IiIqOA5Mik/kurfXdegf0//0dy9+9510TEGUrla69BPvP2GJK3zzszx9eZtzR8/tke54eM7DlQGY0h3kPxZgwUkNPUO6Iy8a+veHvyoFlSQWcxUKKjUVqVa9rtmOvpYO8JaCsu12jwBh2/NLFNRXsMDZakREVHgcmBQz02OWf7nny62HVxi+6sTeEweke65V3Y51q98x9A5r78fViJ/ZYeZP0hkJdRJKJNRJEO8g/xKM4BkAjkp35KFrL/SKA4AUpLQDUFO4Jy9bEpDwhnSEP1FQ4iv7CuE+Xi9sTSlIKQ2gvXSHtzS0nb8viIjodzgwEXLqwKnmoyqPin5/3PtfwCavQtw/9f5mlW6oZOk96wc2Hbhj17e7xFfw/PP5f3JvPPnUHMw5D2C6dEcewj3wPAoAJsxk6Zi8aOgxqUjl6i8f8sDzOWzyM+wK4jORebd0BP2VCfNRAMHSHd7ywPOFdAMREfkGByaCtNYlPpjwQfsRFUesOHf03GHpnmsx+JvBjSPiIqy8L9fxwr0vmBDeElPzlpplYxJidkg2kP/JRvZsAAelO/KQ0gd9SgK4XzrkShTU2nSkvyvd4W/mY/4RALZdUaegHpNuoCuy89dl/wIs2CUdQUREvsGBiQWc3Hey9dCEoVj171UrpFuuJjgsOGjk2pHXKUNZ9QBKXDx1se26/64TXw7beXLnIOkG8i+LsCgTwBTpjjzUzkGOG0CYdEgexsK+KyGs7nPpgELoeHn7B1lEClKaA2gg3eEtBcXVJUREfoQDE4swTbPsgkcWtJrRYcanpse09OGqpSqXKvlI2iOWPn9l4WML4yB8SG3LR1pWCQoOOibZQP7nFE6lA/hFuiMPllxdAmBFGtI+ko7wY0ukAwoh2APPP6Uj6H9MmD2kGwqJK9mIiPwIBybWorZ/sf2OwWUGbzpz6Iylt+i0SWpTt0qrKqukO/KSdSGr6bcLvl0q2WAEGWjSpYlVt0+QTS3G4mwNPUm6w05MmGOkG/xZIhKXA7D01fP5UVA9ASjpDgL6om8MgAelOwrhooa284orIiL6Ew5MLOjCiQtNhlcY7tn17a710i35GfD5gMbB4cF7pDvy8lqf18pprTMlG+6deG8N8Iph8rHTOP0SgG3SHXagoJbPx3zxLXr+LBWpuQrqfemOQqjvgouHv1pAJjL7ACgh3eEtBfWpG+6L0h1EROQ7HJhYlOkxy01rO63acvfyb6Rb8hIaGRo8aNkgB4As6ZYryc3KbfD59M9FX+kpVaVURKmqpfjElnxqMRZ7NPR46Q6bGC0dEAhMmO9INxSGCZN/ToQ54YxQUAOkOwrD7t8HRET0VxyYWFvUq65XW7/c8+VPYdHDCis3r1yhdc/WG6Q78vLOqHeqa61FX+25e9zdEZKfn/xTOZR7E8BG6Q6L+zgNaZYdOvuTKER9DuCsdIe3FP6vvTuPj7q+8zj++s5MSMJ9IwGkUkDECwmgrgdKa209elhxW4+uCpkga2vdbuvaVp3W7WqrLa3UkPwCSmVbj9h6V4u26K4nOogoeLAc9QiCGG7IMZnv/kFsMQYrZGY+c7yfj0f+qTWflyhh5jO/3/fnJlVSeYp1R4GrBHL5AN5EkuRD1hEiIpJaWphkv/BTtzx16k+P/elj3vtW65iOnDfnvImlPUuz8hF6yZbkmEU3LzK9HH/S1yd9KlIc2WjZIPknRizp8TqbY++8zi7JnFnM2gXcZd3RGR7/A+uGQnUhF5YA37Xu6KRH5zGvwTpCRERSSwuTHLH62dWnXHPwNU8mE0nTMzk6Ei4Ku8sfu7wU46fS7M29V9w7CEhYzQ9FQkw4Z4IOf5WUq6X2AY/P2sOXLTncvXOZG7fuKDC/sQ7opMkVVEy2jihExRRXAIOtOzrD4+dbN4iISOppYZJD1q9cP/kHI34QTzQldli3tDd84vAh5WeXL7Hu6EjTzqaJL93/0iLLhjN/dOZosvS2KslpPkRIZy98VBLQGS8ZFhA8Cbxu3dEZDjdrKlPD1h2FZDrTB+XBmUwNJZTcZx0hIiKpp4VJjml4q+G4K4df+UqiOfuWJhctuGhCUWnRX607OnLbtNsilvP7H9S/tFdZr6y8bUlyWw01jwKmC8EsdEcNNVl7tlKe+611QCcd1ZveF1tHFJIQoRuBPtYdnfS72czOygPwRUSkc7QwyUFb1289+vvDv7880ZTYZd2yp6KSovD0301vtu7oyPaN209au3jt05YNx08/PitvWZLcFyKkszr+rhW41jqiUCVIzCNLb8/8pBzuupnMPMC6oxC03QJ1nnVHCtxqHSAiIumhhUmO2vLulklXjb5qSbadaTLuy+NGDRo96EXrjg64eefP22wZcPKlJ4/G8CwVyV/VVD8FPGzdkSVuCwj0KG8jt3BLPfAH645O6pcgcbN1RL77Jt8sdrgawFm3dNLSgCArb0kWEZHO08IkhzW82XDcteOufdp7n7Ru2dOlD156IJBVixyADSs3TNn67tZXreb3GNAj0v+g/iut5kt+a3siTKGfk9McIvRj64hCFyI027ohBc6qoCIfrnzIWk00xYCDrTtS4JfWASIikj5amOS4+uX1U359xq+z6pPlgaMG9pv49YnLrDs6UHLX5XeZfvJ80syTdJigpEXbE2Huse6w5HBzq6lea91R6NqueHrBuqOzHK46SnSMdUc+qqDiDOAK644UWN9M853WESIikj5amOSBV/74yun3/Mc9C6079vSNud84KlIUWW/d0V78rvjh3nuzA3OPm3bcSOdcTt/fL9nL469m9xkehajR4f7LOkJ2c7h8uMqkO3B7lGhX65B8EiX6aYdbQO7figMwez7zs+6KWhERSR0tTPLEIz99ZMri3y1+0rrjA126dik6/erT66072ksmkyMX/3bxE1bzu/bpGhp8yOA3rOZLfquldjlwu3WHkTnVVL9jHSG7efztwBrrjhQYByyIEdPrpRS4kAtLgLuA3tYtKbCziKJq6wgREUkvvQDIH5F55887bN2r67Lmzfjnr/z8uKLSorXWHe39/nu/L7KcP+VbU0ot50vei5HjTynZDztChK63jpC/CwhaHC5f/p2cVU+9nrzUea6IohpgvHVIKjjc/Ju5+X3rDhERSS8tTPKJp/dPjvpJsnF7Y1b8AR4Kh9zZPzt7m3VHe1vWbZm8+Z3NZmesTPz6xBG6LUfSJSBY5XDzrTsyyeFuqqZ6g3WHfJjH3wq8ad2RIt+vpPLfrCNyWQUV1zncN6w7UqQxTDhfFoIiIvIxtDDJMy1NLWOuPeLa5UBWPDln8szJh5f0LFll3dFOl9svvf3/rIaX9Cyh3/B+q63mS/4LE76WLHxSVZpsSZC40TpCPqrtKpO8+Xfj8TdGif6LdUcuqqTyCofLh0NeP1BdRdVb1hEiIpJ+WpjkoY1rNp5Y9526R607AFzIcW7VuVl3NcWy+5cdiuEbyvFTxyesZkv+q6LqLYerse7IkFnzmNdgHSEda6ChBsi2pfn+csCtUaKXWofkkkoqr/D4fLoaY0eSZD7984iIyMfQwiRPPfaLxyavfnb1S9YdAEefd/SY0l6lZld0dCSZTB78+qLXn7Kaf+yFx46wmi2FoZXW6wCzJ0JlyPvFFM+yjpC9q6OuGbjauiOFHHBTlOh3rENygIsS/WmeLUsAfjmXuVn3FEAREUkPLUzyV8nPT/p515adLVutQwDO/PGZu6wb2rv3B/eana9SNrastLhb8Tqr+ZL/5jJ3vcPdZN2RTg53w2xmZ8XPONm7MsrucLi4dUcKOeDGCirmxIhFrGOy0YVcWFJJ5R3A96xbUqyhmea8uc1MRET+MS1M8liiKTFq1qmznrHuADh55smHR4ojWbUgWPPsmvHee7M3WweffPB7VrOlMIQI3QBstu5Ik/U72flr6wj5x2LEkq205tsbZxxuRj31C2cy8wDrlmwSJXpgEUVPePw51i2p5vFXzWd+vv5MFRGRDmhhkudWPbnqlJcffPlZ645QJMRnLvtMvXXHnrz3By69d6nZbTn/dPE/DbSaLYVhDnM2Ab+w7kgHj79uAQvy/ZajvDGXuX9xuHusO9Lg5ASJF6czfYp1SDaopPI0YInDTbJuSYMXN7O5UM6GEhGRNlqY5L/QnLPm9G/Z1WL+icgZ15wxLhQObbLu2NP9V91vdiDtYV847AAXcoXyJBMxEiEyC8i3R+7Wd6d7YB0h+yZM+DJgu3VHGhwQIvRYlGjNTGZ2t46xECXaNUr0Vx7/INDPuicNvMN9u466VusQERHJLC1MCkBrS+vIqq9Umd+a06Vrl/C4r4xbad2xp/rl9UcnW5Mmt8YUlRQxaPQgPV5Y0qqKqu3Az6w7UuzHs5iVdeciycdrewxrzLojTRwQTZB4qZLKM61jMilK9MvACuBb7P51yDsev6CGmv+x7hARkczTwqRArPjTiinvvPzOK9YdZ1131mggad2xh0Ev3PXCYqvhh59+uLeaLYWjG92qgKy6Ja4T1gC3WEfI/imj7FfAMuuONBrh8fdHif5xOtOPsI5Jp0oqx0aJPgzcAwy37kmjzUUUXWEdISIiNrQwKRzFPz/p59sxXlYMGDmgd79P9Vtu2dDeX375l2ar2eO+Mm6Y1WwpHG1XY/yndUeK/CggMLuVTjonRiwRIlQBJKxb0uwLIUJLK6i4t4KKidYxqTSNaSOjRBd4/MvA56170s3hvllF1bvWHSIiYkMLkwKyo2HHMU9UP/EX644zrj4jqx7DuPaFtQcDTRazD5p0UE+dYyIZMhfI9VvA3iij7LfWEdI51VQvBq6z7sgA53BfcrjFFVQ8meu36kxnenmU6G1hwq8C51MYryHvraHmv60jRETETiH8YSd7uOPSO0a0trSaHrp3zAXHHBIuCmfNIZQ+6ceue3WdyW054aIw/Q7s91eL2VJYAoIWj7/WuqMzHO7qGLF8vzKhIJRR9mPgeeuOTHG449pu1VkeJRqroGK0ddMnESXaq5LKaCWVL4QIvQBcAGTVhx5p9F6IUKV1hIiI2NLCpMAkW5Mj7v63u00PLgtFQoyfOj6rlgQLb1i43mr2mM+O0e0FkhGb2bwAeM26Yz8tG8zgOusISY0YsYTHXwQU2hV2Y4FrHO71CiqeixK9fBrTsur8jyjR/hVUXBwl+iCw3uNrPL7cuivTHK6imuqs+XBHRERsaGFSgBbdvGh8044mkyfDfOC075/2acv57S25e4nZYxCP+spRB1jNlsJSR12rx19j3bGfrokRy6YDo6WTaqld7vHfse6w4nCTgF+ECa+NEl0bJbogSrSygopDyeDTZmYwY2AFFWdEif4sSjQOrHe4ecDpQHGmOrKJx1fXUHOfdYeIiNgrlMsqZQ/e+wNum37bQxW3V5xu1VB2aFnf0l6lq3Zt2ZUVi5PGbY3HNG1vWlncvXhUpmePmjyqv3Mu4b3X70dJuyEMubue+qXAOOuWffBCQKA3L3moltqqKNHjgHOtW4wNb/s63+GIEn3f4V4CVnn8amBVkuTqBIlV85m/eV+/eZRo1xChEa20jnC4EcBBDjfC4w9Pkhzu8vNpwPvruRJKvm0dISIi2UFv0ApU/M74MRfUXvBeSfeSAVYNR59/9KbHb37canx7pc/99rkVJ1aemPGFSXG3YroP7P7mtvXbRmR6thSeGLFkJZVXe/z91i2flMNdBegR3HkqQqQyQWIcu29Xkd36efwUYMoH/0OIEF3oQpToTnYfVL4JaHS4XR6/2eOTDuc8vqfDFQM9gG5ACdArSZI9FyNev6U6siFCZOpsZpscBC8iItlHt+QUKO99v7rL60wP3Pvcv3/uYLLoTdBzC54zO0xy1PGjdljNlsJTQ80DDvesdccn9GQNNY9YR0j6VFG1PUnybMD0QPIc0hXoA4wAxradL/IZhzsF+GzbrT5Htv31QUAvs9LckgC+VkXVW9YhIiKSPbQwKWBP3/L04a0trVus5vf7VL8ePQf1zJoDKNc+v7YMowXO6JNHd7OYKwXth9YBn0SI0FXWDZJ+c5n7qsOdC7Rat0hh8vgrA4JF1h0iIpJdtDApYMlkcthD1z70tGXDpHMn7bScv6dEc2J8867mlRazRx4/cojFXClcNdT8Gcj2NwePVVP9uHWEZEYNNQ8A/27dIYXH4+fVUnujdYeIiGQfLUwK3MKfLRyO4Sd6J1ScMNJqdgeKlz2w7HWLwUMOHVKMo9lithQuj8/qq0wc7mrrBsmsgOCXwM3WHVJQHh7CkBnWESIikp20MClwLU0tY1c8uuIZq/kHHHJAry5du7xtNb+9Z37zTKPF3FAkRPe+3ddZzJbCVUvt08BD1h178VANNWY/m8ROGWXfdrgHrTukICyJEDknRszsDDMREcluWpgId37rzl2W80efNDprFgUr/2el2VODyg4t22o1WwpXkuR3gRbrjnYSwJXWEWIjRizRQMNXHe5P1i2S195JkvxSFVU6bFhERPZKCxPh3dfePW7H+zvetJp/YsWJ/axmt9e0vekon/QmJ+SPPH5kkcVcKWxzmfsqMMe6Y08ef1NA8LJ1h9ipo67Z488CnrRukby0PknylLnMzZorXEVEJDtpYSIAXR+IPWD25uTQ0w4dgSNbHqvb662lb5mcYzJq8qhBFnNFgKsBkwOPO/BqK60x6wixFxDsDBP+IrDUukXySr3Hn9i2LBYREflYWpgIAE/f+vRAq9mRLhH6Duu7xmp+e8seWLbJYu7wCcP7WMwVCQi2AF8EthmnbHO4s2/hFusOyRJzmLMpTHiKxy+2bpG8sN7hTqml9g3rEBERyQ1amAgATTuaJmxYuWGZ1fyxp4w1OWy1IysWrnAWc7v17UakJLLRYrZIQPCax08FrB71vc3jz6yhZoXRfMlSc5izqYWWU4HnrFskp60LE56snzEiIrIvtDCRD7j7fnifydkdAOOnjje7wqW9d15+x+xMlZ4De5pc3SICUEvtnzz+NGBzhkdvCBH6bC21T2R4ruSI+czfXEzx5xzuf61bJCe9AZwwhzkmt9yKiEju0sJE/mbpfUuHAd5i9ujJo4fhaLaY3V7jtsZRZP4NIwD9R/Rvspgr8oG2pcWRwKIMjXwMGFdNtW65kI81m9lbd7LzC3rksOyjZ4DjAoJV1iEiIpJ7tDCRv0k0JQ5/f+37JpeqFpUUuV6DemXLi5mhm+s3m/w6lI0tC1vMFdlTQPBmGWWf9fivA+k6EHq5w51bRtmpAUHWPFpcstsCFuxooOHLDldl3SLZz+Hu6Ua3zwQEut1VRET2ixYmsif351/9ea3V8JEnjNxuNbu95Q8vf9di7tAjh3azmCvSXoxYspbaOwKCI4Ep7H708Dud/LbrgBqPP6WMsiNqqLk9RizZ6VgpKHXUtdZQ868e/11A//3I3tzUQMPUWczaZR0iIiK5K2IdINnl+d893/OcWeeYzB4zZUy3eF3cZHZ7r/35tebjph2X8bllh5UNyPhQkY/nA4JF7L5FZ+ZMZh7QQsuRIUJDgV5AryTJ4vZ/U4hQE7AF2JIk+bbDLdOVJJJKtdTeWEnlao+fD/Sw7pGssQu4JCD4jXWIiIjkPi1M5EO2btg6vrWldWO4KNw/07NHTx49NNMz9+btZW93sZg7cNTAUou5Ip9UFVXvAiZXYIm0V0PNHyqoeMXhfg8cZt0j5t7y+K/WUvu8dYiIiOQH3ZIj7XVb8egKk/M7Bh08qKcLOatHmn5Iw1sNvSzm9hjQg1A4lBW/BiIiuaCW2jciRI4F7rRuEVOLQoQmaFkiIiKppIWJfMSz85/dajHXhRw9+vcwe7Txnpq2NQ0Gm6f2dO3d9X2LuSIiuaqKqu0BwdeAS9l9S4YUlqTH/7Ca6g3WISIikl+0MJGPePXPr/axmj3kiCHbrGbvyXt/kPf+rxazew/pnTWH34qI5JKA4GZgPPCCdYtkVMjh7q+kcqx1iIiI5BctTOQjdjTsONwn/RaL2Qcdc1C2nKtTunH1xrctBvce0ltPfRAR2U8BwWtllB0L/Ahote6RjOnn8QunMW24dYiIiOQPLUykIz3fXvb26xaDhx01rKfF3I6sfX7tZou5vct6O4u5IiL5IkYsERDEPP5Y4EXrHsmYIWHCj0SJZvzgehERyU9amEiHXnnolY0Wc4ceMfQAi7kdWf3M6iaLuX2G9TF5Qo+ISL6ppfb5MsomOFwlYHI+l2TcGOCPM5nZ3TpERERynxYm0qHlC5d7i7n9P9W/K9BiMbu991a+ZzK3z7A+erSwiEiKxIgla6gJIkQOA35v3SMZMTFB4vdTmaoPIEREpFO0MJEOvb3sbZODX0OREEWlRVlxyv2mdzaZnKfSZ0gffSomIpJiVVS9FRCcDRwDPGndI2n3ub70vWMqU8PWISIikru0MJEONW5pHIbRYXk9B/bcZDG3vW0btpVYzO05uGcPi7kiIoUgIHguIDjB4b4IrLLukfTx+K/0pvevrTtERCR3aWEiHfLeD2ne2WzylJi+B/Y1OTukvZ1bdnazmNu9f3f9vhQRSbMaah4ADnG4fwHesO6R9HC4GVGi11h3iIhIbtIbM9mbUP0r9fUWg/sM7WNyfkp7icZELyDjLT0G9MBirohIoQkIWmqoua2MskOAc4DXrJskLWIVVFxmHSEiIrknVxcm26wDCsGaZ9dssZjb58A+WXG/sfd+AJDx24PCRWFCkdD2FH27nSn6PiIieStGLBkQ1G1i02HAOR7/lHWTpJbD/aKCinOsO0REJLfk5MLkFm7ZBqTqDaXsxV9f/KvJ02r6De9XbDG3AwMAkwNoI10ijan4Ph5vcpWQiEguqqOuNSCoq6X2+BCh8UAA7LLukpQIOdx/V1BxqnWIiIjkjpxcmLSJWwfku4a1Dc5ibp8D+5icHdKBkl1bd222GByOhBMp+lbLUvR9REQKSjXVLwYElREiI4DvASusm6TTihzu7goqJlqHiIhIbsjlhcm91gH5bvO6zV0s5vYd2reXxdyONG1rMjmANlyUmoVJiND9qfg+IiKFqoqqdwOCGwKCQz3+MI//KfCedZfst+4O98fpTD/EOkRERLJfzi5MwoR/g8H5EoVk+3vbSy3mdu/fPWseq9u0rcnktqRwl3AqHun8RDXVr6Tg+4iICFBL7fJaav9jE5sGAycANwG69TH39A8RWjiNacOtQ0REJLvl7MJkDnM2AT+27shnzTuae1rMLSotyopDXwEatzc2W8yNdIl0dmHSGiL0vZTEiIjIh7SddfJkQHBZGWXDQoSOB24AlgJJ4zz5ZIaGCT80jWl9rUNERCR7RawDOiMg+FWU6DHAP1u35KNES6KrxdwupSZ3AnWocXtjKq702GeRkkhnX3BfWU314pTEiIjIXsWIJYGn2r6IEu0PnOzxUxzuZOBgyz75WIdGiDx0ARd8dgELdljHiIhI9snphQnggYuBYuDLxi15xyd9icXcSEkEdn9CZ34FVOOWxlQdvrpPikqKOrMwuT4guCFlMRnm8S0Ol9WHOnu8ya1akrN2Zvt/05I6AcFGoK7ti0u4pE+CxKQQoYkePwmYCBxg2bgPmth92O0rwMtAL+AHpkUp5vHHlFJaFyX6pYBAP9s/alWu/fzyeJ0xVKBy4TXkXujWzixm8hSUVIsRC9VT/z12/yHe3bonjzTU+Jpu7F5IZdSM0Ixd3nuTM1T2dPFtF9cdfcHRUzM99/pjr39tzbNrxuzj37bO4S6voebOtESJiEhKRIn2T5I8xOHGAGMcbiwwAhgGWPzZ9w6w6oMvj1/p8S8PZejKGLEPfXBQQcX1DneFQWNaOdxvBzP4G21XDImIiAC5f4UJ8LfLYa+fzvRbQ4QuYffVJkcaZ+WDbsAODBYmhGii1eRF44fs3LLT5IXTPtyW5IG4x9/ZSOMcXVIsIpL92q5C+d+2rw+JEu3v8UNDhIYBQzy+L9Ab6NP21dvhegN4fARof1B6wuG2ebwHNgM4XEPbp+4bHe59YCOwIUny3e50Xz2LWbs+aXsttVdGiQ4Bzt/Xf+5s5vHn1VP/PnCZdYuIiGSPvFiYfGAuc9cDMSB2OZeX7mBHWZJkb+OsXNcCFGV6aP9P9w+vf2O9yfkhe+rStct2dh/kl1Hd+nYrA/Z6S5THNznc2620rp3HvIYMpomISBq1LVM2svsA2WzkgYsdboDHn2odk2LfihLdEBD8xDpERESyQ17ckiMiIiIimXMxF/eIEHkCOMq6JdUc7ls11My27hAREXtamIiIiIjIPruIiwYUUfQ0MNK6JcWSwNcCgjrrEBERsaWFiYiIiIjsl2lMGxkm/BQw0LolxZqBMwOChdYhIiJix/yxrSIiIiKSm+Yx7/9ChM5k9yHx+aQLcPd0ppdbh4iIiB0tTERERERkv1VTvdjjvwYk/uH/Obf0CBF65BIuOdg6REREbGhhIiIiIiKdUkvtgw73r9YdadC/ldZHZzJzmHWIiIhkXtg6XN4qMQAABKVJREFUQERERERyX5x4vJzyIuBE65YU65Uk+blxjLvjRV7cZR0jIiKZo4WJiIiIiKREnPiicsoPJP8eNzwwROiksYy9fRnLWqxjREQkM3RLjoiIiIikigcqgUesQ9Lg6FJK74wSLbIOERGRzNDCRERERERSJiBoAb7qcM9at6TB6Q53a4yYXkOLiBQA/bAXERERkZQKCHZ6/JnAG9Ytqebx59VT/yvrDhERST+dYSIiIiIiKRcnvrOc8oeBfwa6W/ek2KQJTGiME3/KOkRERNJHCxMRERERSYs48U0TmPA4cC7QxTgn1T5TTvk7ceJLrENERCQ9tDARERERkbSJE6+fwISX2H2lST7dDu6A08czfvkSlrxqHSMiIqmnhYmIiIiIpFWc+MoJTKgHvmjdkmIhh/vyBCY8Fye+2jpGRERSSwsTEREREUm7OPEXyyl3wEnWLSkWBr5UTvnCOPF11jEiIpI6WpiIiIiISEbEiT9eTvkAYJJ1S4oVA2eNZ/x9S1jyvnWMiIikRj7dRyoiIiIiWW4Tmy4D7rXuSIMBDvdwlOhg6xAREUkNLUxEREREJGPqqGvtRrdzgaetW9JgBPCnS7ikj3WIiIh0nrMOEBEREZHCEyXaH3gSONi6JQ2e2cWuUxawYId1iIiI7D9dYSIiIiIiGRcQbEyS/ALwrnVLGhzbla53xIhFrENERGT/aWEiIiIiIibmMndNkuQZwHbrllTz+DPqqb8VXdEtIpKz9JQcERERETGzhCXrjuKo5xzu6+Tfa9MjyikvjRN/zDpERET2Xb79oSQiIiIiOWYJS9aMZ/zbDvcl8u+KjOPKKd8eJ/6MdYiIiOwbLUxERERExNwSliwtp/x94DTrljQ4ZTzj31rCkhetQ0RE5JPTwkREREREskKc+OJyyrcAn7duSTHncGdMYMIrceKvWseIiMgno4WJiIiIiGSNOPFnyynfCUwhvx5QEAK+WE75E3Hib1rHiIjIP5Zv94iKiIiISB6YwYyTkiTvBAZat6TYFo8/qZbapdYhIiLy8fJpay8iIiIieaKa6sdDhI4G8u2w1F4O99B0ph9kHSIiIh9PV5iIiIiISDZzUaJnAz8DPmXckkqrIkSOr6LqXesQERHpmBYmIiIiIpL1okS7OtwMj58GjLXuSZElxRSfPJvZW61DRETko7QwEREREZGcMp3px4QJX+DxpwCjrHs6aVEzzafNZ36jdYiIiHyYFiYiIiIikrNmMGOIx58MTPD4w4AjgAHGWfvqD5vYdE4dda3WISIi8ndamIiIiIhIXrmIiwZEiAxxuCHAYIfr5/E9PT7scD2BsHVjB+4ICBZZR4iIiIiIiIiIiIiIiIiIiIiIiIiIiIiIiIiIiIiIiIiIiIiIiIiIiIiIiIiIiIiIiIiIiIiIiIiIiIiIiIiIiIiIiIiIiIiIiIiIiIiIiIiIiIiIiIiIiIiIiIiIiIiIiIiIiIiIiIiIiIiIiIiIiIiIiIiIiIiIiIiIiIiIiIiIiIiIiIiIiIiIiIiIiIiIiIiIiIiIiIiIiIiIiIiIiIiIiIiIiIiIiIiIiIiIiIiIiIiIiIhICvw/71iLPQKPiAwAAAAASUVORK5CYII=;labelPosition=center;align=center;fontColor=#FFFFFF;fontSize=14;fontStyle=0;imageBackground=default;" parent="1" vertex="1">
          <mxGeometry x="-803.37" y="712" width="122.3" height="31.13" as="geometry" />
        </mxCell>
        <mxCell id="YRH-If-phGwxbPu7-fWD-145" value="Home Assistant" style="shape=image;verticalLabelPosition=top;labelBackgroundColor=#27284b;verticalAlign=bottom;aspect=fixed;imageAspect=0;image=https://upload.wikimedia.org/wikipedia/en/thumb/4/49/Home_Assistant_logo_%282023%29.svg/1024px-Home_Assistant_logo_%282023%29.svg.png;fontSize=14;fontColor=#FFFFFF;labelPosition=center;align=center;" parent="1" vertex="1">
          <mxGeometry x="-825" y="674" width="49" height="49" as="geometry" />
        </mxCell>
        <mxCell id="YRH-If-phGwxbPu7-fWD-149" value="" style="edgeStyle=orthogonalEdgeStyle;html=1;endArrow=block;elbow=vertical;startArrow=none;startFill=0;endFill=1;rounded=0;fontColor=#FFFFFF;strokeColor=#FFFFFF;strokeWidth=3;exitX=1;exitY=0.5;exitDx=0;exitDy=0;" parent="1" source="YRH-If-phGwxbPu7-fWD-147" edge="1">
          <mxGeometry x="-0.0114" y="18" width="100" relative="1" as="geometry">
            <mxPoint x="-750" y="569" as="sourcePoint" />
            <mxPoint x="-557" y="656" as="targetPoint" />
            <mxPoint as="offset" />
            <Array as="points">
              <mxPoint x="-557" y="728" />
            </Array>
          </mxGeometry>
        </mxCell>
        <mxCell id="YRH-If-phGwxbPu7-fWD-150" value="&lt;font style=&quot;font-size: 12px;&quot;&gt;SUB&lt;/font&gt;" style="text;html=1;strokeColor=none;fillColor=none;align=center;verticalAlign=middle;whiteSpace=wrap;rounded=0;fontSize=12;fontColor=#FFFFFF;" parent="1" vertex="1">
          <mxGeometry x="-661" y="707" width="74" height="20" as="geometry" />
        </mxCell>
        <mxCell id="hQxcMcqScjX-AAAEz2oi-1" value="1" style="ellipse;whiteSpace=wrap;html=1;aspect=fixed;strokeWidth=2;fontSize=18;fontStyle=1;strokeColor=#FFFFFF;fillColor=none;fontColor=#FFFFFF;" vertex="1" parent="1">
          <mxGeometry x="-542.35" y="202.82" width="30" height="30" as="geometry" />
        </mxCell>
        <mxCell id="hQxcMcqScjX-AAAEz2oi-2" value="2" style="ellipse;whiteSpace=wrap;html=1;aspect=fixed;strokeWidth=2;fontSize=18;fontStyle=1;strokeColor=#FFFFFF;fillColor=none;fontColor=#FFFFFF;" vertex="1" parent="1">
          <mxGeometry x="-349" y="202.82" width="30" height="30" as="geometry" />
        </mxCell>
        <mxCell id="hQxcMcqScjX-AAAEz2oi-3" value="3" style="ellipse;whiteSpace=wrap;html=1;aspect=fixed;strokeWidth=2;fontSize=18;fontStyle=1;strokeColor=#FFFFFF;fillColor=none;fontColor=#FFFFFF;" vertex="1" parent="1">
          <mxGeometry x="-89" y="302" width="30" height="30" as="geometry" />
        </mxCell>
        <mxCell id="hQxcMcqScjX-AAAEz2oi-4" value="4" style="ellipse;whiteSpace=wrap;html=1;aspect=fixed;strokeWidth=2;fontSize=18;fontStyle=1;strokeColor=#FFFFFF;fillColor=none;fontColor=#FFFFFF;" vertex="1" parent="1">
          <mxGeometry x="-381" y="438.56" width="30" height="30" as="geometry" />
        </mxCell>
        <mxCell id="hQxcMcqScjX-AAAEz2oi-5" value="5" style="ellipse;whiteSpace=wrap;html=1;aspect=fixed;strokeWidth=2;fontSize=18;fontStyle=1;strokeColor=#FFFFFF;fillColor=none;fontColor=#FFFFFF;" vertex="1" parent="1">
          <mxGeometry x="-699" y="531" width="30" height="30" as="geometry" />
        </mxCell>
        <mxCell id="hQxcMcqScjX-AAAEz2oi-6" value="6" style="ellipse;whiteSpace=wrap;html=1;aspect=fixed;strokeWidth=2;fontSize=18;fontStyle=1;strokeColor=#FFFFFF;fillColor=none;fontColor=#FFFFFF;" vertex="1" parent="1">
          <mxGeometry x="-751" y="674" width="30" height="30" as="geometry" />
        </mxCell>
      </root>
    </mxGraphModel>
  </diagram>
</mxfile>
